<svg width="155" height="91" viewBox="0 0 155 91" fill="none" xmlns="http://www.w3.org/2000/svg">
<g id="Component 2">
<path id="Vector" d="M71.469 27.2129H78.109V56.4929H71.469V27.2129Z" fill="#292B29"/>
<path id="Vector_2" d="M81.277 27.2129H87.917V56.4929H81.277V27.2129Z" fill="#292B29"/>
<path id="Vector_3" d="M89.727 35.239H96.97L101.346 48.17L105.722 35.239H112.965L101.648 64.669H94.405L97.867 56.347L89.727 35.239Z" fill="#292B29"/>
<path id="Vector_4" d="M68.563 46.0209C68.563 44.4909 68.293 43.0509 67.753 41.6999C67.2394 40.3907 66.4712 39.1963 65.493 38.1859C64.526 37.1949 63.371 36.4059 62.027 35.8209C60.683 35.2349 59.207 34.9419 57.599 34.9419C50.605 34.9419 46.359 39.8229 46.359 46.0219C46.359 52.0899 51.195 56.8349 56.376 56.9609L62.109 50.7129L62.015 50.5579V56.5209H68.563V46.0209ZM61.992 50.5809L57.481 50.5929C54.39 50.5929 50.972 46.2109 54.458 42.7779C57.55 39.7309 62.184 42.2299 62.184 46.4679L61.992 50.5809Z" fill="#292B29"/>
</g>
</svg>
