<svg width="73" height="73" viewBox="0 0 73 73" fill="none" xmlns="http://www.w3.org/2000/svg">
<g id="Clip path group">
<mask id="mask0_1_695" style="mask-type:luminance" maskUnits="userSpaceOnUse" x="0" y="0" width="73" height="73">
<g id="clip0">
<path id="Vector" d="M72.0399 0.51001H0.039917V72.51H72.0399V0.51001Z" fill="white"/>
</g>
</mask>
<g mask="url(#mask0_1_695)">
<g id="Group">
<path id="Vector_2" d="M0.039917 0.510254H71.8609V39.378L68.3059 44.9464L71.8609 49.9024V72.5102H0.039917V35.8699L2.26172 33.3084L0.039917 30.8583V0.510254Z" fill="black"/>
<path id="Vector_3" d="M13.982 50.6819V39.3779H25.9211L27.202 41.0519L28.5253 39.3779H71.8609V49.9023C71.8609 49.9023 70.7279 50.6706 69.4169 50.6819H45.4212L43.977 48.9V50.6819H39.2444V47.6401C39.2444 47.6401 38.598 48.0647 37.2003 48.0647H35.5895V50.6819H28.424L27.1449 48.972L25.8462 50.6819H13.982Z" fill="white"/>
<path id="Vector_4" d="M0.039917 30.8582L2.73222 24.5659H7.38832L8.91622 28.0906V24.5659H14.7041L15.6137 27.1135L16.4955 24.5659H42.4772V25.8466C42.4772 25.8466 43.843 24.5659 46.0877 24.5659L54.5178 24.5954L56.0193 28.074V24.5659H60.8629L62.1959 26.5641V24.5659H67.0839V35.8698H62.1959L60.9189 33.8652V35.8698H53.8021L53.0865 34.0879H51.1734L50.4694 35.8698H45.6433C43.7118 35.8698 42.4772 34.6153 42.4772 34.6153V35.8698H35.2006L33.7564 34.0879V35.8698H6.69852L5.98332 34.0879H4.07632L3.36622 35.8698H0.039917V30.8582Z" fill="white"/>
<path id="Vector_5" d="M3.68513 25.9592L0.053833 34.4233H2.41803L3.08803 32.7284H6.98323L7.64983 34.4233H10.066L6.43823 25.9592H3.68513ZM5.02873 27.9291L6.21603 30.8908H3.83793L5.02873 27.9291Z" fill="black"/>
<path id="Vector_6" d="M10.316 34.422V25.958L13.6757 25.9705L15.6297 31.4276L17.537 25.958H20.8698V34.422H18.759V28.1854L16.5216 34.422H14.6705L12.4268 28.1854V34.422H10.316Z" fill="black"/>
<path id="Vector_7" d="M22.3138 34.422V25.958H29.2016V27.8513H24.4468V29.2991H29.0905V31.081H24.4468V32.5845H29.2016V34.422H22.3138Z" fill="black"/>
<path id="Vector_8" d="M30.4237 25.9592V34.4233H32.5344V31.4163H33.4232L35.954 34.4233H38.5334L35.7561 31.3049C36.8959 31.2085 38.0717 30.2278 38.0717 28.7052C38.0717 26.924 36.6772 25.9592 35.1208 25.9592H30.4237ZM32.5344 27.8525H34.9472C35.526 27.8525 35.9471 28.3064 35.9471 28.7434C35.9471 29.3058 35.4015 29.6344 34.9785 29.6344H32.5344V27.8525Z" fill="black"/>
<path id="Vector_9" d="M41.0884 34.422H38.9332V25.958H41.0884V34.422Z" fill="black"/>
<path id="Vector_10" d="M46.1987 34.422H45.7335C43.4827 34.422 42.1161 32.6443 42.1161 30.2248C42.1161 27.7456 43.4674 25.958 46.3098 25.958H48.6428V27.9626H46.2245C45.0706 27.9626 44.2546 28.8654 44.2546 30.2457C44.2546 31.8849 45.1877 32.5733 46.532 32.5733H47.0875L46.1987 34.422Z" fill="black"/>
<path id="Vector_11" d="M50.7918 25.9592L47.1605 34.4233H49.5247L50.1947 32.7284H54.0899L54.7564 34.4233H57.1727L53.5448 25.9592H50.7918ZM52.1354 27.9291L53.3227 30.8908H50.9446L52.1354 27.9291Z" fill="black"/>
<path id="Vector_12" d="M57.4191 34.422V25.958H60.1029L63.5289 31.2759V25.958H65.6399V34.422H63.0429L59.5299 28.965V34.422H57.4191Z" fill="black"/>
<path id="Vector_13" d="M15.4261 49.234V40.77H22.3139V42.6633H17.5591V44.1111H22.2028V45.893H17.5591V47.3965H22.3139V49.234H15.4261Z" fill="black"/>
<path id="Vector_14" d="M49.1761 49.234V40.77H56.0639V42.6633H51.3092V44.1111H55.9305V45.893H51.3092V47.3965H56.0639V49.234H49.1761Z" fill="black"/>
<path id="Vector_15" d="M22.5812 49.234L25.9348 45.0542L22.5013 40.77H25.1606L27.2054 43.4185L29.2571 40.77H31.8123L28.4239 45.002L31.7837 49.234H29.1249L27.1394 46.6273L25.2023 49.234H22.5812Z" fill="black"/>
<path id="Vector_16" d="M32.0345 40.7715V49.2355H34.2008V46.5627H36.4227C38.3027 46.5627 39.7277 45.5628 39.7277 43.6183C39.7277 42.0076 38.61 40.7715 36.6969 40.7715H32.0345ZM34.2008 42.6856H36.5407C37.1481 42.6856 37.5822 43.0588 37.5822 43.6601C37.5822 44.225 37.1503 44.6346 36.5338 44.6346H34.2008V42.6856Z" fill="black"/>
<path id="Vector_17" d="M40.6441 40.77V49.234H42.7549V46.2271H43.6436L46.1745 49.234H48.7539L45.9766 46.1157C47.1164 46.0193 48.2922 45.0386 48.2922 43.5159C48.2922 41.7348 46.8977 40.77 45.3413 40.77H40.6441ZM42.7549 42.6633H45.1677C45.7465 42.6633 46.1675 43.1172 46.1675 43.5542C46.1675 44.1166 45.622 44.4452 45.1989 44.4452H42.7549V42.6633Z" fill="black"/>
<path id="Vector_18" d="M57.0413 49.234V47.3965H61.2659C61.8909 47.3965 62.1609 47.0579 62.1609 46.6865C62.1609 46.3307 61.8919 45.9709 61.2659 45.9709H59.3569C57.6974 45.9709 56.7733 44.9575 56.7733 43.4359C56.7733 42.0788 57.6196 40.77 60.0849 40.77H64.1959L63.3069 42.6744H59.7519C59.0729 42.6744 58.8632 43.0319 58.8632 43.3733C58.8632 43.7241 59.1219 44.1111 59.6409 44.1111H61.6409C63.4899 44.1111 64.2929 45.1629 64.2929 46.5403C64.2929 48.0212 63.3989 49.234 61.5399 49.234H57.0413Z" fill="black"/>
<path id="Vector_19" d="M64.7879 49.234V47.3965H69.0129C69.6379 47.3965 69.9079 47.0579 69.9079 46.6865C69.9079 46.3307 69.6389 45.9709 69.0129 45.9709H67.1039C65.4449 45.9709 64.5199 44.9575 64.5199 43.4359C64.5199 42.0788 65.3669 40.77 67.8319 40.77H71.9429L71.0539 42.6744H67.4989C66.8199 42.6744 66.6099 43.0319 66.6099 43.3733C66.6099 43.7241 66.8689 44.1111 67.3879 44.1111H69.3879C71.2369 44.1111 72.0399 45.1629 72.0399 46.5403C72.0399 48.0212 71.1459 49.234 69.2869 49.234H64.7879Z" fill="black"/>
</g>
</g>
</g>
</svg>
