<svg width="240" height="22" viewBox="0 0 240 22" fill="none" xmlns="http://www.w3.org/2000/svg">
<g id="Component 2" clip-path="url(#clip0_10_236)">
<path id="Vector" d="M72.1584 6.73743L73.4533 5.8601C72.4937 4.16868 70.74 3.45898 69.0486 3.45898C66.3132 3.45898 64.4341 5.2548 64.4341 7.34272C64.4341 9.9727 66.5843 10.7456 68.5899 11.623C70.5102 12.4792 72.0339 13.0223 72.0339 14.7549C72.0339 16.0287 70.8023 17.0937 68.9442 17.0937C67.4194 17.0937 66.1667 16.383 65.4148 15.0058L64.0376 15.9243C64.9561 17.6157 66.773 18.6386 68.9021 18.6386C71.9717 18.6386 73.7043 16.8016 73.7043 14.6926C73.7043 12.1239 71.784 11.2897 69.5084 10.2859C67.6282 9.45173 66.1044 8.88759 66.1044 7.30056C66.1044 5.98557 67.2528 5.00385 69.0275 5.00385C70.2592 5.00385 71.4076 5.50575 72.1594 6.73743H72.1584ZM80.0283 7.63483C76.9376 7.63483 74.7452 10.057 74.7452 13.1468C74.7452 16.2586 76.9376 18.6597 80.2792 18.6597C81.9907 18.6597 83.369 18.0745 84.5173 16.8227L83.5145 15.7155C83.1218 16.1784 82.6321 16.5493 82.0802 16.8019C81.5282 17.0544 80.9274 17.1825 80.3204 17.177C78.2525 17.177 76.6254 15.7988 76.4367 13.6065H84.7472C84.7883 13.3355 84.8305 12.959 84.8305 12.6047C84.8305 9.84823 82.9725 7.63584 80.0283 7.63584V7.63483ZM80.0283 9.09638C81.803 9.09638 83.2013 10.308 83.2646 12.2493V12.2915H76.4587C76.7087 10.3913 78.1492 9.09638 80.0283 9.09638ZM91.8512 16.8639C91.3924 17.1148 90.8905 17.177 90.5984 17.177C89.429 17.177 88.7614 16.5507 88.7614 15.2768V9.24294H93.5215V15.4435C93.5215 17.4902 94.7532 18.6597 96.6534 18.6597C97.3219 18.6597 97.8439 18.5342 98.2193 18.3465V16.8629C97.7606 17.1138 97.2587 17.176 96.9666 17.176C95.7971 17.176 95.1296 16.5497 95.1296 15.2758V9.24294H97.865V7.88578H95.1296V4.98377H93.5637V7.88478H88.7614V4.98377H87.1955V7.88478H85.5251V9.24394H87.1533V15.4445C87.1533 17.4912 88.385 18.6607 90.2852 18.6607C90.9538 18.6607 91.4757 18.5352 91.8512 18.3475V16.8629V16.8639ZM99.7029 18.4087H101.311V3.70994H99.7029V18.4087ZM108.25 7.63483C105.16 7.63483 102.967 10.057 102.967 13.1468C102.967 16.2586 105.16 18.6597 108.5 18.6597C110.213 18.6597 111.591 18.0745 112.739 16.8227L111.737 15.7155C111.344 16.1785 110.854 16.5494 110.302 16.8019C109.75 17.0545 109.15 17.1826 108.542 17.177C106.476 17.177 104.846 15.7988 104.659 13.6065H112.969C113.021 13.275 113.049 12.9402 113.053 12.6047C113.053 9.84823 111.195 7.63584 108.25 7.63584V7.63483ZM108.25 9.09638C110.025 9.09638 111.423 10.308 111.487 12.2493V12.2915H104.68C104.931 10.3913 106.371 9.09638 108.25 9.09638ZM114.896 7.88578V18.4087H116.503V12.959C116.503 11.1421 117.568 9.11746 119.76 9.11746C121.326 9.11746 122.474 10.2036 122.474 12.0406V18.4087H124.082V12.959C124.082 11.1421 125.148 9.11746 127.34 9.11746C128.906 9.11746 130.054 10.2036 130.054 12.0406V18.4087H131.661V11.9572C131.661 9.32625 130.054 7.63483 127.653 7.63483C125.836 7.63483 124.646 8.51216 123.748 10.0781C123.164 8.5744 121.848 7.63483 120.073 7.63483C118.277 7.63483 117.088 8.51216 116.462 9.786V7.88578H114.896ZM138.613 7.63483C135.522 7.63483 133.33 10.057 133.33 13.1468C133.33 16.2586 135.522 18.6597 138.863 18.6597C140.575 18.6597 141.953 18.0745 143.102 16.8227L142.099 15.7155C141.706 16.1785 141.217 16.5494 140.665 16.8019C140.113 17.0545 139.512 17.1826 138.905 17.177C136.838 17.177 135.209 15.7988 135.021 13.6065H143.332C143.383 13.275 143.411 12.9402 143.415 12.6047C143.415 9.84823 141.557 7.63584 138.613 7.63584V7.63483ZM138.613 9.09638C140.387 9.09638 141.786 10.308 141.849 12.2493V12.2915H135.042C135.293 10.3913 136.733 9.09638 138.613 9.09638ZM146.824 9.786V7.88578H145.258V18.4087H146.865V12.959C146.865 11.1421 147.93 9.11746 150.122 9.11746C151.688 9.11746 152.837 10.2036 152.837 12.0406V18.4087H154.445V11.9572C154.445 9.32625 152.837 7.63483 150.435 7.63483C148.64 7.63483 147.45 8.51216 146.824 9.786ZM161.956 16.8629C161.497 17.1138 160.997 17.177 160.703 17.177C159.535 17.177 158.866 16.5507 158.866 15.2768V9.24294H161.602V7.88578H158.866V4.98377H157.301V7.88478H155.63V9.24394H157.258V15.4445C157.258 17.4912 158.491 18.6607 160.39 18.6607C161.059 18.6607 161.581 18.5352 161.956 18.3475V16.8629ZM174.891 6.73743L176.186 5.8601C175.226 4.16868 173.472 3.45898 171.78 3.45898C169.045 3.45898 167.166 5.2548 167.166 7.34272C167.166 9.9727 169.317 10.7456 171.322 11.623C173.242 12.4792 174.767 13.0223 174.767 14.7549C174.767 16.0287 173.534 17.0937 171.676 17.0937C170.152 17.0937 168.9 16.383 168.148 15.0058L166.769 15.9243C167.688 17.6157 169.505 18.6386 171.635 18.6386C174.704 18.6386 176.437 16.8016 176.437 14.6926C176.437 12.1239 174.516 11.2897 172.24 10.2859C170.361 9.45173 168.836 8.88759 168.836 7.30056C168.836 5.98557 169.985 5.00385 171.759 5.00385C172.992 5.00385 174.14 5.50575 174.891 6.73743ZM182.76 7.63483C179.67 7.63483 177.478 10.057 177.478 13.1468C177.478 16.2586 179.67 18.6597 183.011 18.6597C184.724 18.6597 186.101 18.0745 187.249 16.8227L186.247 15.7155C185.855 16.1783 185.365 16.5492 184.813 16.8018C184.261 17.0543 183.66 17.1824 183.053 17.177C180.985 17.177 179.357 15.7988 179.17 13.6065H187.479C187.521 13.3355 187.562 12.959 187.562 12.6047C187.562 9.84823 185.704 7.63584 182.76 7.63584V7.63483ZM182.76 9.09638C184.535 9.09638 185.934 10.308 185.996 12.2493V12.2915H179.191C179.441 10.3913 180.881 9.09638 182.76 9.09638ZM190.971 7.88578H189.405V18.4087H191.013V13.0634C191.013 10.7045 192.328 9.24294 194.292 9.24294C194.416 9.24294 194.625 9.26301 194.73 9.28409V7.69807C194.531 7.65186 194.328 7.63061 194.124 7.63483C192.705 7.63483 191.514 8.42784 190.971 9.91047V7.88578ZM200.415 18.4087L204.716 7.88578H203.004L199.663 16.2786L196.344 7.88578H194.631L198.933 18.4087H200.415ZM206.676 3.50114C206.071 3.50114 205.57 3.98097 205.57 4.60734C205.572 4.90025 205.689 5.18065 205.896 5.38787C206.103 5.59508 206.383 5.71244 206.676 5.71454C207.282 5.71454 207.762 5.21264 207.762 4.60734C207.762 3.98097 207.282 3.50114 206.676 3.50114ZM205.862 18.4087H207.47V7.88578H205.862V18.4087ZM219.081 16.4252L217.996 15.4234C217.265 16.4874 216.117 17.156 214.676 17.156C212.567 17.156 210.938 15.4234 210.938 13.1468C210.938 10.8922 212.546 9.13854 214.696 9.13854C216.075 9.13854 217.097 9.82715 217.808 10.8089L218.872 9.76492C217.933 8.44993 216.534 7.63483 214.717 7.63483C211.69 7.63483 209.289 10.0359 209.289 13.1257C209.289 16.2375 211.69 18.6597 214.717 18.6597C216.576 18.6597 218.141 17.7823 219.081 16.4252ZM224.931 7.63483C221.84 7.63483 219.648 10.057 219.648 13.1468C219.648 16.2586 221.84 18.6597 225.181 18.6597C226.894 18.6597 228.272 18.0745 229.42 16.8227L228.417 15.7155C228.025 16.1785 227.535 16.5494 226.983 16.8019C226.431 17.0545 225.83 17.1826 225.223 17.177C223.156 17.177 221.527 15.7988 221.34 13.6065H229.649C229.691 13.3355 229.733 12.959 229.733 12.6047C229.733 9.84823 227.874 7.63584 224.931 7.63584V7.63483ZM224.931 9.09638C226.706 9.09638 228.104 10.308 228.167 12.2493V12.2915H221.361C221.611 10.3913 223.052 9.09638 224.931 9.09638ZM234.624 18.6597C236.816 18.6597 238.382 17.3648 238.382 15.6733C238.382 13.8775 237.046 13.1056 234.917 12.3959C233.351 11.8528 232.557 11.4563 232.557 10.579C232.557 9.63944 233.434 9.05522 234.562 9.05522C235.752 9.05522 236.483 9.66052 237.005 10.4746L238.173 9.61836C237.506 8.44892 236.337 7.63483 234.645 7.63483C232.557 7.63483 230.97 8.9709 230.97 10.6212C230.97 12.3537 232.286 13.1267 234.249 13.7731C236.065 14.3583 236.796 14.7338 236.796 15.7155C236.796 16.6129 235.919 17.2182 234.624 17.2182C233.351 17.2182 232.412 16.5296 231.764 15.59L230.574 16.4674C231.304 17.7402 232.829 18.6597 234.624 18.6597Z" fill="#A4A8A4"/>
<path id="Vector_2" d="M50.5665 18.212H54.123V11.3037C54.4543 10.2618 56.0052 9.28608 58.2427 9.77394V6.38909C56.3826 6.38909 54.7825 7.59567 54.123 9.51897V6.62097H50.5665V18.212ZM44.7766 8.91769C45.8597 8.91769 46.4007 9.49688 46.4007 10.054C46.4007 10.8651 45.7412 11.6782 42.0683 12.0927C42.0683 10.1915 43.2929 8.91769 44.7766 8.91769ZM49.3198 17.1449V14.0622C48.1433 15.0359 46.5653 15.5699 45.2935 15.5699C43.9745 15.5699 42.9165 14.8753 42.3965 13.7631C47.0572 13.4398 49.3419 11.8609 49.3419 9.63742C49.3419 7.85064 47.4818 6.34492 44.891 6.34492C41.4529 6.34492 38.6774 8.82634 38.6774 12.4431C38.6774 15.85 41.5242 18.3756 45.1048 18.3756C46.6366 18.3736 48.1895 17.9339 49.3198 17.1449ZM36.0896 14.6193V8.91769H38.5128V6.64707L36.0886 6.67116V3.8896L29.354 8.57238V4.49289L23.7277 8.66473V8.9207H25.8477V15.2708C25.8477 17.2885 27.3544 18.3545 29.4032 18.3545C30.2976 18.3545 31.0525 18.1929 31.7341 17.7994V15.4103C31.4028 15.596 31.0033 15.7366 30.5576 15.7366C29.8047 15.7366 29.357 15.3652 29.357 14.7157V8.9207H32.5823V15.2487C32.5823 17.2875 34.089 18.3545 36.1599 18.3545C37.0783 18.3545 37.8312 18.2381 38.561 17.7994V15.3892C38.1824 15.6108 37.7528 15.7305 37.3142 15.7366C36.5594 15.7315 36.0896 15.3381 36.0896 14.6193ZM18.9265 8.91769C20.0106 8.91769 20.5526 9.49688 20.5526 10.054C20.5526 10.8651 19.8921 11.6782 16.2192 12.0927C16.2192 10.1915 17.4418 8.91769 18.9275 8.91769H18.9265ZM23.4707 17.1449V14.0622C22.2942 15.0359 20.7162 15.5699 19.4444 15.5699C18.1254 15.5699 17.0664 14.8753 16.5474 13.7631C21.2081 13.4398 23.4928 11.8609 23.4928 9.63742C23.4928 7.85064 21.6327 6.34492 19.0419 6.34492C15.6038 6.34492 12.8273 8.82634 12.8273 12.4431C12.8273 15.85 15.6751 18.3756 19.2557 18.3756C20.7865 18.3736 22.3404 17.9339 23.4707 17.1449ZM6.37683 11.9773C7.48202 11.9773 8.40151 12.6498 8.40151 13.7842C8.40151 14.8512 7.48202 15.5007 6.37683 15.5007H3.69365V11.9773H6.37683ZM6.18811 6.04478C7.24713 6.04478 8.09535 6.69324 8.09535 7.69003C8.09535 8.75607 7.24713 9.40554 6.18811 9.40554H3.69365V6.04378L6.18811 6.04478ZM0.0447998 3.35357V18.21H7.15378C9.88414 18.21 12.0283 16.5647 12.0283 14.0612C12.0283 12.4611 10.9913 11.1873 9.48462 10.584C10.8498 9.98172 11.7683 8.79823 11.7683 7.38487C11.7693 4.95164 9.60207 3.35156 6.84762 3.35156H0.0447998V3.35357Z" fill="#017848"/>
</g>
<defs>
<clipPath id="clip0_10_236">
<rect width="239.91" height="21.08" fill="white" transform="translate(0.0447998 0.340088)"/>
</clipPath>
</defs>
</svg>
