<svg width="150" height="23" viewBox="0 0 150 23" fill="none" xmlns="http://www.w3.org/2000/svg">
<g id="Component 2" clip-path="url(#clip0_10_180)">
<path id="Vector" d="M71.7592 14.4976L76.7658 6.68045V18.0274H78.3866V3.58179H76.9088L71.2659 12.5897L65.6033 3.58179H64.1255V18.0274H65.7463V6.68045L70.7529 14.4976H71.7592ZM85.607 7.43909C82.5488 7.43909 80.2916 9.81956 80.2916 12.8561C80.2916 15.8936 82.5488 18.2741 85.607 18.2741C88.6435 18.2741 90.9007 15.8936 90.9007 12.8561C90.9007 9.81956 88.6435 7.43909 85.607 7.43909ZM85.607 8.93761C87.7616 8.93761 89.2798 10.7232 89.2798 12.8561C89.2798 14.9909 87.7606 16.7755 85.607 16.7755C83.4317 16.7755 81.9135 14.9899 81.9135 12.8561C81.9135 10.7222 83.4317 8.93761 85.607 8.93761ZM104.268 16.5092C103.816 16.7558 103.303 16.817 103.016 16.817C101.888 16.817 101.232 16.2014 101.232 14.9495V9.0195H103.899V7.68572H101.232V4.83368H99.6511V15.1132C99.6511 17.1248 100.841 18.2741 102.708 18.2741C103.365 18.2741 103.899 18.1507 104.268 17.9663V16.5082V16.5092ZM94.2549 7.68572H92.7159V18.0274H94.2953V12.7742C94.2953 10.4352 95.5876 9.0195 97.4966 9.0195C97.6406 9.0195 97.8251 9.01949 97.9277 9.03922V7.50124C97.8044 7.46079 97.5577 7.44007 97.3525 7.44007C95.9576 7.44007 94.7876 8.21943 94.2549 9.67652V7.68572ZM113.56 16.2221V17.5144C113.56 19.669 112.104 20.9416 110.072 20.9416C108.554 20.9416 107.261 20.3053 106.44 19.2793L105.373 20.2846C106.42 21.5976 108.082 22.378 110.072 22.378C112.945 22.378 115.079 20.5105 115.079 17.6782V7.68473H113.499V9.4506C112.883 8.28059 111.365 7.43909 109.847 7.43909C107.096 7.43909 104.922 9.73768 104.922 12.8561C104.922 15.9755 107.096 18.2741 109.847 18.2741C111.386 18.2741 112.945 17.4118 113.56 16.2221ZM110.092 16.817C108.143 16.817 106.522 15.1547 106.522 12.8561C106.522 10.5575 108.143 8.89618 110.092 8.89618C111.878 8.89618 113.602 10.3326 113.602 12.8561C113.602 15.4013 111.857 16.817 110.092 16.817ZM123.536 11.1938V11.687C120.109 11.4207 116.744 12.1586 116.744 15.2573C116.744 17.0429 118.159 18.2741 120.047 18.2741C121.607 18.2741 122.9 17.4947 123.638 16.1599V18.0274H125.116V11.3171C125.116 8.9169 123.515 7.44007 121.012 7.44007C119.227 7.44007 117.893 8.19871 117.011 9.24541L117.851 10.2714C118.529 9.49204 119.616 8.85474 120.889 8.85474C122.531 8.85474 123.536 9.7584 123.536 11.1948V11.1938ZM120.273 16.9196C119.124 16.9196 118.283 16.2221 118.283 15.1754C118.283 13.3493 120.171 12.8363 122.141 12.8363C122.633 12.8363 123.125 12.8561 123.597 12.9182V13.6778C123.597 15.2987 122.161 16.9196 120.273 16.9196ZM135.405 16.2221V17.5144C135.405 19.669 133.948 20.9416 131.916 20.9416C130.397 20.9416 129.105 20.3053 128.284 19.2793L127.217 20.2846C128.263 21.5976 129.926 22.378 131.916 22.378C134.789 22.378 136.923 20.5105 136.923 17.6782V7.68473H135.343V9.4506C134.727 8.28059 133.209 7.43909 131.69 7.43909C128.941 7.43909 126.766 9.73768 126.766 12.8561C126.766 15.9755 128.941 18.2741 131.69 18.2741C133.229 18.2741 134.789 17.4118 135.405 16.2221ZM131.936 16.817C129.987 16.817 128.366 15.1547 128.366 12.8561C128.366 10.5575 129.987 8.89618 131.936 8.89618C133.722 8.89618 135.445 10.3326 135.445 12.8561C135.445 15.4013 133.701 16.817 131.936 16.817ZM143.72 7.43909C140.684 7.43909 138.529 9.81956 138.529 12.8561C138.529 15.9143 140.684 18.2741 143.967 18.2741C145.649 18.2741 147.003 17.6989 148.132 16.4687L147.147 15.3806C146.761 15.8356 146.28 16.2001 145.737 16.4483C145.194 16.6966 144.604 16.8224 144.007 16.817C141.976 16.817 140.376 15.4625 140.19 13.3079H148.358C148.408 12.9821 148.436 12.6531 148.44 12.3234C148.44 9.61437 146.614 7.43909 143.72 7.43909ZM143.72 8.87546C145.464 8.87546 146.839 10.0662 146.901 11.9741V12.0156H140.211C140.458 10.1481 141.873 8.87546 143.72 8.87546Z" fill="#A4A8A4"/>
<path id="Vector_2" d="M49.6759 17.8341H53.1712V11.0448C53.4967 10.0208 55.0209 9.06193 57.2199 9.54138V6.21483C55.3918 6.21483 53.8193 7.40063 53.1712 9.2908V6.44272H49.6759V17.8341ZM43.9857 8.69988C45.0501 8.69988 45.5819 9.2691 45.5819 9.81662C45.5819 10.6137 44.9337 11.4128 41.324 11.8202C41.324 9.95177 42.5276 8.69988 43.9857 8.69988ZM48.4507 16.7854V13.7558C47.2945 14.7127 45.7437 15.2376 44.4937 15.2376C43.1974 15.2376 42.1576 14.5549 41.6466 13.4618C46.2271 13.1442 48.4724 11.5924 48.4724 9.40721C48.4724 7.65121 46.6443 6.17142 44.0981 6.17142C40.7193 6.17142 37.9916 8.6101 37.9916 12.1645C37.9916 15.5128 40.7893 17.9949 44.3083 17.9949C45.8137 17.9929 47.3398 17.5608 48.4507 16.7854ZM35.4483 14.3033V8.69988H37.8298V6.46837L35.4473 6.49204V3.75839L28.8288 8.36051V4.35129L23.2993 8.45127V8.70284H25.3828V14.9436C25.3828 16.9265 26.8636 17.9742 28.8771 17.9742C29.7561 17.9742 30.4979 17.8153 31.1678 17.4286V15.0807C30.8422 15.2632 30.4496 15.4013 30.0116 15.4013C29.2717 15.4013 28.8317 15.0363 28.8317 14.398V8.70284H32.0014V14.9219C32.0014 16.9255 33.4822 17.9742 35.5174 17.9742C36.42 17.9742 37.1599 17.8597 37.8771 17.4286V15.06C37.5051 15.2777 37.0829 15.3954 36.6519 15.4013C35.91 15.3964 35.4483 15.0097 35.4483 14.3033ZM18.5808 8.69988C19.6462 8.69988 20.1789 9.2691 20.1789 9.81662C20.1789 10.6137 19.5298 11.4128 15.9201 11.8202C15.9201 9.95177 17.1217 8.69988 18.5818 8.69988H18.5808ZM23.0467 16.7854V13.7558C21.8905 14.7127 20.3397 15.2376 19.0898 15.2376C17.7935 15.2376 16.7527 14.5549 16.2427 13.4618C20.8231 13.1442 23.0685 11.5924 23.0685 9.40721C23.0685 7.65121 21.2404 6.17142 18.6942 6.17142C15.3154 6.17142 12.5867 8.6101 12.5867 12.1645C12.5867 15.5128 15.3854 17.9949 18.9043 17.9949C20.4088 17.9929 21.9359 17.5608 23.0467 16.7854ZM6.24727 11.7068C7.33343 11.7068 8.23709 12.3678 8.23709 13.4825C8.23709 14.5312 7.33343 15.1695 6.24727 15.1695H3.6103V11.7068H6.24727ZM6.0618 5.87645C7.10259 5.87645 7.9362 6.51375 7.9362 7.49336C7.9362 8.54105 7.10259 9.17933 6.0618 9.17933H3.6103V5.87547L6.0618 5.87645ZM0.024292 3.23159V17.8321H7.01084C9.69418 17.8321 11.8014 16.2152 11.8014 13.7548C11.8014 12.1823 10.7823 10.9304 9.30154 10.3375C10.6432 9.74559 11.5459 8.58248 11.5459 7.19346C11.5469 4.80213 9.41697 3.22961 6.70995 3.22961H0.024292V3.23159Z" fill="#017848"/>
</g>
<defs>
<clipPath id="clip0_10_180">
<rect width="149.951" height="22.69" fill="white" transform="translate(0.024292 0.27002)"/>
</clipPath>
</defs>
</svg>
