<svg width="160" height="22" viewBox="0 0 160 22" fill="none" xmlns="http://www.w3.org/2000/svg">
<g id="Component 2" clip-path="url(#clip0_10_193)">
<path id="Vector" d="M65.8049 18.7285V12.8156H69.3783L72.2924 18.7285H74.1196L71.0812 12.6507C72.8462 12.0969 74.2223 10.7001 74.2223 8.58564C74.2223 6.01907 72.2312 4.2738 69.8077 4.2738H64.181V18.7285H65.8049ZM65.8049 11.4395V5.75156H69.6449C71.1641 5.75156 72.5392 6.84038 72.5392 8.52345C72.5392 10.3299 71.1641 11.4395 69.6656 11.4395H65.8049ZM80.2409 8.13353C77.2015 8.13353 75.0455 10.5155 75.0455 13.5539C75.0455 16.6141 77.2015 18.9753 80.4876 18.9753C82.1707 18.9753 83.5261 18.3998 84.6554 17.1689L83.6702 16.08C83.2839 16.5354 82.8022 16.9002 82.2592 17.1486C81.7162 17.3969 81.1252 17.5228 80.5281 17.5173C78.4946 17.5173 76.8944 16.162 76.7089 14.006H84.8814C84.9219 13.7395 84.9634 13.3693 84.9634 13.0209C84.9634 10.3102 83.1362 8.13353 80.2409 8.13353ZM80.2409 9.57081C81.9861 9.57081 83.3622 10.7623 83.4234 12.6714V12.7129H76.7306C76.9764 10.8442 78.3929 9.57081 80.2409 9.57081ZM92.7302 11.8906V12.3842C89.3009 12.1176 85.9337 12.856 85.9337 15.9566C85.9337 17.7434 87.3503 18.9753 89.2397 18.9753C90.7993 18.9753 92.0935 18.1955 92.8329 16.8599V18.7285H94.3116V12.014C94.3116 9.61227 92.7095 8.13452 90.2051 8.13452C88.4184 8.13452 87.0837 8.89363 86.2012 9.94099L87.0423 10.9676C87.7204 10.1878 88.8093 9.55008 90.0817 9.55008C91.7243 9.55008 92.7302 10.4543 92.7302 11.8916V11.8906ZM89.4657 17.62C88.3157 17.62 87.4737 16.9221 87.4737 15.8747C87.4737 14.0475 89.3631 13.5342 91.3334 13.5342C91.827 13.5342 92.3195 13.5539 92.7914 13.6161V14.3762C92.7914 15.9981 91.3551 17.62 89.4657 17.62ZM96.7419 18.7285H98.3233V4.2738H96.7419V18.7285ZM106.207 18.7285H115.282V17.2498H107.829V12.1788H113.824V10.7001H107.829V5.75156H115.036V4.2738H106.207V18.7285ZM120.126 18.9753C122.282 18.9753 123.822 17.7019 123.822 16.0386C123.822 14.2726 122.508 13.5135 120.414 12.8156C118.874 12.2815 118.094 11.8916 118.094 11.0288C118.094 10.1049 118.957 9.53034 120.065 9.53034C121.235 9.53034 121.954 10.1256 122.467 10.9262L123.617 10.0841C122.96 8.9341 121.81 8.13353 120.147 8.13353C118.094 8.13353 116.533 9.44742 116.533 11.0703C116.533 12.7741 117.827 13.5342 119.757 14.1699C121.543 14.7454 122.262 15.1146 122.262 16.08C122.262 16.9625 121.4 17.5578 120.126 17.5578C118.874 17.5578 117.95 16.8806 117.314 15.9566L116.143 16.8194C116.862 18.0711 118.36 18.9753 120.126 18.9753ZM130.743 17.2083C130.292 17.4551 129.799 17.5173 129.511 17.5173C128.362 17.5173 127.705 16.9013 127.705 15.6487V9.71494H130.395V8.38032H127.705V5.52649H126.165V8.37933H124.522V9.71592H126.123V15.8135C126.123 17.8263 127.335 18.9763 129.203 18.9763C129.861 18.9763 130.374 18.8529 130.743 18.6683V17.2083ZM138.163 11.8916V12.3842C134.734 12.1176 131.367 12.856 131.367 15.9566C131.367 17.7434 132.784 18.9753 134.673 18.9753C136.234 18.9753 137.527 18.1955 138.266 16.8599V18.7285H139.745V12.014C139.745 9.61227 138.143 8.13452 135.638 8.13452C133.852 8.13452 132.517 8.89363 131.634 9.94099L132.476 10.9676C133.154 10.1878 134.242 9.55008 135.515 9.55008C137.158 9.55008 138.163 10.4543 138.163 11.8916ZM134.899 17.62C133.749 17.62 132.907 16.9221 132.907 15.8747C132.907 14.0475 134.796 13.5342 136.768 13.5342C137.26 13.5342 137.753 13.5539 138.225 13.6161V14.3762C138.225 15.9981 136.787 17.62 134.899 17.62ZM147.147 17.2093C146.695 17.4561 146.203 17.5173 145.915 17.5173C144.765 17.5173 144.108 16.9013 144.108 15.6487V9.71494H146.798V8.38032H144.108V5.52649H142.568V8.37933H140.925V9.71592H142.528V15.8135C142.528 17.8263 143.739 18.9763 145.607 18.9763C146.264 18.9763 146.777 18.8529 147.147 18.6683V17.2083V17.2093ZM152.866 8.13353C149.828 8.13353 147.672 10.5155 147.672 13.5539C147.672 16.6141 149.828 18.9753 153.113 18.9753C154.797 18.9753 156.151 18.3998 157.28 17.1689L156.295 16.08C155.909 16.5352 155.428 16.8999 154.885 17.1483C154.342 17.3966 153.751 17.5226 153.154 17.5173C151.121 17.5173 149.52 16.162 149.335 14.006H157.507C157.548 13.7395 157.588 13.3693 157.588 13.0209C157.588 10.3102 155.761 8.13353 152.866 8.13353ZM152.866 9.57081C154.611 9.57081 155.987 10.7623 156.049 12.6714V12.7129H149.356C149.601 10.8442 151.018 9.57081 152.866 9.57081Z" fill="#A4A8A4"/>
<path id="Vector_2" d="M49.7243 18.5351H53.2217V11.7415C53.5475 10.7169 55.0726 9.75738 57.273 10.2371V6.90848C55.4438 6.90848 53.8703 8.09503 53.2217 9.98639V7.13651H49.7243V18.5351ZM44.0304 9.39509C45.0956 9.39509 45.6276 9.96468 45.6276 10.5125C45.6276 11.3102 44.9791 12.1097 41.3671 12.5174C41.3671 10.6478 42.5714 9.39509 44.0304 9.39509ZM48.4983 17.4857V14.4542C47.3413 15.4117 45.7895 15.9369 44.5388 15.9369C43.2417 15.9369 42.2013 15.2538 41.6899 14.16C46.2732 13.8422 48.52 12.2894 48.52 10.1029C48.52 8.34576 46.6908 6.86505 44.143 6.86505C40.762 6.86505 38.0326 9.30526 38.0326 12.8619C38.0326 16.2123 40.8321 18.696 44.3532 18.696C45.8596 18.694 47.3867 18.2616 48.4983 17.4857ZM35.4877 15.0021V9.39509H37.8707V7.16218L35.4867 7.18587V4.4505L28.864 9.05552V5.04377L23.331 9.14633V9.39806H25.4159V15.6427C25.4159 17.6269 26.8976 18.6752 28.9123 18.6752C29.7919 18.6752 30.5342 18.5163 31.2045 18.1293V15.7799C30.8787 15.9626 30.4859 16.1008 30.0476 16.1008C29.3072 16.1008 28.8669 15.7355 28.8669 15.0968V9.39806H32.0386V15.621C32.0386 17.6259 33.5203 18.6752 35.5568 18.6752C36.46 18.6752 37.2004 18.5607 37.9181 18.1293V15.7592C37.5458 15.9771 37.1233 16.0948 36.692 16.1008C35.9497 16.0958 35.4877 15.7089 35.4877 15.0021ZM18.6095 9.39509C19.6757 9.39509 20.2087 9.96468 20.2087 10.5125C20.2087 11.3102 19.5592 12.1097 15.9472 12.5174C15.9472 10.6478 17.1496 9.39509 18.6105 9.39509H18.6095ZM23.0783 17.4857V14.4542C21.9214 15.4117 20.3696 15.9369 19.1189 15.9369C17.8218 15.9369 16.7804 15.2538 16.27 14.16C20.8533 13.8422 23.1001 12.2894 23.1001 10.1029C23.1001 8.34576 21.2709 6.86505 18.7231 6.86505C15.3421 6.86505 12.6117 9.30526 12.6117 12.8619C12.6117 16.2123 15.4122 18.696 18.9333 18.696C20.4387 18.694 21.9668 18.2616 23.0783 17.4857ZM6.26828 12.4039C7.35512 12.4039 8.25935 13.0653 8.25935 14.1808C8.25935 15.2301 7.35512 15.8688 6.26828 15.8688H3.62965V12.4039H6.26828ZM6.0827 6.56989C7.12413 6.56989 7.95827 7.20759 7.95827 8.18782C7.95827 9.23616 7.12413 9.87485 6.0827 9.87485H3.62965V6.5689L6.0827 6.56989ZM0.0413818 3.92336V18.5331H7.03233C9.71736 18.5331 11.8259 16.9151 11.8259 14.4532C11.8259 12.8797 10.8062 11.627 9.32447 11.0338C10.667 10.4415 11.5702 9.27762 11.5702 7.88773C11.5712 5.49489 9.43997 3.92139 6.73125 3.92139H0.0413818V3.92336Z" fill="#017848"/>
</g>
<defs>
<clipPath id="clip0_10_193">
<rect width="159.917" height="20.73" fill="white" transform="translate(0.0413818 0.959961)"/>
</clipPath>
</defs>
</svg>
