<svg width="85" height="36" viewBox="0 0 85 36" fill="none" xmlns="http://www.w3.org/2000/svg">
<g id="Component 2">
<path id="Vector" d="M73.3588 28.6009H78.5218V18.4133C79.0023 16.8761 81.2547 15.4386 84.5034 16.1574V11.165C81.8026 11.165 79.4789 12.9442 78.5218 15.7802V11.5066H73.3588V28.6009ZM64.9503 14.8941C66.5231 14.8941 67.3095 15.7481 67.3095 16.5701C67.3095 17.7657 66.3524 18.9649 61.0183 19.5769C61.0183 16.7729 62.7975 14.8941 64.9503 14.8941ZM71.5475 27.028V22.4805C69.8394 23.918 67.5479 24.7045 65.7012 24.7045C63.7867 24.7045 62.2495 23.6797 61.4952 22.0393C68.2631 21.5625 71.5794 19.2353 71.5794 15.9545C71.5794 13.3214 68.8787 11.101 65.1176 11.101C60.1252 11.101 56.0936 14.7589 56.0936 20.0929C56.0936 25.1173 60.2284 28.8429 65.4272 28.8429C67.6511 28.8393 69.9071 28.1917 71.5475 27.028ZM52.336 23.3025V14.8941H55.8553V11.5457L52.336 11.5813V7.47857L42.5577 14.3853V8.36815L34.3877 14.5205V14.8977H37.4658V24.2632C37.4658 27.238 39.6541 28.8108 42.629 28.8108C43.9277 28.8108 45.0237 28.5724 46.0128 27.9924V24.4696C45.5325 24.7436 44.9525 24.9501 44.3049 24.9501C43.2125 24.9501 42.5613 24.4021 42.5613 23.4448V14.8977H47.244V24.2312C47.244 27.238 49.4324 28.8108 52.4392 28.8108C53.7736 28.8108 54.866 28.6401 55.9264 27.9924V24.4376C55.4816 24.7115 54.7984 24.9501 54.1151 24.9501C53.0192 24.9428 52.336 24.3629 52.336 23.3025ZM27.417 14.8941C28.9898 14.8941 29.7761 15.7481 29.7761 16.5701C29.7761 17.7657 28.819 18.9649 23.4851 19.5769C23.4851 16.7729 25.2606 14.8941 27.417 14.8941ZM34.0141 27.028V22.4805C32.3062 23.918 30.0146 24.7045 28.1678 24.7045C26.2535 24.7045 24.7163 23.6797 23.9619 22.0393C30.7298 21.5625 34.0462 19.2353 34.0462 15.9545C34.0462 13.3214 31.3454 11.101 27.5843 11.101C22.5918 11.101 18.5602 14.7589 18.5602 20.0929C18.5602 25.1173 22.695 28.8429 27.8937 28.8429C30.1178 28.8393 32.3738 28.1917 34.0141 27.028ZM9.19475 19.4061C10.7996 19.4061 12.1339 20.3989 12.1339 22.0713C12.1339 23.6441 10.7996 24.6013 9.19475 24.6013H5.29837V19.4061H9.19475ZM8.92074 10.6562C10.458 10.6562 11.6891 11.6134 11.6891 13.083C11.6891 14.6557 10.458 15.6129 8.92074 15.6129H5.29837V10.6562H8.92074ZM0 6.68861V28.6009H10.3227C14.2867 28.6009 17.4003 26.174 17.4003 22.4805C17.4003 20.1213 15.8951 18.2425 13.7067 17.353C15.6887 16.4634 17.0231 14.7198 17.0231 12.6346C17.0231 9.04423 13.8775 6.68506 9.87794 6.68506H0V6.68861Z" fill="#017848"/>
</g>
</svg>
