<svg width="115" height="21" viewBox="0 0 115 21" fill="none" xmlns="http://www.w3.org/2000/svg">
<g id="Component 2" clip-path="url(#clip0_10_129)">
<path id="Vector" d="M76.0907 15.0705L74.926 14.068C73.8832 15.5403 72.3293 16.5625 70.2034 16.5625C66.9531 16.5625 64.5205 14.0267 64.5205 10.6949C64.5205 7.38264 66.9531 4.84883 70.1621 4.84883C72.1868 4.84883 73.6788 5.78844 74.6803 7.11726L75.8863 6.01351C74.7009 4.48026 72.8197 3.27429 70.1621 3.27429C66.0941 3.27429 62.8644 6.46366 62.8644 10.6949C62.8644 14.927 66.0941 18.1371 70.2034 18.1371C72.7785 18.1371 74.8228 16.8888 76.0907 15.0705ZM82.0527 7.34234C79.0068 7.34234 76.758 9.71397 76.758 12.7392C76.758 15.7654 79.0068 18.1371 82.0527 18.1371C85.0789 18.1371 87.3277 15.7654 87.3277 12.7392C87.3277 9.71397 85.0789 7.34332 82.0527 7.34332V7.34234ZM82.0527 8.8353C84.1993 8.8353 85.7119 10.6143 85.7119 12.7392C85.7119 14.8661 84.1993 16.6441 82.0527 16.6441C79.8855 16.6441 78.3729 14.8651 78.3729 12.7392C78.3729 10.6133 79.8865 8.8353 82.0527 8.8353ZM93.1462 17.8913L97.3578 7.58805H95.681L92.41 15.8057L89.1597 7.58805H87.483L91.6945 17.8913H93.1462ZM102.695 7.34234C99.6694 7.34234 97.5229 9.71397 97.5229 12.7392C97.5229 15.7861 99.6694 18.1371 102.94 18.1371C104.616 18.1371 105.966 17.5641 107.09 16.3384L106.109 15.2543C105.724 15.7077 105.245 16.0708 104.704 16.3181C104.164 16.5654 103.575 16.6908 102.981 16.6854C100.957 16.6854 99.3628 15.3359 99.178 13.1894H107.315C107.366 12.8648 107.393 12.537 107.397 12.2085C107.397 9.50954 105.577 7.34332 102.695 7.34332V7.34234ZM102.695 8.77338C104.432 8.77338 105.802 9.95969 105.863 11.8605V11.9018H99.1986C99.4444 10.0413 100.855 8.77338 102.695 8.77338ZM110.734 7.58805H109.201V17.8913H110.776V12.6576C110.776 10.3479 112.063 8.91687 113.985 8.91687C114.108 8.91687 114.312 8.93653 114.414 8.95717V7.40426C114.22 7.35906 114.021 7.33826 113.822 7.34234C112.431 7.34234 111.266 8.11879 110.734 9.57047V7.58805Z" fill="#A4A8A4"/>
<path id="Vector_2" d="M49.47 17.6988H52.9523V10.9348C53.2766 9.91455 54.7951 8.95921 56.9859 9.43688V6.12269C55.1647 6.12269 53.598 7.30408 52.9523 9.18723V6.34973H49.47V17.6988ZM43.8009 8.5985C44.8614 8.5985 45.3911 9.16561 45.3911 9.7111C45.3911 10.5052 44.7454 11.3014 41.1491 11.7073C41.1491 9.84575 42.3482 8.5985 43.8009 8.5985ZM48.2493 16.654V13.6356C47.0974 14.589 45.5523 15.1119 44.3071 15.1119C43.0156 15.1119 41.9797 14.4318 41.4705 13.3428C46.0339 13.0263 48.2709 11.4802 48.2709 9.30321C48.2709 7.55373 46.4497 6.07944 43.9129 6.07944C40.5466 6.07944 37.829 8.50906 37.829 12.0503C37.829 15.3861 40.6164 17.859 44.1223 17.859C45.6221 17.857 47.1426 17.4265 48.2493 16.654ZM35.2952 14.1811V8.5985H37.6679V6.37528L35.2943 6.39887V3.67537L28.7003 8.2604V4.26607L23.1914 8.35082V8.60145H25.2671V14.819C25.2671 16.7945 26.7424 17.8383 28.7484 17.8383C29.6242 17.8383 30.3633 17.6801 31.0306 17.2948V14.9556C30.7063 15.1375 30.3151 15.2751 29.8787 15.2751C29.1416 15.2751 28.7032 14.9114 28.7032 14.2755V8.60145H31.8611V14.7974C31.8611 16.7936 33.3364 17.8383 35.364 17.8383C36.2634 17.8383 37.0005 17.7243 37.715 17.2948V14.935C37.3444 15.1519 36.9238 15.2691 36.4943 15.2751C35.7552 15.2701 35.2952 14.8849 35.2952 14.1811ZM18.4903 8.5985C19.5518 8.5985 20.0826 9.16561 20.0826 9.7111C20.0826 10.5052 19.4359 11.3014 15.8396 11.7073C15.8396 9.84575 17.0367 8.5985 18.4913 8.5985H18.4903ZM22.9397 16.654V13.6356C21.7878 14.589 20.2428 15.1119 18.9975 15.1119C17.706 15.1119 16.6691 14.4318 16.161 13.3428C20.7244 13.0263 22.9614 11.4802 22.9614 9.30321C22.9614 7.55373 21.1401 6.07944 18.6034 6.07944C15.2371 6.07944 12.5185 8.50906 12.5185 12.0503C12.5185 15.3861 15.3069 17.859 18.8127 17.859C20.3116 17.857 21.833 17.4265 22.9397 16.654ZM6.20267 11.5943C7.2848 11.5943 8.18509 12.2528 8.18509 13.3634C8.18509 14.4082 7.2848 15.0441 6.20267 15.0441H3.57549V11.5943H6.20267ZM6.01789 5.78557C7.05481 5.78557 7.88532 6.42049 7.88532 7.39647C7.88532 8.44026 7.05481 9.07617 6.01789 9.07617H3.57549V5.78458L6.01789 5.78557ZM0.00280762 3.15053V17.6968H6.9634C9.63677 17.6968 11.7362 16.0859 11.7362 13.6347C11.7362 12.068 10.7209 10.8207 9.2456 10.23C10.5823 9.64033 11.4816 8.48154 11.4816 7.09768C11.4826 4.71523 9.36059 3.14856 6.66363 3.14856H0.00280762V3.15053Z" fill="#017848"/>
</g>
<defs>
<clipPath id="clip0_10_129">
<rect width="114.994" height="20.64" fill="white" transform="translate(0.00280762 0.199951)"/>
</clipPath>
</defs>
</svg>
