<svg width="130" height="24" viewBox="0 0 130 24" fill="none" xmlns="http://www.w3.org/2000/svg">
<g id="Component 2">
<path id="Vector" d="M64.9771 18.84H66.6201V4.19702H64.9771V18.84ZM71.1211 10.25V8.35702H69.5611V18.84H71.1631V13.411C71.1631 11.601 72.2231 9.58402 74.4081 9.58402C75.9681 9.58402 77.1121 10.666 77.1121 12.496V18.84H78.7141V12.413C78.7141 9.79202 77.1121 8.10702 74.7201 8.10702C72.9311 8.10702 71.7461 8.98102 71.1211 10.25ZM84.2381 19.09C86.4221 19.09 87.9821 17.8 87.9821 16.115C87.9821 14.326 86.6511 13.557 84.5291 12.85C82.9691 12.309 82.1791 11.914 82.1791 11.04C82.1791 10.104 83.0531 9.52202 84.1761 9.52202C85.3611 9.52202 86.0891 10.125 86.6091 10.936L87.7741 10.083C87.1091 8.91802 85.9441 8.10702 84.2591 8.10702C82.1791 8.10702 80.5991 9.43802 80.5991 11.082C80.5991 12.808 81.9091 13.578 83.8641 14.222C85.6741 14.805 86.4011 15.179 86.4011 16.157C86.4011 17.051 85.5281 17.654 84.2381 17.654C82.9691 17.654 82.0331 16.968 81.3881 16.032L80.2031 16.906C80.9311 18.174 82.4491 19.09 84.2381 19.09ZM89.8351 23H91.437V17.093C92.1021 18.258 93.6211 19.09 95.1391 19.09C97.9261 19.09 100.11 16.76 100.11 13.598C100.11 10.437 97.9261 8.10802 95.1391 8.10802C93.5991 8.10802 92.0391 8.96002 91.3741 10.208V8.35702H89.8351V23ZM91.3331 13.598C91.3331 11.04 93.0801 9.58402 94.8891 9.58402C96.8651 9.58402 98.4881 11.269 98.4881 13.598C98.4881 15.928 96.845 17.613 94.868 17.613C93.101 17.613 91.3331 16.178 91.3331 13.598ZM106.434 8.10802C103.355 8.10802 101.171 10.52 101.171 13.598C101.171 16.698 103.355 19.09 106.683 19.09C108.389 19.09 109.762 18.507 110.906 17.26L109.907 16.157C109.516 16.6182 109.028 16.9877 108.478 17.2393C107.928 17.491 107.33 17.6185 106.725 17.613C104.666 17.613 103.043 16.24 102.856 14.056H111.135C111.187 13.7258 111.214 13.3922 111.218 13.058C111.218 10.312 109.367 8.10802 106.434 8.10802ZM106.434 9.56302C108.202 9.56302 109.595 10.77 109.658 12.704V12.746H102.877C103.127 10.853 104.562 9.56302 106.434 9.56302ZM121.977 16.864L120.895 15.866C120.167 16.926 119.023 17.592 117.588 17.592C115.487 17.592 113.865 15.866 113.865 13.598C113.865 11.352 115.467 9.60502 117.609 9.60502C118.982 9.60502 120.001 10.291 120.708 11.269L121.769 10.229C120.833 8.91902 119.439 8.10702 117.63 8.10702C114.614 8.10702 112.222 10.499 112.222 13.577C112.222 16.677 114.614 19.09 117.63 19.09C119.481 19.09 121.041 18.216 121.977 16.864ZM128.613 17.301C128.155 17.551 127.656 17.613 127.365 17.613C126.2 17.613 125.535 16.989 125.535 15.72V9.70902H128.259V8.35702H125.535V5.46602H123.975V8.35602H122.311V9.71002H123.933V15.887C123.933 17.926 125.16 19.091 127.053 19.091C127.719 19.091 128.239 18.966 128.613 18.779V17.3V17.301Z" fill="#A4A8A4"/>
<path id="Vector_2" d="M50.33 18.644H53.873V11.762C54.203 10.724 55.748 9.75197 57.977 10.238V6.86597C56.124 6.86597 54.53 8.06797 53.873 9.98397V7.09697H50.33V18.644ZM44.562 9.38497C45.641 9.38497 46.18 9.96197 46.18 10.517C46.18 11.325 45.523 12.135 41.864 12.548C41.864 10.654 43.084 9.38497 44.562 9.38497ZM49.088 17.581V14.51C47.916 15.48 46.344 16.012 45.077 16.012C43.763 16.012 42.709 15.32 42.191 14.212C46.834 13.89 49.11 12.317 49.11 10.102C49.11 8.32197 47.257 6.82197 44.676 6.82197C41.251 6.82197 38.486 9.29397 38.486 12.897C38.486 16.291 41.322 18.807 44.889 18.807C46.415 18.805 47.962 18.367 49.088 17.581ZM35.908 15.065V9.38497H38.322V7.12297L35.907 7.14697V4.37597L29.198 9.04097V4.97697L23.593 9.13297V9.38797H25.705V15.714C25.705 17.724 27.206 18.786 29.247 18.786C30.138 18.786 30.89 18.625 31.569 18.233V15.853C31.239 16.038 30.841 16.178 30.397 16.178C29.647 16.178 29.201 15.808 29.201 15.161V9.38797H32.414V15.692C32.414 17.723 33.915 18.786 35.978 18.786C36.893 18.786 37.643 18.67 38.37 18.233V15.832C37.9929 16.0527 37.5649 16.1719 37.128 16.178C36.376 16.173 35.908 15.781 35.908 15.065ZM18.81 9.38497C19.89 9.38497 20.43 9.96197 20.43 10.517C20.43 11.325 19.772 12.135 16.113 12.548C16.113 10.654 17.331 9.38497 18.811 9.38497H18.81ZM23.337 17.581V14.51C22.165 15.48 20.593 16.012 19.326 16.012C18.012 16.012 16.957 15.32 16.44 14.212C21.083 13.89 23.359 12.317 23.359 10.102C23.359 8.32197 21.506 6.82197 18.925 6.82197C15.5 6.82197 12.734 9.29397 12.734 12.897C12.734 16.291 15.571 18.807 19.138 18.807C20.663 18.805 22.211 18.367 23.337 17.581ZM6.308 12.433C7.409 12.433 8.325 13.103 8.325 14.233C8.325 15.296 7.409 15.943 6.308 15.943H3.635V12.433H6.308ZM6.12 6.52297C7.175 6.52297 8.02 7.16897 8.02 8.16197C8.02 9.22397 7.175 9.87097 6.12 9.87097H3.635V6.52197L6.12 6.52297ZM0 3.84197V18.642H7.082C9.802 18.642 11.938 17.003 11.938 14.509C11.938 12.915 10.905 11.646 9.404 11.045C10.764 10.445 11.679 9.26597 11.679 7.85797C11.68 5.43397 9.521 3.83997 6.777 3.83997H0V3.84197Z" fill="#017848"/>
</g>
</svg>
