<svg width="62" height="39" viewBox="0 0 62 39" fill="none" xmlns="http://www.w3.org/2000/svg">
<g id="Clip path group">
<mask id="mask0_1_639" style="mask-type:luminance" maskUnits="userSpaceOnUse" x="0" y="0" width="62" height="40">
<g id="a">
<path id="Vector" d="M0.979996 0.0100098H61.502V39.01H0.979996V0.0100098Z" fill="white"/>
</g>
</mask>
<g mask="url(#mask0_1_639)">
<g id="Group">
<path id="Vector_2" d="M19.883 31.453L19.778 31.563C18.072 33.346 16.091 34.287 14.05 34.287C9.79 34.287 6.697 31.025 6.697 26.529C6.697 22.034 9.789 18.77 14.05 18.77C16.091 18.77 18.072 19.713 19.778 21.497L19.883 21.607L22.628 18.224L22.556 18.136C20.279 15.387 17.539 14.05 14.184 14.05C10.81 14.05 7.726 15.203 5.498 17.296C3.088 19.56 1.815 22.752 1.815 26.529C1.815 30.307 3.088 33.497 5.498 35.763C7.726 37.856 10.81 39.009 14.184 39.009C17.539 39.009 20.279 37.673 22.556 34.923L22.628 34.835L19.883 31.453Z" fill="black"/>
<path id="Vector_3" d="M25.397 38.5479H30.234V14.4399H25.397V38.5479Z" fill="black"/>
<path id="Vector_4" d="M49.2 33.307C47.909 34.108 46.705 34.513 45.621 34.513C44.055 34.513 43.356 33.675 43.356 31.794V19.004H48.278V14.465H43.356V6.95996L38.608 9.55496V14.466H34.514V19.006H38.608V32.61C38.608 36.32 40.765 38.853 43.974 38.916C46.157 38.957 47.47 38.303 48.266 37.806L48.313 37.778L49.482 33.13L49.2 33.307Z" fill="black"/>
<path id="Vector_5" d="M53.206 38.5479H58.046V14.4399H53.206V38.5479Z" fill="black"/>
<path id="Vector_6" d="M61.09 10.54C57.053 4.36601 49.599 0.00701131 41.638 0.0100113C33.801 0.0130113 26.349 4.23901 22.179 10.54H27.743C31.538 6.55001 36.46 4.37801 41.638 4.37601C46.723 4.37301 51.724 6.54901 55.527 10.541L61.09 10.54Z" fill="black"/>
</g>
</g>
</g>
</svg>
