<svg width="155" height="91" viewBox="0 0 155 91" fill="none" xmlns="http://www.w3.org/2000/svg">
<g id="Component 2">
<path id="Vector" d="M57.727 30.908L56.983 30.37L56.58 30.155L56.177 29.955L55.758 29.801L55.34 29.709L54.875 29.632L54.394 29.616V30.139L54.674 30.17L54.89 30.216L55.092 30.293L55.262 30.385L55.417 30.508L55.572 30.662L55.789 31.032L55.959 31.523L56.084 32.108L56.177 32.8L56.254 33.569L56.301 35.337V39.243L56.254 40.996L56.177 41.781L56.084 42.473L55.96 43.057L55.79 43.519L55.572 43.888L55.417 44.057L55.262 44.18L55.092 44.272L54.89 44.349L54.673 44.395H54.394V44.918L54.89 44.888L55.355 44.841L55.774 44.718L56.192 44.564L56.595 44.364L56.999 44.149L57.743 43.611L58.285 43.073L58.781 42.457L59.231 41.75L59.571 40.966L59.867 40.136L60.068 39.228L60.192 38.29L60.239 37.275L60.192 36.291L60.068 35.337L59.867 34.461L59.572 33.599L59.231 32.815L58.781 32.123L58.285 31.477L57.727 30.908ZM54.394 29.616L53.929 29.647L53.464 29.724L53.014 29.847L52.611 30.017L52.208 30.217L51.805 30.432L51.465 30.708L51.123 31.001L50.627 31.493L50.162 32.077L49.712 32.738L49.34 33.476L49.015 34.306L48.767 35.214L48.612 36.198L48.565 37.259L48.612 38.274L48.736 39.212L48.937 40.12L49.232 40.95L49.572 41.735L50.022 42.442L50.518 43.057L51.061 43.595L51.805 44.134L52.177 44.349L52.58 44.549L52.999 44.703L53.449 44.826L53.914 44.872L54.379 44.902V44.38H54.131L53.913 44.334L53.712 44.257L53.542 44.164L53.386 44.041L53.231 43.872L53.014 43.503L52.844 43.042L52.689 42.457L52.611 41.765L52.534 40.981L52.487 39.228L52.457 37.259L52.487 35.322L52.534 33.553L52.611 32.784L52.689 32.092L52.844 31.508L53.014 31.016L53.231 30.646L53.386 30.493L53.541 30.37L53.711 30.278L53.914 30.201L54.13 30.155L54.378 30.124V29.616H54.394ZM119.35 33.246L119.381 32.538L119.505 31.923L119.598 31.677L119.753 31.431L119.923 31.185L120.14 30.985L120.466 30.77L120.792 30.677L121.133 30.647L121.427 30.677L121.722 30.801L121.939 31.001L122.094 31.277L122.218 31.6L122.295 31.97L122.326 32.37L122.357 33.246V44.64H126.14V34.03L126.109 33.461L126.062 32.953L125.969 32.461L125.845 32.016L125.69 31.6L125.489 31.231L125.287 30.908L125.039 30.616L124.745 30.339L124.45 30.124L124.125 29.954L123.753 29.801L123.381 29.709L122.977 29.663L122.559 29.632H122.109L121.567 29.709L121.071 29.862L120.606 30.032L120.187 30.278L119.846 30.57L119.52 30.862L119.272 31.2L119.071 31.539V29.893H115.552V44.626H119.35V33.246ZM110.234 30.001L109.568 29.801L108.746 29.647L107.785 29.601L107.242 29.631V30.201H107.366L107.707 30.247L108.002 30.339L108.219 30.493L108.421 30.693L108.545 30.939L108.638 31.231L108.669 31.569V34.199L108.638 34.476L108.591 34.691L108.467 34.907L108.266 35.076L107.971 35.276L107.552 35.491L107.227 35.645V36.506L107.428 36.352L108.669 35.583V40.889L108.638 41.412L108.56 41.935L108.467 42.381L108.312 42.796L108.142 43.165L107.924 43.457L107.676 43.703L107.382 43.873L107.227 43.918V44.58L107.63 44.38L108.002 44.103L108.328 43.826L108.576 43.488L108.777 43.118L108.808 44.595H112.467V33.661L112.436 33L112.343 32.415L112.219 31.923L112.048 31.477L111.8 31.108L111.521 30.785L111.196 30.508L110.823 30.262L110.234 30.001ZM107.242 44.595V43.934L107.149 43.964L106.901 43.995L106.653 43.949L106.405 43.857L106.204 43.687L106.049 43.442L105.925 43.103L105.847 42.688L105.801 41.735V40.796L105.832 39.966L105.863 39.228L105.987 38.413L106.08 38.043L106.235 37.675L106.436 37.336L106.715 37.013L107.041 36.691L107.258 36.537V35.676L106.297 36.091L104.684 36.798L103.94 37.198L103.599 37.413L103.305 37.659L103.01 37.921L102.731 38.213L102.514 38.551L102.313 38.921L102.157 39.336L102.034 39.782L101.956 40.304L101.925 40.843L101.956 41.458L102.034 41.996L102.157 42.488L102.313 42.903L102.514 43.303L102.731 43.626L102.979 43.918L103.258 44.134L103.553 44.334L103.847 44.503L104.436 44.718L105.056 44.841L105.63 44.871L106.219 44.841L106.762 44.749L107.227 44.595H107.242ZM107.211 29.632L106.669 29.678L106.126 29.77L105.63 29.893L105.165 30.047L104.715 30.217L104.312 30.432L103.94 30.647L103.615 30.893L103.32 31.17L103.072 31.462L102.871 31.785L102.716 32.108L102.623 32.431L102.576 32.769L102.546 33.139L102.623 33.553L102.778 33.923L102.979 34.215L103.227 34.43L103.475 34.599L103.77 34.722L104.064 34.799L104.328 34.845L104.746 34.815L105.165 34.737L105.537 34.614L105.878 34.399L106.173 34.122L106.374 33.753L106.498 33.338V32.846L106.452 32.508L106.328 32.231L106.204 32.016L106.049 31.816L105.832 31.416L105.754 31.216L105.723 30.97L105.77 30.77L105.894 30.616L106.018 30.493L106.188 30.37L106.591 30.247L106.963 30.17H107.211V29.632ZM57.262 49.608L56.595 49.393L55.774 49.27L54.828 49.224L54.254 49.254V49.824H54.41L54.75 49.87L55.03 49.962L55.278 50.116L55.448 50.316L55.603 50.562L55.681 50.854L55.711 51.192V54.099L55.634 54.314L55.541 54.514L55.34 54.714L55.014 54.914L54.596 55.129L54.27 55.283V56.16L54.487 55.99L55.697 55.206V60.542L55.665 61.065L55.619 61.557L55.526 62.019L55.371 62.434L55.201 62.803L54.983 63.095L54.704 63.341L54.425 63.511L54.255 63.557V64.217L54.673 64.002L55.045 63.757L55.34 63.464L55.619 63.141L55.82 62.772V64.249H59.479V53.299L59.448 52.607L59.37 52.038L59.215 51.515L59.045 51.1L58.828 50.731L58.533 50.408L58.208 50.131L57.836 49.885L57.262 49.608ZM54.27 64.202V63.542L54.177 63.572L53.929 63.602L53.681 63.557L53.464 63.464L53.262 63.295L53.092 63.049L52.999 62.711L52.921 62.295L52.844 61.295L52.813 60.358L52.843 59.497L52.89 58.789L52.983 57.974L53.107 57.605L53.231 57.236L53.433 56.898L53.712 56.559L54.053 56.267L54.255 56.144V55.268L53.309 55.683L51.666 56.39L50.921 56.79L50.596 57.005L50.27 57.251L49.976 57.513L49.728 57.805L49.48 58.143L49.31 58.513L49.139 58.913L49.046 59.373L48.968 59.866L48.938 60.435L48.968 61.05L49.046 61.588L49.17 62.08L49.325 62.495L49.526 62.895L49.743 63.218L49.991 63.48L50.239 63.726L50.534 63.926L50.828 64.095L51.448 64.31L52.068 64.402L52.642 64.448L53.232 64.402L53.758 64.325L54.27 64.202ZM54.27 49.239L53.696 49.285L53.169 49.378L52.673 49.501L52.208 49.655L51.758 49.824L51.355 50.024L50.983 50.27L50.643 50.516L50.363 50.792L50.115 51.085L49.914 51.377L49.744 51.715L49.65 52.038L49.604 52.377V52.715L49.681 53.161L49.836 53.53L50.006 53.822L50.255 54.037L50.534 54.207L50.828 54.329L51.108 54.406L51.402 54.453L51.821 54.422L52.224 54.345L52.627 54.191L52.967 53.991L53.247 53.699L53.464 53.361L53.557 52.945L53.587 52.438L53.51 52.1L53.417 51.823L53.293 51.577L53.138 51.377L52.89 51.007L52.813 50.807V50.562L52.859 50.362L52.952 50.208L53.107 50.054L53.277 49.962L53.681 49.808L54.022 49.762H54.27V49.239ZM99.786 44.626V34.015L99.755 33.445L99.708 32.938L99.615 32.446L99.491 32L99.336 31.585L99.166 31.215L98.948 30.893L98.7 30.601L98.421 30.324L98.127 30.109L97.801 29.924L97.429 29.77L97.057 29.678L96.654 29.632L96.236 29.602H95.786L95.196 29.693L94.67 29.847L94.205 30.062L93.786 30.339L93.446 30.662L93.15 31L92.933 31.37L92.763 31.739L92.483 31.2L92.158 30.74L91.786 30.37L91.368 30.047L90.872 29.832L90.36 29.678L89.77 29.601H89.15L88.608 29.678L88.143 29.832L87.693 30.001L87.29 30.247L86.95 30.539L86.655 30.831L86.407 31.17L86.205 31.508V29.862H82.764V44.595H86.484V33.215L86.515 32.508L86.639 31.892L86.763 31.616L86.887 31.37L87.058 31.154L87.275 30.954L87.601 30.739L87.895 30.647L88.19 30.616L88.484 30.646L88.779 30.77L88.98 30.97L89.15 31.246L89.244 31.569L89.321 31.939L89.368 32.339L89.398 33.215V44.61H93.135V33.184L93.166 32.492L93.29 31.908L93.383 31.631L93.538 31.385L93.708 31.17L93.926 30.97L94.251 30.754L94.546 30.662L94.84 30.632L95.135 30.662L95.429 30.785L95.631 30.985L95.801 31.262L95.894 31.585L95.972 31.954L96.019 32.354L96.049 33.23V44.626H99.786ZM62.393 44.626H66.238V26.833H62.393V44.626ZM79.523 44.626V26.833H75.741V31.016L75.586 30.739L75.385 30.462L75.136 30.247L74.889 30.047L74.594 29.893L74.253 29.77L74.036 29.74V30.324L74.284 30.354L74.547 30.447L74.795 30.616L74.966 30.862L75.245 31.354L75.447 32L75.602 32.738L75.695 33.523L75.772 34.383L75.819 35.245V36.921L75.849 38.659L75.819 39.597L75.772 40.504L75.695 41.381L75.54 42.165L75.322 42.857L75.198 43.134L75.028 43.38L74.78 43.672L74.532 43.872L74.237 43.995L74.036 44.041V44.671L74.191 44.626L74.609 44.472L74.951 44.257L75.245 44.011L75.493 43.718L75.71 43.38L75.88 43.011V44.611H79.524L79.523 44.626ZM74.02 29.755L73.865 29.709L73.462 29.678L72.935 29.708L72.439 29.801L71.943 29.971L71.478 30.185L71.059 30.478L70.641 30.801L70.238 31.216L69.897 31.662L69.571 32.154L69.277 32.692L69.028 33.307L68.811 33.937L68.641 34.599L68.486 35.337L68.408 36.075L68.362 36.89L68.392 38.074L68.548 39.351L68.672 40.012L68.842 40.642L69.044 41.273L69.292 41.888L69.587 42.473L69.927 43.011L70.331 43.503L70.781 43.918L71.276 44.257L71.819 44.503L72.439 44.672L73.137 44.718L73.71 44.688L74.036 44.641V44.011H73.866L73.602 43.965L73.354 43.841L73.137 43.672L72.935 43.411L72.765 43.088L72.61 42.688L72.517 42.227L72.424 41.689L72.346 40.627L72.268 39.397L72.238 36.798L72.268 35.183L72.362 33.753L72.532 32.508L72.656 31.938L72.826 31.37L72.997 30.97L73.245 30.631L73.369 30.478L73.539 30.385L73.71 30.309L73.912 30.278L74.036 30.308V29.755H74.02ZM90.81 49.209L90.267 49.239L89.74 49.285L89.275 49.408L88.825 49.531L88.407 49.731L88.004 49.931L87.663 50.177L87.337 50.454L87.043 50.746L86.794 51.069L86.593 51.408L86.423 51.746L86.298 52.115L86.205 52.515L86.128 52.93L86.097 53.345L86.127 53.715L86.174 54.084L86.267 54.422L86.391 54.714L86.546 55.006L86.716 55.298L87.166 55.791L87.709 56.283L88.36 56.728L89.926 57.667L90.67 58.113L91.29 58.559L91.802 58.974L92.22 59.374L92.546 59.82L92.763 60.266L92.887 60.712L92.933 61.234L92.887 61.773L92.763 62.234L92.561 62.649L92.282 63.019L91.942 63.295L91.538 63.51L91.088 63.633L90.593 63.664H90.174L89.802 63.618L89.461 63.526L89.135 63.403L88.841 63.249L88.561 63.049L88.345 62.803L88.097 62.557L87.694 61.927L87.353 61.142L87.058 60.189L86.763 59.112H86.267L86.237 64.279H90.221L90.748 64.249L91.275 64.202L91.771 64.125L92.267 64.002L92.763 63.849L93.213 63.679L93.631 63.464L94.034 63.203L94.406 62.911L94.732 62.572L95.026 62.172L95.274 61.757L95.476 61.296L95.631 60.758L95.724 60.188L95.754 59.574L95.724 59.051L95.646 58.559L95.522 58.143L95.367 57.743L95.197 57.374L94.949 57.052L94.701 56.759L94.406 56.498L93.74 55.975L92.996 55.514L91.259 54.56L90.593 54.145L90.065 53.745L89.647 53.376L89.352 52.976L89.151 52.607L89.027 52.238L88.98 51.838V51.438L89.058 51.038L89.228 50.7L89.476 50.408L89.756 50.162L90.096 49.992L90.438 49.87L90.81 49.793L91.182 49.763L91.522 49.808L91.848 49.885L92.128 49.977L92.391 50.131L92.67 50.301L92.887 50.516L93.29 50.977L93.631 51.546L93.911 52.161L94.111 52.822L94.282 53.452H94.825V49.224H90.81V49.209ZM83.725 53.607L83.694 53.037L83.647 52.515L83.554 52.023L83.43 51.577L83.275 51.162L83.074 50.792L82.872 50.454L82.624 50.162L82.33 49.916L82.035 49.701L81.71 49.531L81.338 49.378L80.966 49.285L80.562 49.209L80.144 49.178L79.694 49.208L79.229 49.255L78.811 49.347L78.407 49.501L78.036 49.701L77.71 49.901L77.415 50.147L77.136 50.393L76.919 50.685V46.44H73.152V57.128L73.106 57.743L73.013 58.359L72.889 58.943L72.719 59.527L72.501 60.112L72.253 60.65L71.974 61.188L71.679 61.68L71.339 62.142L70.997 62.542L70.594 62.911L70.191 63.234L69.773 63.48L69.323 63.68L68.858 63.772L68.393 63.818L68.052 63.788L67.726 63.741L67.447 63.649L67.199 63.556L66.982 63.433L66.781 63.264L66.44 62.895L66.192 62.449L66.021 61.957L65.897 61.419L65.804 60.849L65.602 59.081L65.525 57.067L65.555 55.99L65.602 54.868L65.68 53.73L65.804 52.546L65.851 52.084L65.944 51.592L66.067 51.131L66.269 50.685L66.517 50.285L66.812 49.993L66.982 49.901L67.199 49.808L67.416 49.762L67.664 49.732L68.005 49.777L68.253 49.854L68.455 49.947L68.548 50.101L68.594 50.27V50.423L68.517 50.593L68.424 50.746L68.021 51.238L67.819 51.515L67.649 51.807L67.494 52.146L67.416 52.515V52.915L67.509 53.361L67.602 53.607L67.726 53.822L67.881 54.022L68.083 54.176L68.3 54.33L68.517 54.422L69.013 54.545H69.54L70.067 54.453L70.315 54.36L70.532 54.237L70.749 54.084L70.919 53.914L71.199 53.576L71.369 53.176L71.462 52.761L71.509 52.346L71.478 51.93L71.385 51.515L71.261 51.146L71.059 50.808L70.765 50.438L70.439 50.116L70.099 49.839L69.695 49.624L69.245 49.47L68.78 49.347L68.238 49.27L67.648 49.24L67.246 49.27L66.796 49.347L66.331 49.47L65.835 49.64L65.339 49.854L64.812 50.147L64.316 50.516L63.851 50.931L63.401 51.392L62.982 51.962L62.579 52.592L62.254 53.299L61.974 54.114L61.774 54.975L61.618 55.96L61.588 57.02L61.618 58.143L61.773 59.173L61.975 60.081L62.254 60.865L62.594 61.573L62.998 62.188L63.417 62.711L63.882 63.157L64.409 63.526L64.936 63.818L65.463 64.033L65.974 64.233L66.517 64.356L67.013 64.433L67.974 64.51L68.501 64.48L68.997 64.387L69.463 64.264L69.913 64.064L70.315 63.849L70.718 63.603L71.09 63.31L71.416 62.988L71.71 62.665L72.005 62.295L72.47 61.527L72.842 60.757L73.122 60.004V64.234H76.904V52.837L76.934 52.145L77.059 51.53L77.183 51.284L77.307 51.038L77.508 50.791L77.71 50.576L78.036 50.376L78.361 50.284L78.702 50.254L79.028 50.284L79.307 50.407L79.524 50.607L79.694 50.884L79.787 51.207L79.865 51.545L79.895 51.96L79.927 52.837V64.232H83.709V53.607H83.725ZM41.263 26.51L40.303 26.587L39.388 26.741L38.519 27.017L37.729 27.387L37.016 27.833L36.349 28.355L35.759 28.94L35.217 29.57L34.721 30.278L34.318 31.016L33.946 31.8L33.652 32.615L33.434 33.445L33.264 34.307L33.171 35.168L33.14 36.029V36.89L33.187 37.72L33.264 38.551L33.419 39.336L33.589 40.12L33.807 40.858L34.07 41.565L34.396 42.227L34.799 42.842L35.249 43.411L35.759 43.934L36.334 44.38L36.984 44.78L37.698 45.072L38.519 45.318L39.388 45.472L38.519 45.764L37.682 46.133L36.922 46.594L36.582 46.871L36.256 47.163L35.962 47.486L35.713 47.809L35.465 48.179L35.264 48.547L35.109 48.962L34.985 49.378L34.907 49.793L34.861 50.254L34.891 50.792L34.938 51.285L35.016 51.731L35.14 52.146L35.31 52.515L35.512 52.884L35.76 53.222L36.039 53.514L36.364 53.837L36.737 54.114L37.574 54.699L38.534 55.283L39.682 55.929L41.372 56.882L42.069 57.328L42.643 57.79L43.139 58.282L43.309 58.559L43.48 58.835L43.604 59.128L43.697 59.42L43.775 59.758L43.805 60.096V60.788L43.713 61.418L43.543 62.034L43.418 62.311L43.263 62.557L43.062 62.772L42.86 62.987L42.612 63.157L42.364 63.326L42.07 63.449L41.744 63.526L41.372 63.603L40.969 63.633L40.302 63.603L39.93 63.526L39.558 63.449L39.155 63.295L38.752 63.125L38.349 62.88L37.946 62.588L37.574 62.218L37.202 61.773L36.83 61.25L36.504 60.635L36.179 59.943L35.899 59.128L35.651 58.22L35.45 57.19H34.83V64.187H41L41.666 64.157L42.317 64.064L42.937 63.941L43.557 63.771L44.131 63.556L44.658 63.296L45.17 62.972L45.62 62.603L46.038 62.203L46.41 61.757L46.736 61.296L46.999 60.758L47.216 60.219L47.371 59.635L47.464 59.02L47.495 58.359L47.465 57.667L47.371 57.052L47.201 56.482L46.999 55.96L46.736 55.514L46.441 55.098L46.101 54.698L45.728 54.36L45.309 54.037L44.891 53.745L44.007 53.222L42.225 52.284L40.55 51.454L39.9 51.038L39.388 50.623L39.171 50.423L38.969 50.177L38.799 49.931L38.674 49.67L38.581 49.378L38.504 49.055L38.426 48.347L38.457 48.024L38.504 47.701L38.674 47.163L38.954 46.671L39.325 46.271L39.791 45.948L40.318 45.702L40.907 45.548L41.542 45.502L42.116 45.548L42.659 45.702L43.155 45.902L43.573 46.179L43.976 46.471L44.317 46.81L44.581 47.148L44.798 47.486L45.201 48.255L45.496 48.993L45.744 49.778L45.914 50.685H46.534V35.522H40.364V36.045L41.077 36.122L41.48 36.214L41.821 36.368L42.023 36.491L42.193 36.66L42.349 36.875L42.504 37.09L42.597 37.367L42.69 37.69L42.736 38.028V41.596L42.706 42.334L42.628 43.119L42.535 43.488L42.41 43.826L42.255 44.149L42.054 44.395L41.728 44.672L41.356 44.887L40.891 45.01L40.364 45.056L39.853 45.01L39.45 44.856L39.108 44.641L38.814 44.364L38.612 44.041L38.442 43.703L38.225 43.073L38.101 42.442L38.008 41.75L37.838 40.12L37.76 38.26L37.713 36.152L37.744 34.968L37.791 33.846L37.868 32.769L37.992 31.754L38.147 30.847L38.317 30.032L38.519 29.34L38.767 28.817L38.984 28.417L39.264 28.047L39.558 27.756L39.884 27.51L40.224 27.31L40.628 27.156L41.078 27.064L41.542 27.033L41.961 27.079L42.333 27.156L42.705 27.31L43.046 27.479L43.372 27.725L43.697 27.971L43.977 28.294L44.24 28.632L44.736 29.402L45.155 30.262L45.48 31.2L45.775 32.154H46.317V26.51H41.263Z" fill="black"/>
</g>
</svg>
