<svg width="155" height="91" viewBox="0 0 155 91" fill="none" xmlns="http://www.w3.org/2000/svg">
<g id="Component 2">
<path id="Vector" d="M143.345 35.707C143.24 35.7088 143.136 35.6898 143.039 35.651C142.941 35.6122 142.853 35.5544 142.778 35.481C142.644 35.354 142.505 35.225 142.4 35.076C142.008 34.52 141.629 33.955 141.246 33.394C141.238 33.383 141.234 33.37 141.226 33.351C141.258 33.339 141.288 33.331 141.314 33.315C141.45 33.245 141.598 33.187 141.721 33.098C142.11 32.814 142.295 32.426 142.238 31.942C142.182 31.464 141.903 31.151 141.465 30.972C141.178 30.862 140.872 30.8103 140.565 30.82L138.829 30.825H138.486C138.486 30.862 138.488 30.893 138.486 30.923C138.478 30.988 138.499 31.013 138.569 31.01C138.636 31.006 138.704 31.014 138.771 31.023C139.01 31.057 139.123 31.177 139.143 31.417C139.148 31.477 139.149 31.54 139.149 31.602V35.129C139.149 35.171 139.149 35.214 139.147 35.256C139.13 35.521 138.992 35.668 138.727 35.697C138.651 35.707 138.572 35.71 138.493 35.717V35.889H140.525C140.525 35.852 140.522 35.819 140.527 35.786C140.534 35.722 140.508 35.701 140.446 35.704C140.384 35.7063 140.322 35.7029 140.261 35.694C140.085 35.673 139.938 35.606 139.892 35.415C139.873 35.333 139.865 35.2491 139.866 35.165C139.863 34.639 139.864 34.114 139.864 33.588C139.864 33.56 139.867 33.533 139.869 33.496C140.063 33.496 140.25 33.498 140.437 33.494C140.5 33.494 140.539 33.512 140.572 33.568C140.711 33.795 140.854 34.022 140.998 34.247C141.349 34.799 141.708 35.347 142.146 35.838C142.161 35.8573 142.181 35.8727 142.203 35.8826C142.226 35.8925 142.25 35.8968 142.275 35.895C142.586 35.892 142.898 35.89 143.21 35.895C143.375 35.897 143.377 35.899 143.36 35.73L143.345 35.707ZM140.879 33.137C140.569 33.279 140.244 33.287 139.913 33.237C139.852 33.227 139.864 33.186 139.864 33.149V32.162C139.864 31.834 139.866 31.504 139.863 31.176C139.863 31.116 139.881 31.096 139.941 31.086C140.194 31.0404 140.453 31.0441 140.704 31.097C141.156 31.198 141.404 31.47 141.48 31.939C141.561 32.459 141.329 32.928 140.879 33.137Z" fill="black"/>
<path id="Vector_2" d="M130.49 30.8229C129.928 30.8209 129.367 30.8229 128.804 30.8229C128.783 30.8229 128.76 30.8259 128.738 30.8289V30.9969C128.89 31.0169 129.037 31.0299 129.178 31.0609C129.274 31.0765 129.362 31.1213 129.431 31.1891C129.5 31.257 129.547 31.3446 129.564 31.4399C129.588 31.5539 129.606 31.6719 129.607 31.7899C129.611 32.7599 129.61 33.7299 129.61 34.6999C129.61 34.7199 129.605 34.7399 129.601 34.7719L129.522 34.6889C128.651 33.7489 127.777 32.8099 126.91 31.8659C126.61 31.5389 126.329 31.1959 126.035 30.8639C126.014 30.8399 125.969 30.8249 125.935 30.8249C125.637 30.8239 125.339 30.8269 125.042 30.8299H124.751C124.72 31.0029 124.721 31.0039 124.881 31.0139C124.917 31.0169 124.954 31.0189 124.99 31.0239C125.274 31.0629 125.504 31.1799 125.586 31.4779C125.621 31.6039 125.633 31.7379 125.635 31.8679C125.638 32.8219 125.64 33.7759 125.635 34.7279C125.633 34.9189 125.616 35.1119 125.578 35.2979C125.521 35.5679 125.367 35.6839 125.092 35.7019C125.017 35.7059 124.941 35.7089 124.866 35.7139V35.8919H126.79V35.7119L126.693 35.7079C126.591 35.6979 126.486 35.6929 126.383 35.6739C126.284 35.6618 126.192 35.6177 126.12 35.5484C126.049 35.4791 126.002 35.3883 125.987 35.2899C125.955 35.1386 125.938 34.9845 125.935 34.8299C125.928 33.8469 125.93 32.8629 125.93 31.8769C125.93 31.8569 125.935 31.8369 125.938 31.8039L126.005 31.8739C127.225 33.2109 128.445 34.5479 129.663 35.8879C129.734 35.9649 129.803 35.9759 129.901 35.9509V35.8419C129.901 34.5009 129.9 33.1589 129.902 31.8179C129.902 31.6719 129.915 31.5249 129.939 31.3819C129.979 31.1579 130.109 31.0469 130.334 31.0199C130.394 31.0129 130.458 31.0149 130.518 31.0099C130.539 31.0099 130.577 31.0019 130.578 30.9929C130.586 30.9432 130.586 30.8926 130.578 30.8429C130.575 30.8299 130.521 30.8229 130.49 30.8229Z" fill="black"/>
<path id="Vector_3" d="M133.146 35.419C133.118 35.563 133.02 35.648 132.877 35.675C132.799 35.6886 132.721 35.6973 132.642 35.701C132.482 35.711 132.475 35.72 132.505 35.881C132.505 35.884 132.508 35.887 132.516 35.897H132.6C132.915 35.893 133.23 35.884 133.544 35.886C134.431 35.888 135.319 35.894 136.207 35.9C136.271 35.9 136.297 35.884 136.313 35.818C136.367 35.592 136.426 35.365 136.486 35.14C136.517 35.025 136.554 34.91 136.587 34.796C136.437 34.734 136.43 34.74 136.372 34.874C136.326 34.9826 136.273 35.0881 136.214 35.19C136.149 35.3079 136.058 35.4089 135.947 35.485C135.836 35.5611 135.709 35.61 135.576 35.628C135.172 35.6805 134.763 35.6859 134.357 35.644C134.094 35.621 133.979 35.506 133.93 35.244C133.914 35.1502 133.906 35.0552 133.906 34.96C133.902 34.474 133.904 33.987 133.899 33.5C133.899 33.431 133.923 33.416 133.987 33.417C134.285 33.42 134.583 33.417 134.881 33.421C134.976 33.422 135.072 33.435 135.164 33.455C135.293 33.481 135.377 33.565 135.416 33.69C135.437 33.756 135.448 33.827 135.458 33.895C135.468 33.966 135.472 34.038 135.478 34.108C135.622 34.123 135.622 34.123 135.619 33.995L135.617 33.936C135.584 33.4733 135.583 33.0089 135.613 32.546C135.614 32.53 135.609 32.514 135.607 32.501H135.475C135.469 32.551 135.464 32.594 135.457 32.639C135.415 32.922 135.24 33.104 134.962 33.114C134.617 33.126 134.271 33.116 133.925 33.116C133.921 33.116 133.917 33.111 133.907 33.106C133.906 33.092 133.902 33.076 133.902 33.059L133.901 31.127C133.901 31.064 133.928 31.054 133.981 31.055C134.27 31.058 134.56 31.054 134.849 31.059C134.967 31.061 135.085 31.073 135.2 31.094C135.52 31.151 135.741 31.331 135.842 31.644C135.873 31.739 135.896 31.838 135.923 31.932C136.063 31.92 136.063 31.92 136.063 31.789V30.937C136.063 30.823 136.063 30.824 135.95 30.824H132.586L132.502 30.827V31.007L132.596 31.015C132.692 31.025 132.787 31.029 132.88 31.046C133.053 31.077 133.134 31.161 133.164 31.335C133.178 31.417 133.187 31.503 133.187 31.586C133.188 32.737 133.189 33.886 133.185 35.037C133.185 35.163 133.169 35.292 133.146 35.419Z" fill="black"/>
<path id="Vector_4" d="M115.311 35.408C115.284 35.563 115.181 35.653 115.026 35.678C114.952 35.69 114.876 35.697 114.8 35.701C114.648 35.711 114.648 35.711 114.664 35.863C114.665 35.871 114.669 35.878 114.675 35.895H114.755L117.789 35.893C117.986 35.893 118.182 35.893 118.379 35.899C118.443 35.902 118.463 35.877 118.477 35.817C118.518 35.633 118.563 35.451 118.612 35.27C118.655 35.11 118.705 34.954 118.751 34.796C118.604 34.734 118.593 34.74 118.536 34.874C118.501 34.957 118.463 35.0384 118.421 35.118C118.263 35.417 118.022 35.614 117.681 35.633C117.291 35.654 116.901 35.657 116.511 35.639C116.25 35.629 116.14 35.502 116.095 35.245C116.078 35.1426 116.069 35.0389 116.068 34.935C116.064 34.458 116.065 33.979 116.064 33.501C116.064 33.476 116.068 33.452 116.07 33.425C116.095 33.423 116.113 33.419 116.132 33.419C116.447 33.419 116.762 33.417 117.076 33.421C117.162 33.423 117.249 33.436 117.334 33.455C117.391 33.4671 117.443 33.4945 117.486 33.5341C117.528 33.5738 117.559 33.6242 117.575 33.68C117.598 33.748 117.61 33.822 117.62 33.894C117.63 33.964 117.632 34.037 117.639 34.107C117.784 34.123 117.784 34.123 117.781 33.987C117.78 33.957 117.78 33.925 117.777 33.894C117.745 33.445 117.745 32.9942 117.776 32.545C117.777 32.531 117.772 32.515 117.771 32.497H117.639C117.635 32.522 117.631 32.544 117.629 32.565C117.578 32.957 117.398 33.116 117.001 33.118H116.158C116.128 33.118 116.099 33.115 116.07 33.113C116.068 33.092 116.064 33.082 116.064 33.07L116.063 31.121C116.063 31.061 116.087 31.051 116.138 31.053C116.354 31.053 116.571 31.049 116.787 31.055C116.98 31.06 117.175 31.064 117.366 31.094C117.502 31.1094 117.632 31.1624 117.74 31.2472C117.848 31.3319 117.931 31.4451 117.978 31.574C118.023 31.688 118.051 31.809 118.087 31.927C118.216 31.925 118.225 31.917 118.225 31.793V30.827C118.195 30.824 118.182 30.821 118.168 30.821H114.729C114.67 30.821 114.653 30.844 114.659 30.895C114.665 30.943 114.631 31.009 114.729 31.015C114.846 31.019 114.964 31.033 115.079 31.054C115.218 31.08 115.3 31.174 115.322 31.311C115.337 31.4 115.348 31.491 115.348 31.579C115.35 32.729 115.351 33.879 115.347 35.029C115.35 35.157 115.332 35.284 115.311 35.408Z" fill="black"/>
<path id="Vector_5" d="M108.823 31.0131C108.885 31.0102 108.947 31.0136 109.008 31.0231C109.257 31.0591 109.363 31.1681 109.39 31.4181C109.395 31.4681 109.397 31.5191 109.397 31.5701V35.1461C109.397 35.2111 109.394 35.2761 109.384 35.3391C109.354 35.5261 109.246 35.6451 109.06 35.6811C108.956 35.7031 108.85 35.7091 108.741 35.7211V35.8931C108.767 35.8941 108.787 35.8971 108.806 35.8971H112.437C112.494 35.8971 112.516 35.8791 112.528 35.8271C112.585 35.5811 112.646 35.3351 112.705 35.0891L112.776 34.7921C112.627 34.7401 112.627 34.7401 112.58 34.8701L112.537 34.9801C112.388 35.3621 112.119 35.5871 111.705 35.6351C111.375 35.6739 111.042 35.6729 110.713 35.6321C110.273 35.5771 110.11 35.4021 110.109 34.9571C110.106 33.8131 110.106 32.6691 110.109 31.5251C110.11 31.1651 110.239 31.0341 110.597 31.0141C110.631 31.0111 110.664 31.0131 110.699 31.0111C110.72 31.0111 110.741 31.0061 110.765 31.0041V30.8301H108.738C108.736 30.8621 108.736 30.8901 108.733 30.9171C108.722 30.9871 108.746 31.0171 108.823 31.0131Z" fill="black"/>
<path id="Vector_6" d="M122.534 35.7041L122.433 35.6981C122.157 35.6731 122.038 35.5521 122.017 35.2751C122.012 35.2132 122.01 35.1512 122.01 35.0891V31.6141C122.01 31.5441 122.013 31.4731 122.02 31.4041C122.041 31.1841 122.133 31.0801 122.346 31.0341C122.406 31.0211 122.469 31.0161 122.53 31.0141C122.685 31.0061 122.685 31.0081 122.672 30.8521C122.671 30.8451 122.666 30.8371 122.662 30.8291H120.643V31.0041C120.734 31.0101 120.821 31.0131 120.907 31.0231C121.159 31.0531 121.275 31.1771 121.294 31.4291C121.297 31.4851 121.299 31.5411 121.299 31.5991V35.1171C121.299 35.1791 121.299 35.2411 121.292 35.3021C121.268 35.5401 121.173 35.6421 120.942 35.6861C120.873 35.6991 120.801 35.6991 120.732 35.7051C120.702 35.7071 120.672 35.7111 120.644 35.7141V35.8901H122.666C122.696 35.7181 122.692 35.7141 122.534 35.7041Z" fill="black"/>
<path id="Vector_7" d="M102.93 31.4371C102.932 31.4821 102.934 31.5271 102.934 31.5711V35.1211C102.934 35.1811 102.932 35.2401 102.927 35.2981C102.91 35.5251 102.81 35.6421 102.586 35.6831C102.485 35.7011 102.381 35.7031 102.278 35.7131V35.8891H104.224V35.7101L104.043 35.6981C103.797 35.6741 103.674 35.5511 103.654 35.3041C103.649 35.2441 103.649 35.1811 103.649 35.1191V31.5941C103.649 31.5311 103.649 31.4691 103.654 31.4081C103.676 31.1621 103.794 31.0441 104.037 31.0181L104.195 31.0041V30.8291H102.276V31.0051C102.366 31.0111 102.449 31.0141 102.532 31.0231C102.789 31.0471 102.915 31.1791 102.93 31.4371Z" fill="black"/>
<path id="Vector_8" d="M106.443 35.3699C105.756 34.6119 105.065 33.8559 104.376 33.1009C104.364 33.0889 104.356 33.0749 104.343 33.0579L104.407 32.9889C104.599 32.7879 104.79 32.5849 104.983 32.3859C105.303 32.0579 105.62 31.7279 105.947 31.4069C106.13 31.2269 106.341 31.0799 106.602 31.0309C106.693 31.0149 106.785 31.0109 106.879 31.0009V30.8269H105.252C105.251 30.8589 105.251 30.8869 105.247 30.9129C105.235 30.9919 105.27 31.0149 105.345 31.0119C105.404 31.0094 105.463 31.0151 105.52 31.0289C105.644 31.0589 105.689 31.1449 105.632 31.2579C105.589 31.3402 105.535 31.4157 105.47 31.4819C104.895 32.0899 104.317 32.6959 103.741 33.3019L103.68 33.3699L103.721 33.4219C104.449 34.2329 105.177 35.0459 105.907 35.8539C105.932 35.8776 105.965 35.8911 106 35.8919C106.362 35.8939 106.724 35.8919 107.086 35.8919L107.162 35.8889V35.7029C106.855 35.7229 106.635 35.5829 106.443 35.3699Z" fill="black"/>
<path id="Vector_9" d="M114.042 43.7709C113.997 43.7759 113.952 43.7759 113.908 43.7789C113.884 43.7804 113.86 43.7824 113.836 43.7849V43.9579H115.863V43.7859C115.748 43.7729 115.636 43.7669 115.527 43.7489C115.349 43.7159 115.247 43.6069 115.218 43.4269C115.212 43.3852 115.208 43.3431 115.208 43.3009L115.206 41.6379C115.206 41.5819 115.225 41.5639 115.279 41.5659C115.448 41.5679 115.616 41.5689 115.785 41.5659C115.846 41.5639 115.882 41.5829 115.914 41.6359C116.073 41.8939 116.235 42.1499 116.399 42.4059C116.732 42.9279 117.074 43.4429 117.489 43.9059C117.505 43.926 117.526 43.9417 117.55 43.9518C117.574 43.9619 117.6 43.9661 117.626 43.9639C117.935 43.9599 118.244 43.9629 118.552 43.9629H118.701V43.7759C118.401 43.7819 118.18 43.6289 117.987 43.4259C117.893 43.3259 117.796 43.2249 117.718 43.1129C117.454 42.7379 117.196 42.3589 116.937 41.9809C116.812 41.7979 116.69 41.6129 116.569 41.4319C116.707 41.3639 116.848 41.3089 116.971 41.2309C117.407 40.9549 117.634 40.5609 117.584 40.0389C117.538 39.5449 117.254 39.2229 116.803 39.0389C116.518 38.931 116.215 38.88 115.911 38.8889H113.897C113.878 38.8889 113.859 38.8919 113.835 38.8949V39.0729L114.011 39.0829C114.378 39.1169 114.487 39.2339 114.489 39.6029C114.492 39.9449 114.491 40.2839 114.491 40.6249C114.491 41.5079 114.492 42.3919 114.489 43.2749C114.488 43.5849 114.347 43.7369 114.042 43.7709ZM115.205 40.2239C115.205 39.8989 115.206 39.5729 115.203 39.2469C115.203 39.1879 115.218 39.1649 115.28 39.1549C115.53 39.1139 115.778 39.1109 116.025 39.1609C116.478 39.2529 116.753 39.5379 116.817 39.9969C116.882 40.4679 116.757 40.8689 116.34 41.1389C116.073 41.3129 115.77 41.3489 115.459 41.3279C115.378 41.3229 115.27 41.3319 115.227 41.2859C115.185 41.2409 115.207 41.1329 115.206 41.0519C115.203 40.7759 115.205 40.5009 115.205 40.2239Z" fill="black"/>
<path id="Vector_10" d="M136.778 38.8901C136.208 38.8889 135.637 38.8889 135.067 38.8901C135.051 38.8901 135.035 38.8951 135.015 38.8961C135.013 38.9195 135.011 38.9428 135.008 38.9661C134.997 39.0481 135.02 39.0851 135.113 39.0861C135.225 39.0871 135.338 39.1031 135.447 39.1271C135.643 39.1701 135.786 39.2831 135.835 39.4831C135.867 39.6191 135.887 39.7601 135.888 39.9001C135.893 40.8561 135.891 41.8131 135.891 42.7701C135.891 42.7901 135.886 42.8101 135.882 42.8401L135.812 42.7701C134.962 41.8531 134.109 40.9371 133.263 40.0171C132.946 39.6711 132.642 39.3141 132.336 38.9581C132.297 38.9131 132.265 38.8911 132.204 38.8911C131.831 38.8931 131.457 38.8931 131.084 38.8931C131.065 38.8931 131.046 38.8971 131.025 38.8991V39.0751C131.107 39.0811 131.185 39.0861 131.263 39.0951C131.622 39.1321 131.829 39.3161 131.894 39.6571C131.908 39.7281 131.913 39.8031 131.913 39.8751C131.914 40.8961 131.914 41.9171 131.911 42.9391C131.911 43.0761 131.889 43.2141 131.862 43.3481C131.806 43.6201 131.655 43.7481 131.379 43.7701C131.301 43.7761 131.224 43.7771 131.146 43.7801V43.9551H131.589C132.058 43.9591 132.528 43.9611 132.997 43.9681C133.062 43.9681 133.08 43.9451 133.075 43.8841C133.07 43.8311 133.091 43.7741 132.997 43.7741C132.874 43.7713 132.751 43.7573 132.63 43.7321C132.457 43.6981 132.328 43.5941 132.287 43.4221C132.245 43.2585 132.221 43.0908 132.216 42.9221C132.207 41.9301 132.209 40.9361 132.208 39.9431C132.208 39.9251 132.213 39.9071 132.221 39.8571C132.252 39.8981 132.266 39.9221 132.284 39.9421C133.5 41.2761 134.716 42.6091 135.93 43.9451C136 44.0221 136.069 44.0511 136.179 44.0211V43.9111C136.179 42.5691 136.179 41.2271 136.181 39.8851C136.181 39.7691 136.187 39.6531 136.199 39.5401C136.233 39.2441 136.364 39.1161 136.658 39.0871C136.705 39.0821 136.753 39.0841 136.801 39.0791C136.819 39.0771 136.853 39.0711 136.853 39.0651C136.859 39.0151 136.863 38.9651 136.855 38.9151C136.854 38.9021 136.806 38.8901 136.778 38.8901Z" fill="black"/>
<path id="Vector_11" d="M111.447 43.9679C111.52 43.9679 111.546 43.9469 111.562 43.8759C111.611 43.6589 111.667 43.4439 111.724 43.2299C111.758 43.1069 111.797 42.9849 111.833 42.8629C111.678 42.8039 111.676 42.8079 111.616 42.9449C111.57 43.0533 111.518 43.1588 111.459 43.2609C111.389 43.3876 111.289 43.4946 111.167 43.572C111.045 43.6495 110.905 43.6948 110.761 43.7039C110.473 43.7259 110.183 43.7269 109.894 43.7309C109.776 43.7308 109.658 43.7208 109.542 43.7009C109.346 43.6709 109.221 43.5579 109.186 43.3589C109.167 43.2486 109.155 43.1369 109.153 43.0249C109.148 42.5409 109.149 42.0569 109.148 41.5729C109.148 41.5459 109.152 41.5199 109.154 41.4859C109.39 41.4859 109.617 41.4829 109.845 41.4869C110.005 41.4879 110.166 41.4879 110.325 41.5049C110.541 41.5269 110.649 41.6349 110.688 41.8519C110.708 41.9589 110.715 42.0679 110.729 42.1789H110.853V40.5699C110.724 40.5519 110.724 40.5519 110.709 40.6569C110.658 41.0259 110.478 41.1849 110.105 41.1869C109.819 41.1869 109.532 41.1839 109.245 41.1889C109.166 41.1889 109.145 41.1669 109.147 41.0899C109.149 40.4659 109.148 39.8409 109.149 39.2169C109.149 39.1889 109.152 39.1619 109.153 39.1389C109.164 39.1319 109.169 39.1269 109.174 39.1289C109.569 39.1339 109.967 39.1209 110.362 39.1509C110.786 39.1829 111.028 39.4209 111.128 39.8409C111.142 39.8939 111.154 39.9479 111.166 40.0009C111.308 39.9909 111.31 39.9889 111.31 39.8619V38.9919C111.31 38.9609 111.306 38.9279 111.305 38.8999H107.748C107.746 38.9229 107.743 38.9399 107.743 38.9559C107.739 39.0809 107.739 39.0789 107.861 39.0889C107.961 39.0969 108.062 39.1059 108.161 39.1249C108.223 39.134 108.28 39.1629 108.324 39.2072C108.368 39.2515 108.397 39.309 108.406 39.3709C108.423 39.4589 108.432 39.5489 108.432 39.6389C108.434 40.7959 108.434 41.9509 108.432 43.1079C108.432 43.2079 108.424 43.3109 108.41 43.4099C108.379 43.6269 108.284 43.7229 108.068 43.7519C107.963 43.7669 107.857 43.7739 107.748 43.7839C107.746 43.8079 107.743 43.8309 107.743 43.8519C107.741 43.9649 107.741 43.9649 107.857 43.9619C108.15 43.9579 108.441 43.9499 108.734 43.9519C109.638 43.9549 110.543 43.9599 111.447 43.9679Z" fill="black"/>
<path id="Vector_12" d="M104.286 43.8719C104.298 43.7929 104.265 43.7699 104.19 43.7709C104.108 43.771 104.027 43.763 103.947 43.7469C103.764 43.7149 103.669 43.6219 103.635 43.4399C103.623 43.3679 103.618 43.2949 103.619 43.2219L103.618 39.2389V39.1259C103.754 39.1259 103.881 39.1179 104.005 39.1269C104.424 39.1569 104.774 39.3239 104.965 39.7129C105.195 40.1829 105.188 40.6649 104.937 41.1309C104.879 41.2488 104.79 41.3494 104.681 41.4231C104.572 41.4967 104.446 41.5407 104.315 41.5509C104.196 41.5629 104.074 41.5539 103.945 41.5539C103.945 41.6129 103.948 41.6689 103.944 41.7239C103.942 41.7709 103.962 41.7879 104.007 41.7879C104.105 41.7869 104.205 41.7919 104.302 41.7909C104.703 41.7917 105.09 41.6459 105.39 41.3809C106.126 40.7509 106.068 39.4629 104.984 39.0579C104.664 38.9421 104.325 38.8851 103.985 38.8899H102.325C102.306 38.8899 102.288 38.8949 102.265 38.8969V39.0739C102.355 39.0819 102.441 39.0859 102.527 39.0999C102.738 39.1329 102.844 39.2339 102.875 39.4419C102.894 39.5619 102.9 39.6819 102.9 39.8019L102.901 43.1789C102.901 43.2409 102.9 43.3029 102.895 43.3639C102.878 43.5989 102.772 43.7159 102.541 43.7539C102.443 43.7709 102.342 43.7739 102.243 43.7839V43.9589H104.284C104.285 43.9279 104.283 43.8989 104.286 43.8719Z" fill="black"/>
<path id="Vector_13" d="M139.889 43.75C139.514 43.574 139.311 43.255 139.19 42.874C139.152 42.754 139.124 42.738 138.995 42.784C139.041 43.114 139.085 43.445 139.134 43.776C139.138 43.803 139.173 43.841 139.2 43.849C139.391 43.913 139.582 43.986 139.779 44.025C140.256 44.121 140.721 44.078 141.166 43.859C142.167 43.367 142.244 41.985 141.311 41.419C141.134 41.31 140.948 41.217 140.768 41.113C140.55 40.987 140.322 40.873 140.117 40.727C139.806 40.504 139.687 40.185 139.729 39.804C139.781 39.331 140.1 39.031 140.572 39.015C141.01 39 141.344 39.215 141.479 39.602C141.502 39.671 141.518 39.742 141.538 39.815H141.699C141.662 39.515 141.626 39.219 141.587 38.925C141.584 38.91 141.554 38.888 141.536 38.885C141.192 38.826 140.85 38.764 140.498 38.79C139.745 38.845 139.24 39.289 139.153 40.003C139.092 40.499 139.212 40.941 139.603 41.283C139.833 41.484 140.11 41.613 140.374 41.763C140.566 41.873 140.765 41.98 140.936 42.118C141.124 42.2702 141.248 42.4864 141.286 42.7249C141.323 42.9634 141.272 43.2075 141.14 43.41C140.889 43.8 140.328 43.955 139.889 43.75Z" fill="black"/>
<path id="Vector_14" d="M127.219 43.7719C127.068 43.7789 127.068 43.7789 127.083 43.9319C127.084 43.9389 127.088 43.947 127.091 43.958H129.111V43.7859C129.001 43.7739 128.895 43.767 128.791 43.75C128.596 43.716 128.495 43.6099 128.47 43.4139C128.46 43.339 128.456 43.2635 128.456 43.188V39.6519C128.456 39.5939 128.458 39.5339 128.465 39.4759C128.497 39.2229 128.611 39.1159 128.866 39.0929C128.946 39.0849 129.027 39.0809 129.11 39.0749V38.8979H127.089V39.0729C127.177 39.0789 127.257 39.083 127.338 39.091C127.591 39.116 127.703 39.2259 127.735 39.4779C127.741 39.5229 127.743 39.5679 127.743 39.6119C127.743 40.8189 127.745 42.0259 127.743 43.2319C127.742 43.6289 127.614 43.7569 127.219 43.7719Z" fill="black"/>
<path id="Vector_15" d="M120.886 39.4769C120.891 39.5269 120.892 39.5769 120.892 39.6289V43.2059C120.892 43.2709 120.889 43.3359 120.882 43.3999C120.857 43.6069 120.753 43.7189 120.546 43.7519C120.444 43.7689 120.341 43.7749 120.24 43.7849V43.9589H122.185V43.7859C122.095 43.7749 122.005 43.7669 121.917 43.7509C121.768 43.7239 121.666 43.6379 121.636 43.4859C121.618 43.3926 121.608 43.2979 121.607 43.2029L121.606 39.6499C121.606 39.5829 121.609 39.5139 121.617 39.4479C121.646 39.2259 121.765 39.1119 121.987 39.0929L122.15 39.0759V38.8999H120.236V39.0779C120.327 39.0839 120.411 39.0879 120.494 39.0949C120.738 39.1159 120.861 39.2349 120.886 39.4769Z" fill="black"/>
<path id="Vector_16" d="M123.569 39.379C123.527 39.4455 123.478 39.5072 123.423 39.563L121.703 41.372C121.681 41.3956 121.659 41.4196 121.638 41.444C121.757 41.574 121.873 41.701 121.987 41.828C122.612 42.525 123.237 43.223 123.864 43.917C123.896 43.9451 123.937 43.9605 123.979 43.96C124.325 43.964 124.67 43.962 125.016 43.962H125.122V43.774C124.829 43.786 124.607 43.66 124.416 43.451C123.725 42.689 123.029 41.93 122.336 41.17C122.325 41.158 122.317 41.144 122.305 41.129C122.315 41.115 122.323 41.104 122.333 41.094C122.81 40.598 123.284 40.096 123.767 39.607C123.912 39.461 124.083 39.337 124.253 39.219C124.424 39.101 124.629 39.079 124.837 39.075V38.897H123.209V39.073C123.286 39.079 123.357 39.083 123.425 39.09C123.608 39.111 123.664 39.22 123.569 39.379Z" fill="black"/>
<path id="Vector_17" d="M149.338 49.3849C149.298 48.3979 148.804 47.6849 147.931 47.2379C147.441 46.9879 146.912 46.9079 146.367 46.9099C145.704 46.9119 145.042 46.9099 144.379 46.9119C144.361 46.9119 144.345 46.9159 144.324 46.9179V47.0949C144.407 47.0989 144.487 47.0999 144.566 47.1059C144.799 47.1269 144.923 47.2359 144.964 47.4679C144.982 47.5706 144.991 47.6747 144.99 47.7789L144.991 51.1899C144.991 51.2499 144.989 51.3099 144.983 51.3679C144.955 51.6069 144.85 51.7159 144.612 51.7539L144.323 51.7969V51.9749C144.348 51.9779 144.365 51.9799 144.382 51.9799C145.048 51.9799 145.714 51.9829 146.38 51.9799C146.848 51.9869 147.312 51.9086 147.752 51.7489C148.233 51.5748 148.647 51.2517 148.932 50.8265C149.217 50.4014 149.359 49.8964 149.338 49.3849ZM148.282 50.7029C148.013 51.2649 147.553 51.5909 146.944 51.7039C146.676 51.7539 146.407 51.7739 146.138 51.7159C145.868 51.6559 145.715 51.4859 145.71 51.2099C145.702 50.7419 145.705 50.2759 145.704 49.8079V49.2279C145.704 48.5749 145.705 47.9229 145.702 47.2719C145.702 47.1899 145.726 47.1659 145.806 47.1609C146.184 47.1359 146.561 47.1239 146.93 47.2239C147.721 47.4399 148.23 47.9479 148.443 48.7339C148.624 49.4049 148.584 50.0709 148.282 50.7029Z" fill="black"/>
<path id="Vector_18" d="M120.448 46.9201C120.428 46.9161 120.419 46.9121 120.411 46.9121L118.868 46.9111C118.808 46.9111 118.798 46.9411 118.803 46.9891C118.808 47.0361 118.777 47.1041 118.868 47.1051C118.954 47.1061 119.041 47.1101 119.126 47.1201C119.322 47.1431 119.416 47.2231 119.446 47.4201C119.472 47.5851 119.487 47.7521 119.488 47.9171C119.493 48.7301 119.493 49.5431 119.49 50.3561C119.49 50.5195 119.474 50.6825 119.445 50.8431C119.352 51.3111 119.08 51.6231 118.611 51.7411C118.368 51.8013 118.114 51.8109 117.867 51.7691C117.361 51.6891 117.02 51.4031 116.871 50.9131C116.806 50.7031 116.769 50.485 116.763 50.2651C116.751 49.3781 116.757 48.4911 116.756 47.6041C116.756 47.5631 116.758 47.5201 116.762 47.4791C116.784 47.2721 116.892 47.1551 117.098 47.1221C117.177 47.1101 117.258 47.1091 117.337 47.1021L117.404 47.0941C117.434 46.9111 117.434 46.9141 117.262 46.9141H115.387V47.0941C115.495 47.1041 115.595 47.1071 115.694 47.1241C115.898 47.1571 116.004 47.2701 116.028 47.4741C116.037 47.5471 116.04 47.6211 116.04 47.6961C116.042 48.5261 116.039 49.3561 116.043 50.1881C116.044 50.3571 116.051 50.5281 116.079 50.6941C116.183 51.3181 116.519 51.7611 117.129 51.9621C117.658 52.138 118.229 52.1426 118.761 51.9751C119.19 51.8431 119.516 51.5791 119.711 51.1681C119.834 50.9101 119.879 50.6351 119.88 50.3531C119.881 49.5191 119.88 48.6861 119.884 47.8531C119.884 47.7221 119.896 47.5901 119.919 47.4621C119.957 47.2381 120.078 47.1341 120.304 47.1091L120.448 47.0961V46.9201Z" fill="black"/>
<path id="Vector_19" d="M136.088 51.2701C136.024 51.3886 135.933 51.4904 135.822 51.567C135.711 51.6436 135.584 51.693 135.45 51.7111C135.049 51.7659 134.643 51.7723 134.24 51.7301C133.955 51.7041 133.845 51.5861 133.798 51.3051C133.788 51.2496 133.783 51.1934 133.782 51.1371C133.778 50.6151 133.777 50.0951 133.775 49.5741C133.775 49.5521 133.782 49.5291 133.784 49.5201C134.171 49.5201 134.548 49.5081 134.925 49.5231C135.171 49.5331 135.283 49.6581 135.32 49.9031C135.335 50.0001 135.341 50.0981 135.352 50.2031C135.401 50.2001 135.443 50.1991 135.475 50.1961V48.5881H135.35L135.335 48.6681C135.281 49.0511 135.106 49.2061 134.723 49.2081H133.867C133.839 49.2081 133.81 49.2031 133.784 49.2011V47.1351C134.196 47.1451 134.601 47.1391 135.002 47.1731C135.403 47.2081 135.655 47.4461 135.748 47.8431L135.79 48.0191C135.934 48.0071 135.934 48.0071 135.934 47.8791V47.0321C135.934 46.9121 135.934 46.9131 135.811 46.9131H132.377C132.374 46.9411 132.371 46.9581 132.371 46.9741C132.369 47.0131 132.371 47.0511 132.371 47.0961C132.491 47.1061 132.597 47.1101 132.703 47.1241C132.929 47.1541 133.029 47.2581 133.049 47.4841C133.056 47.5701 133.062 47.6561 133.062 47.7441C133.064 48.8331 133.064 49.9211 133.062 51.0111C133.062 51.1351 133.057 51.2611 133.044 51.3851C133.017 51.6401 132.915 51.7441 132.662 51.7751C132.569 51.7861 132.473 51.7891 132.379 51.7961V51.9711H132.858C133.928 51.9751 134.998 51.9781 136.068 51.9841C136.147 51.9841 136.173 51.9581 136.188 51.8841C136.229 51.6991 136.276 51.5141 136.326 51.3311C136.367 51.1791 136.414 51.0301 136.461 50.8711C136.408 50.8626 136.355 50.8536 136.302 50.8441C136.229 50.9901 136.166 51.1341 136.088 51.2701Z" fill="black"/>
<path id="Vector_20" d="M113.619 51.787C113.344 51.772 113.16 51.645 113.066 51.378C112.787 50.591 112.499 49.807 112.214 49.021C111.943 48.271 111.67 47.523 111.398 46.774C111.371 46.697 111.28 46.674 111.233 46.735C111.138 46.8501 111.018 46.9419 110.882 47.003C110.87 47.0114 110.86 47.0223 110.853 47.0349C110.846 47.0475 110.841 47.0615 110.84 47.076C110.852 47.3056 110.814 47.5351 110.73 47.749C110.435 48.575 110.141 49.401 109.843 50.227C109.706 50.61 109.56 50.991 109.417 51.372C109.381 51.4883 109.309 51.59 109.211 51.6624C109.113 51.7349 108.995 51.7743 108.873 51.775C108.777 51.78 108.737 51.817 108.756 51.912C108.76 51.932 108.761 51.952 108.764 51.974H110.489C110.492 51.954 110.496 51.937 110.497 51.92C110.502 51.791 110.502 51.793 110.377 51.791C110.279 51.789 110.179 51.79 110.084 51.776C109.924 51.753 109.847 51.666 109.841 51.507C109.834 51.4271 109.839 51.3465 109.856 51.268C109.953 50.904 110.06 50.542 110.158 50.178C110.179 50.1 110.213 50.076 110.292 50.076C110.771 50.079 111.249 50.078 111.728 50.078C111.897 50.078 111.898 50.078 111.952 50.238C112.086 50.633 112.224 51.026 112.348 51.423C112.417 51.646 112.334 51.755 112.104 51.783C112.045 51.791 111.985 51.79 111.925 51.793C111.899 51.793 111.874 51.797 111.848 51.8V51.975H113.732L113.738 51.915C113.738 51.795 113.738 51.793 113.619 51.787ZM110.294 49.773L110.99 47.663L111.016 47.66L111.786 49.773H110.294Z" fill="black"/>
<path id="Vector_21" d="M125.876 46.9119C125.104 46.9159 124.33 46.9199 123.558 46.9209C123.224 46.9209 122.892 46.9129 122.56 46.9119C122.506 46.9119 122.428 46.8769 122.432 46.9889C122.437 47.1009 122.431 47.0989 122.552 47.1049C122.627 47.1089 122.701 47.1119 122.774 47.1219C122.985 47.1519 123.079 47.2449 123.106 47.4559C123.119 47.5529 123.124 47.6509 123.124 47.7489V51.0259C123.124 51.1359 123.119 51.2459 123.108 51.3559C123.077 51.6559 122.965 51.7609 122.663 51.7819C122.589 51.7869 122.516 51.7899 122.442 51.7929V51.9709H124.49V51.7919C124.386 51.7839 124.287 51.7819 124.191 51.7669C123.987 51.7389 123.88 51.6289 123.852 51.4239C123.843 51.362 123.838 51.2995 123.838 51.2369V49.5939C123.838 49.5649 123.84 49.5359 123.843 49.5079C123.857 49.5029 123.865 49.4979 123.873 49.4979C124.209 49.4979 124.545 49.4979 124.881 49.5019C124.943 49.5019 125.005 49.5159 125.067 49.5259C125.143 49.535 125.215 49.5672 125.272 49.6181C125.33 49.669 125.37 49.7363 125.388 49.8109C125.411 49.8909 125.427 49.9719 125.441 50.0539C125.461 50.1749 125.476 50.1849 125.599 50.1449C125.591 49.8889 125.577 49.6339 125.577 49.3789C125.577 49.1239 125.591 48.8689 125.599 48.6079H125.445C125.418 48.7149 125.394 48.8219 125.36 48.9259C125.317 49.0659 125.222 49.1669 125.075 49.1739C124.67 49.1899 124.263 49.1899 123.857 49.1969C123.854 49.1969 123.852 49.1939 123.844 49.1889V47.1329C124.263 47.1429 124.67 47.1459 125.077 47.1659C125.198 47.1762 125.317 47.2066 125.429 47.2559C125.703 47.3699 125.813 47.6039 125.856 47.8799C125.86 47.9069 125.87 47.9459 125.889 47.9559C125.952 47.9879 126.035 47.9249 126.032 47.8499L125.998 47.0289C125.99 46.9109 125.99 46.9119 125.876 46.9119Z" fill="black"/>
<path id="Vector_22" d="M106.616 50.681C106.415 51.533 105.634 52.016 104.784 51.814C104.207 51.678 103.768 51.346 103.448 50.855C103.004 50.175 102.916 49.427 103.084 48.645C103.199 48.101 103.479 47.66 103.955 47.359C104.444 47.05 104.977 46.969 105.54 47.082C105.857 47.147 106.135 47.288 106.338 47.549C106.477 47.727 106.558 47.929 106.599 48.149C106.611 48.213 106.637 48.236 106.699 48.227C106.728 48.223 106.756 48.227 106.787 48.227V48.143C106.769 47.853 106.746 47.561 106.731 47.27C106.728 47.206 106.704 47.176 106.645 47.158C106.403 47.085 106.165 47.002 105.922 46.934C105.266 46.753 104.612 46.743 103.97 46.995C103.219 47.29 102.668 47.795 102.388 48.565C102.196 49.095 102.213 49.636 102.355 50.174C102.575 51.02 103.096 51.604 103.919 51.905C104.513 52.1199 105.158 52.1502 105.77 51.992C106.038 51.926 106.297 51.829 106.56 51.746C106.616 51.729 106.643 51.69 106.651 51.628C106.664 51.508 106.688 51.387 106.707 51.266L106.803 50.646C106.749 50.6313 106.695 50.6169 106.641 50.603C106.631 50.6283 106.622 50.6543 106.616 50.681Z" fill="black"/>
<path id="Vector_23" d="M142.255 51.072C142.128 51.384 141.926 51.619 141.583 51.689C141.135 51.779 140.684 51.779 140.239 51.673C139.986 51.612 139.868 51.457 139.843 51.197C139.836 51.1255 139.832 51.0538 139.831 50.982V47.67C139.831 47.599 139.836 47.527 139.846 47.456C139.872 47.266 139.976 47.156 140.164 47.122C140.238 47.11 140.312 47.109 140.386 47.102C140.419 47.0999 140.453 47.0986 140.486 47.098V46.918H138.462V47.094C138.567 47.104 138.672 47.107 138.773 47.122C138.972 47.152 139.075 47.253 139.106 47.451C139.117 47.5305 139.121 47.6107 139.12 47.691C139.122 48.861 139.122 50.03 139.12 51.199C139.12 51.246 139.12 51.295 139.117 51.342C139.098 51.617 138.962 51.758 138.686 51.785C138.613 51.792 138.54 51.792 138.463 51.796V51.976C138.486 51.978 138.499 51.98 138.514 51.98C139.729 51.98 140.946 51.98 142.161 51.982C142.225 51.982 142.24 51.952 142.252 51.901C142.304 51.678 142.36 51.455 142.414 51.233L142.498 50.869L142.344 50.842L142.255 51.072Z" fill="black"/>
<path id="Vector_24" d="M129.996 47.1041C130.137 47.1001 130.137 47.1001 130.13 46.9591C130.129 46.9461 130.124 46.9321 130.12 46.9121H128.245C128.077 46.9121 128.074 46.9131 128.107 47.0921C128.208 47.1021 128.312 47.1061 128.414 47.1221C128.605 47.1521 128.703 47.2481 128.739 47.4381C128.753 47.5081 128.755 47.5801 128.755 47.6511V51.2311C128.755 51.2851 128.755 51.3381 128.75 51.3911C128.728 51.6211 128.622 51.7361 128.397 51.7721C128.324 51.784 128.249 51.7897 128.175 51.7891C128.112 51.7871 128.088 51.8111 128.095 51.8721C128.099 51.9051 128.099 51.9401 128.1 51.9741H130.126V51.7901H130C129.597 51.7751 129.47 51.6471 129.469 51.2411V47.6441C129.469 47.2441 129.598 47.1141 129.996 47.1041Z" fill="black"/>
<path id="Vector_25" d="M124.464 59.4229C124.274 59.1991 124.095 58.9669 123.926 58.7269C123.643 58.3219 123.373 57.9069 123.098 57.4959C123.236 57.4269 123.373 57.3739 123.494 57.2959C123.899 57.0359 124.123 56.6709 124.093 56.1799C124.063 55.6729 123.786 55.3399 123.326 55.1499C123.042 55.0339 122.742 55.0039 122.437 55.0039L120.493 55.0049C120.47 55.0049 120.449 55.0099 120.428 55.0119V55.1929C120.494 55.1929 120.555 55.1889 120.614 55.1929C120.936 55.2169 121.06 55.3459 121.068 55.6679L121.069 55.7549V56.5499C121.069 57.4609 121.07 58.3729 121.068 59.2829C121.068 59.6119 120.912 59.7699 120.584 59.7829C120.534 59.7859 120.481 59.7829 120.428 59.7829V59.9629H122.404V59.7829H122.295C121.895 59.7769 121.765 59.6449 121.765 59.2429C121.763 58.7359 121.765 58.2299 121.765 57.7229C121.765 57.6929 121.767 57.6609 121.77 57.6209C121.953 57.6209 122.13 57.6249 122.307 57.6209C122.382 57.6179 122.427 57.6409 122.466 57.7069C122.621 57.9639 122.781 58.2169 122.944 58.4689C123.266 58.9709 123.596 59.4679 123.994 59.9139C124.01 59.9338 124.031 59.9496 124.054 59.9599C124.078 59.9701 124.103 59.9746 124.129 59.9729C124.432 59.9689 124.733 59.9709 125.035 59.9709H125.179V59.7959C125.102 59.7829 125.031 59.7789 124.961 59.7599C124.764 59.7036 124.589 59.5855 124.464 59.4229ZM122.977 57.1349C122.778 57.2948 122.533 57.3848 122.278 57.3909C122.137 57.3989 121.994 57.3809 121.853 57.3759C121.788 57.3739 121.763 57.3489 121.765 57.2789C121.768 56.9589 121.766 56.6399 121.766 56.3189C121.766 55.9989 121.767 55.6789 121.765 55.3589C121.763 55.2919 121.785 55.2699 121.85 55.2619C122.118 55.2239 122.382 55.2189 122.645 55.2919C123.038 55.3999 123.272 55.6539 123.336 56.0569C123.403 56.4759 123.318 56.8499 122.977 57.1349Z" fill="black"/>
<path id="Vector_26" d="M105.275 57.4981C105.016 57.3677 104.73 57.3008 104.44 57.3031C104.606 57.2371 104.759 57.1891 104.903 57.1191C105.198 56.9761 105.433 56.7691 105.531 56.4431C105.687 55.9251 105.441 55.4231 104.924 55.1951C104.581 55.0441 104.219 55.0051 103.851 55.0051H102.247C102.227 55.0051 102.208 55.0091 102.182 55.0131V55.1031L102.186 55.1931C102.248 55.1931 102.3 55.1911 102.352 55.1931C102.699 55.2131 102.825 55.3431 102.829 55.6901V59.3031C102.829 59.5971 102.681 59.7551 102.387 59.7801C102.321 59.7851 102.255 59.7811 102.189 59.7811V59.9611C102.342 59.9611 102.491 59.9591 102.639 59.9611C103.151 59.9641 103.661 59.9731 104.174 59.9691C104.563 59.9651 104.943 59.9081 105.299 59.7351C105.882 59.4531 106.154 58.8791 105.982 58.2821C105.873 57.9101 105.613 57.6661 105.275 57.4981ZM103.529 55.2491C103.851 55.2291 104.17 55.2091 104.471 55.3481C104.687 55.4471 104.802 55.6281 104.846 55.8531C104.891 56.0911 104.891 56.3331 104.832 56.5701C104.735 56.9621 104.496 57.1811 104.095 57.2301C103.912 57.2551 103.726 57.2521 103.529 57.2621V55.2491ZM105.247 59.0231C105.194 59.2171 105.081 59.3895 104.925 59.5161C104.769 59.6428 104.577 59.7173 104.376 59.7291C104.191 59.741 104.006 59.7316 103.823 59.7011C103.644 59.6741 103.561 59.5621 103.539 59.3831C103.531 59.3224 103.526 59.2613 103.525 59.2001V57.5681C103.525 57.5431 103.529 57.5171 103.531 57.4811C103.867 57.4861 104.192 57.4611 104.512 57.5471C104.916 57.6571 105.162 57.9151 105.25 58.3231C105.298 58.5561 105.313 58.7911 105.247 59.0231Z" fill="black"/>
<path id="Vector_27" d="M118.054 58.9551C118.005 59.0796 117.945 59.1994 117.875 59.3131C117.811 59.4212 117.723 59.5132 117.618 59.5821C117.512 59.6509 117.393 59.6947 117.268 59.7101C116.875 59.7661 116.478 59.7631 116.085 59.7251C115.81 59.7001 115.708 59.5851 115.662 59.3101C115.655 59.2641 115.647 59.2181 115.647 59.1721C115.642 58.6511 115.639 58.1291 115.636 57.6091C115.636 57.5931 115.64 57.5761 115.642 57.5491H116.035C116.256 57.5491 116.478 57.5451 116.699 57.5531C116.991 57.5641 117.11 57.6781 117.153 57.9681C117.165 58.0531 117.171 58.1391 117.18 58.2231C117.319 58.2401 117.316 58.2391 117.316 58.1081L117.309 56.6951C117.309 56.6811 117.306 56.6671 117.304 56.6551C117.182 56.6331 117.182 56.6331 117.164 56.7471C117.107 57.1021 116.929 57.2531 116.571 57.2551H115.725C115.698 57.2551 115.67 57.2511 115.646 57.2501C115.641 57.2351 115.637 57.2301 115.637 57.2251L115.635 55.2951C115.635 55.2421 115.661 55.2331 115.706 55.2331C116.052 55.2381 116.397 55.2321 116.743 55.2491C117.181 55.2711 117.434 55.4731 117.558 55.8751C117.58 55.9461 117.594 56.0211 117.611 56.0921C117.749 56.0801 117.749 56.0801 117.749 55.9551V55.1341C117.749 55.0041 117.749 55.0071 117.624 55.0071H114.344C114.322 55.0071 114.3 55.0091 114.274 55.0121V55.1831C114.401 55.1971 114.52 55.2031 114.637 55.2241C114.815 55.2571 114.898 55.3411 114.922 55.5181C114.937 55.6331 114.943 55.7491 114.943 55.8661V58.9661C114.943 59.0831 114.942 59.1991 114.933 59.3161C114.906 59.6641 114.796 59.7691 114.446 59.7841L114.275 59.7921V59.9751H114.373C114.535 59.9731 114.699 59.9651 114.861 59.9671C115.867 59.9691 116.874 59.9731 117.879 59.9791C117.954 59.9791 117.983 59.9601 118.001 59.8841C118.05 59.6641 118.11 59.4441 118.168 59.2251C118.198 59.1131 118.234 59.0041 118.267 58.8891C118.244 58.8841 118.225 58.8831 118.21 58.8771C118.123 58.8431 118.086 58.8731 118.054 58.9551Z" fill="black"/>
<path id="Vector_28" d="M112.494 55.01C112.14 55.01 111.785 55.012 111.43 55.01C111.272 55.008 111.27 55.005 111.289 55.166C111.289 55.171 111.294 55.176 111.303 55.192H111.451C111.506 55.195 111.562 55.197 111.616 55.207C111.77 55.234 111.83 55.331 111.775 55.478C111.743 55.5655 111.699 55.6485 111.646 55.725C111.311 56.19 110.972 56.651 110.634 57.115C110.62 57.134 110.602 57.151 110.584 57.174C110.565 57.151 110.551 57.136 110.54 57.12C110.224 56.675 109.905 56.23 109.592 55.782C109.515 55.6733 109.445 55.559 109.385 55.44C109.323 55.319 109.364 55.246 109.496 55.217C109.578 55.2 109.661 55.195 109.744 55.183V55.013H107.905V55.19L108.015 55.197C108.208 55.212 108.38 55.251 108.507 55.427C109.004 56.124 109.509 56.813 110.01 57.507C110.031 57.5375 110.042 57.5732 110.044 57.61C110.045 58.181 110.047 58.751 110.044 59.322C110.043 59.623 109.913 59.758 109.613 59.782L109.408 59.792V59.968H111.383V59.785H111.264C110.875 59.775 110.746 59.647 110.745 59.26C110.742 58.675 110.744 58.09 110.746 57.505C110.746 57.467 110.758 57.423 110.781 57.393C111.244 56.763 111.711 56.133 112.177 55.506C112.303 55.334 112.452 55.196 112.685 55.192V55.01H112.494Z" fill="black"/>
<path id="Vector_29" d="M129.414 57.5379C129.205 57.3979 128.98 57.2809 128.758 57.1599C128.517 57.0299 128.272 56.9129 128.068 56.7219C127.653 56.3339 127.735 55.6649 128.019 55.3749C128.267 55.1219 128.573 55.0839 128.899 55.1569C129.243 55.2339 129.441 55.4649 129.529 55.7989C129.564 55.9319 129.564 55.9319 129.705 55.9069C129.708 55.9019 129.712 55.8969 129.711 55.8929C129.678 55.6097 129.644 55.3266 129.607 55.0439C129.605 55.0269 129.576 55.0039 129.556 55.0009C129.474 54.9829 129.39 54.9709 129.307 54.9579C129.037 54.9149 128.766 54.8809 128.491 54.9119C127.773 54.9909 127.316 55.4069 127.229 56.0919C127.172 56.5359 127.265 56.9449 127.592 57.2759C127.801 57.4859 128.057 57.6219 128.314 57.7589C128.557 57.8879 128.809 58.0059 129.013 58.1979C129.18 58.356 129.286 58.568 129.313 58.7967C129.339 59.0253 129.284 59.2559 129.157 59.4479C128.899 59.8259 128.357 59.9639 127.935 59.7559C127.579 59.5809 127.384 59.2769 127.269 58.9119C127.228 58.7819 127.224 58.7799 127.083 58.8099C127.082 58.8199 127.078 58.8319 127.079 58.8429C127.121 59.1579 127.162 59.4719 127.209 59.7849C127.213 59.8139 127.248 59.8499 127.276 59.8619C127.601 60.0089 127.944 60.0799 128.3 60.0789C128.673 60.0789 129.023 59.9849 129.343 59.7839C130.154 59.2719 130.192 58.0639 129.414 57.5379Z" fill="black"/>
<path id="Vector_30" d="M78.547 45.428C78.27 45.358 77.99 45.304 77.707 45.243C77.721 45.203 77.723 45.184 77.73 45.182C77.844 45.148 77.957 45.108 78.073 45.085C80.016 44.693 81.198 43.512 81.52 41.567C81.876 39.421 81.89 37.255 81.516 35.109C81.231 33.466 80.438 32.127 78.858 31.392C77.883 30.938 76.839 30.822 75.779 30.82C72.675 30.817 69.57 30.819 66.466 30.819H66.019V60.294H69.909C72.121 60.292 74.333 60.319 76.544 60.281C79.352 60.233 81.097 58.857 81.644 56.14C82.124 53.754 82.058 51.326 81.724 48.925C81.468 47.085 80.372 45.895 78.547 45.428ZM71.243 35.275C72.475 35.275 73.659 35.227 74.837 35.291C75.642 35.334 76.131 35.881 76.32 36.651C76.42 37.061 76.48 37.491 76.49 37.914C76.512 38.821 76.512 39.729 76.475 40.634C76.459 41.014 76.36 41.4 76.237 41.762C76.055 42.299 75.667 42.74 75.111 42.792C73.835 42.914 72.55 42.935 71.241 42.997C71.243 40.341 71.243 37.8 71.243 35.275ZM76.553 54.125C76.463 55.324 75.83 55.838 74.625 55.901C73.589 55.955 72.547 55.921 71.508 55.931C71.31 55.933 71.218 55.87 71.218 55.656C71.225 52.919 71.227 50.182 71.232 47.446C71.232 47.421 71.249 47.397 71.272 47.336C72.457 47.336 73.63 47.276 74.795 47.354C75.885 47.426 76.543 48.089 76.613 49.333C76.698 50.925 76.673 52.534 76.553 54.125Z" fill="black"/>
<path id="Vector_31" d="M63.242 41.3341C63.187 39.3511 63.254 38.1611 63.052 36.2451C62.768 33.5511 61.23 31.7051 58.633 30.7861C56.633 30.0801 54.577 30.0461 52.526 30.5131C50.442 30.9881 48.79 32.0851 47.813 34.0321C47.217 35.2201 47.037 36.4941 47.037 37.8021C47.036 42.8891 47.034 47.9771 47.039 53.0641C47.039 53.5841 47.049 54.1071 47.111 54.6221C47.439 57.3491 48.822 59.3171 51.462 60.2881C53.794 61.1451 56.177 61.1321 58.535 60.3821C60.295 59.8221 61.631 58.7261 62.443 57.0561C62.994 55.9251 63.183 54.7181 63.189 53.4791C63.196 51.8091 63.191 51.4951 63.189 49.8261C63.189 49.6991 63.174 49.5711 63.166 49.4461H57.89V49.8761C57.888 51.2791 57.906 51.3271 57.878 52.7291C57.8675 53.2889 57.8016 53.8463 57.681 54.3931C57.392 55.6831 56.536 56.3471 55.204 56.3831C53.857 56.4211 52.954 55.8251 52.611 54.5521C52.4412 53.8936 52.3569 53.2161 52.36 52.5361C52.339 47.8901 52.342 43.2441 52.357 38.5961C52.36 37.9861 52.417 37.3661 52.548 36.7711C52.835 35.4561 53.704 34.7801 55.04 34.7441C56.378 34.7071 57.256 35.3221 57.644 36.5811C57.718 36.8221 57.792 37.0751 57.799 37.3241C57.839 38.7501 57.862 39.4261 57.889 40.8531C57.892 41.0071 57.889 41.1611 57.889 41.3331L63.242 41.3341Z" fill="black"/>
<path id="Vector_32" d="M44.534 35.1891C44.193 33.3461 43.346 31.8451 41.489 31.2431C40.651 30.9721 39.734 30.8531 38.851 30.8381C35.717 30.7911 32.581 30.8201 29.445 30.8201H29.039V60.2601H34.176V49.4001C34.996 49.4001 35.758 49.4111 36.519 49.3981C37.809 49.3741 39.109 49.4311 40.385 49.2811C42.335 49.0511 43.697 47.9481 44.278 46.0151C44.51 45.2441 44.678 44.4251 44.7 43.6231C44.76 41.4091 44.743 39.1921 44.726 36.9761C44.7139 36.376 44.6497 35.7781 44.534 35.1891ZM39.557 42.2921C39.547 42.7781 39.457 43.2751 39.329 43.7461C39.134 44.4561 38.631 44.9221 37.913 44.9561C36.694 45.0151 35.472 44.9731 34.198 44.9731V35.2651C34.242 35.2431 34.276 35.2141 34.31 35.2121C35.39 35.2101 36.471 35.1721 37.547 35.2221C38.697 35.2761 39.293 35.8641 39.475 37.0151C39.5297 37.3441 39.5598 37.6767 39.565 38.0101C39.573 39.4381 39.587 40.8651 39.557 42.2921Z" fill="black"/>
<path id="Vector_33" d="M26.105 30.812H20.743L14.8 44.162V30.812H9.33997V60.262H14.844V51.821L16.746 47.956L20.743 60.263H26.443L20.453 43.144L26.105 30.812Z" fill="black"/>
<path id="Vector_34" d="M92.45 30.082H91.788V60.304H92.451L92.45 30.082Z" fill="black"/>
</g>
</svg>
