<svg width="42" height="41" viewBox="0 0 42 41" fill="none" xmlns="http://www.w3.org/2000/svg">
<g id="Component 2">
<path id="Vector" fill-rule="evenodd" clip-rule="evenodd" d="M33.7369 26.1309H8.92993V12.1829L21.4699 4.76691L33.7379 12.1829L33.7369 26.1309ZM21.4699 0.555908L1.98193 11.7369V15.7769H4.96793V29.6699H37.4839V15.7779H40.5239V11.8479L21.4699 0.555908Z" fill="#6F7672"/>
<path id="Vector_2" fill-rule="evenodd" clip-rule="evenodd" d="M14.7999 17.495H27.7739V14.063H14.7999V17.495ZM14.7999 22.606H27.7739V19.174H14.7999V22.606ZM24.0349 39.382H23.0579V36.892H24.1439C24.9039 36.892 25.6099 37.334 25.6099 38.22C25.6099 39.216 24.9579 39.382 24.0349 39.382ZM24.1449 35.952H21.8649V40.325H24.0899C25.8799 40.325 26.9119 39.937 26.9119 38.222C26.9119 36.451 25.7729 35.952 24.1449 35.952ZM36.6899 37.562H34.9519V36.898H36.7429C37.2319 36.898 37.4489 36.953 37.4489 37.23C37.4489 37.562 37.2869 37.562 36.6899 37.562ZM37.3999 38.498C38.2139 38.388 38.5949 38.055 38.5949 37.336C38.5949 36.34 38.1049 35.952 36.9119 35.952H33.7629V40.325H34.9569V38.498H36.0969L37.3459 40.325H38.6489L37.3999 38.498ZM15.3199 35.952V40.325H16.4599V37.668L18.7399 40.325H20.0969V35.952H18.9569V38.664L16.6769 35.952H15.3199ZM4.12794 35.952V40.325H8.41594V39.384L5.32194 39.329V35.952H4.12794ZM9.64394 40.325H13.8239V39.384H10.8929V38.443H13.3359V37.557H10.8929V36.893H13.8239V35.953H9.64394V40.325ZM28.2499 35.952V40.325L32.3749 40.27V39.384H29.4439V38.443H31.9409V37.557H29.4439V36.893H32.3749V35.953L28.2499 35.952ZM13.8349 33.337L14.1599 31.787L14.5399 33.337H13.8349ZM14.6449 30.946H13.7219L12.6359 34.876H13.4269L13.6669 33.99H14.6439L14.8839 34.876H15.7299L14.6449 30.946ZM8.37094 33.437C8.37094 34.157 8.31694 34.322 7.88194 34.322C7.50194 34.322 7.39394 34.101 7.39394 33.382V32.44C7.39394 31.72 7.44794 31.5 7.93694 31.5C8.31694 31.5 8.37094 31.61 8.37094 32.385V33.437ZM8.97094 34.323C9.13394 33.991 9.18894 33.77 9.18894 33.272V32.442C9.18894 31.5 8.97194 30.836 7.88594 30.836C6.90894 30.836 6.58294 31.39 6.58294 32.386V33.438C6.58294 34.766 7.34294 34.821 9.56894 34.821L9.62294 34.545L8.97094 34.323ZM28.7329 33.824C28.7329 34.433 29.1129 34.931 29.9809 34.931C30.6869 34.931 31.3379 34.433 31.3379 33.824C31.3379 32.883 29.6009 32.44 29.6009 31.831C29.6009 31.61 29.8179 31.499 30.0349 31.499C30.3609 31.499 30.5239 31.72 30.6869 32.053L31.2289 31.831C31.1749 31.278 30.7949 30.835 29.9809 30.835C29.3299 30.835 28.7869 31.167 28.7869 31.831C28.7869 32.938 30.5239 33.215 30.5239 33.934C30.5239 34.211 30.3609 34.322 30.0349 34.322C29.7099 34.322 29.4919 34.101 29.3839 33.713L28.7329 33.824ZM24.6359 33.436C24.6359 34.101 24.4729 34.322 24.1479 34.322C23.7139 34.322 23.6589 34.045 23.6589 33.492V32.274C23.6589 31.776 23.7139 31.444 24.1479 31.444C24.5819 31.444 24.6359 31.832 24.6359 32.274V33.436ZM24.1499 30.835C23.3359 30.835 22.8469 31.278 22.8469 32.329V33.602C22.8469 34.543 23.1179 34.931 24.1499 34.931C25.1809 34.931 25.4529 34.488 25.4529 33.436V32.22C25.4529 31.223 25.1809 30.835 24.1499 30.835ZM35.9899 33.436C35.9899 34.599 36.3149 34.931 37.3999 34.931C38.2409 34.931 38.4869 34.529 38.4869 34.101V32.828H37.3469V33.436H37.7269V33.879C37.7269 34.211 37.6179 34.377 37.3469 34.377C36.8039 34.377 36.7489 33.99 36.7489 33.437V32.55C36.7489 31.886 36.8039 31.443 37.3469 31.443C37.7269 31.443 37.9439 31.719 37.9969 32.107L38.5409 31.886C38.4869 31.221 38.0519 30.834 37.2919 30.834C36.2069 30.834 35.9899 31.442 35.9899 32.273V33.436ZM25.7919 30.945V33.215C25.7919 34.543 26.0149 34.968 27.1549 34.968C28.0239 34.968 28.3429 34.488 28.3429 33.325V30.945H27.5829V33.215C27.5829 34.1 27.5289 34.321 27.0949 34.321C26.6609 34.321 26.6059 33.989 26.6059 33.159V30.945H25.7919ZM33.0449 30.946V34.876H33.6949V32.219L34.6189 34.876H35.5959V30.946H34.9439V33.381L34.0759 30.946H33.0449ZM9.96994 30.945V33.325C9.96994 34.432 10.0779 34.931 11.1639 34.931C12.4119 34.931 12.4669 34.321 12.4669 33.215V30.945H11.7069V33.27C11.7069 34.045 11.5979 34.266 11.2179 34.266C10.7839 34.266 10.7289 34.045 10.7289 33.159V30.945H9.96994ZM19.8419 30.946V34.876H20.6019V33.104H21.5249V34.875H22.2849V30.945H21.5249V32.44H20.6019V30.946H19.8419ZM4.07294 30.946V34.876H6.02694V34.266H4.83294V33.16H5.91794V32.606H4.83294V31.555H6.02694V30.945L4.07294 30.946ZM16.0739 30.946V34.876H17.8659V34.266H16.7259V30.946H16.0739ZM31.7369 34.875H32.4429V30.945H31.7369V34.875Z" fill="#6F7672"/>
</g>
</svg>
