<svg width="44" height="41" viewBox="0 0 44 41" fill="none" xmlns="http://www.w3.org/2000/svg">
<g id="Component 2">
<path id="Vector" fill-rule="evenodd" clip-rule="evenodd" d="M4.52393 33.1399H6.15993V32.594H3.89193V35.68H6.23393V35.132H4.52393V34.3349H6.02793V33.788H4.52393V33.1399ZM8.54193 35.132L8.23193 34.84L8.56293 34.4939L8.88993 34.799C8.97493 34.639 9.03093 34.426 9.03093 34.136C9.03093 33.272 8.54093 33.058 8.19393 33.058C7.84493 33.058 7.35493 33.273 7.35493 34.136C7.35493 35 7.84493 35.214 8.19293 35.214C8.31419 35.2152 8.43394 35.1871 8.54193 35.132ZM9.35293 35.2369L9.68893 35.553L9.34893 35.903L8.98393 35.553C8.69193 35.727 8.37393 35.761 8.19393 35.761C7.78493 35.761 6.71093 35.585 6.71093 34.136C6.71093 32.689 7.78493 32.513 8.19293 32.513C8.60193 32.513 9.67593 32.688 9.67593 34.136C9.67593 34.644 9.54193 34.9959 9.35293 35.2369ZM11.4419 35.76C12.2189 35.76 12.7099 35.412 12.7099 34.6V32.594H12.0519V34.6259C12.0519 35 11.8719 35.215 11.4289 35.215C11.1289 35.215 10.8789 35.027 10.8789 34.595V32.594H10.2219V34.639C10.2299 34.9479 10.2949 35.199 10.4619 35.387C10.7369 35.692 11.1579 35.76 11.4419 35.76ZM14.4459 33.29H14.4359L14.0399 34.51H14.8279L14.4459 33.29ZM15.0079 35.042H13.8679L13.6539 35.68H12.9759L14.0759 32.594H14.8199L15.9059 35.68H15.2059L15.0079 35.042ZM18.5879 35.122H17.0529V32.594H16.4079V35.68H18.5879V35.122ZM21.0319 35.68V34.295H22.2349V35.68H22.8789V32.594H22.2349V33.762H21.0319V32.594H20.3879V35.68H21.0319ZM24.9449 33.058C24.5979 33.058 24.1079 33.273 24.1079 34.136C24.1079 35 24.5979 35.214 24.9449 35.214C25.2949 35.214 25.7849 35 25.7849 34.136C25.7849 33.272 25.2949 33.058 24.9449 33.058ZM24.9449 35.76C24.5389 35.76 23.4639 35.585 23.4639 34.136C23.4639 32.688 24.5389 32.513 24.9449 32.513C25.3549 32.513 26.4289 32.688 26.4289 34.136C26.4289 35.586 25.3549 35.76 24.9449 35.76ZM28.2379 35.76C29.0159 35.76 29.5059 35.412 29.5059 34.6V32.594H28.8489V34.6259C28.8489 35 28.6689 35.215 28.2259 35.215C27.9239 35.215 27.6739 35.027 27.6739 34.595V32.594H27.0179V34.639C27.0259 34.9479 27.0899 35.199 27.2579 35.387C27.5339 35.692 27.9539 35.76 28.2379 35.76ZM31.3399 35.228C30.7779 35.228 30.6919 34.901 30.6859 34.729H30.0689C30.0689 35.111 30.2619 35.761 31.3869 35.761C31.6579 35.761 32.6029 35.68 32.6029 34.7509C32.6029 34.1969 32.2169 34.024 31.7959 33.921L31.0429 33.736C30.9149 33.706 30.7179 33.656 30.7179 33.414C30.7179 33.135 31.0099 33.044 31.2539 33.044C31.8169 33.044 31.8689 33.3719 31.8859 33.5089H32.5059C32.5009 33.131 32.2479 32.513 31.3019 32.513C30.3009 32.513 30.1149 33.118 30.1149 33.463C30.1149 34.141 30.5939 34.2519 31.0929 34.367H31.0959L31.4259 34.445C31.7529 34.5219 31.9859 34.588 31.9859 34.827C31.9859 35.1549 31.6449 35.228 31.3399 35.228ZM33.1329 35.68H33.7759V32.594H33.1329V35.68ZM36.9529 32.594H36.3509V34.743H36.3409L35.1169 32.593H34.4379V35.68H35.0389V33.478H35.0499L36.3079 35.68H36.9519L36.9529 32.594ZM40.3979 34.016H39.1099V34.5359H39.8269C39.6949 35.159 39.2209 35.214 39.0789 35.214C38.6409 35.214 38.1809 34.9959 38.1809 34.153C38.1809 33.3629 38.6059 33.045 39.0669 33.045C39.5209 33.045 39.7409 33.432 39.7409 33.553H40.3849C40.3529 33.126 39.9779 32.513 39.0319 32.513C37.9929 32.5079 37.5239 33.303 37.5239 34.145C37.5239 35.228 38.1989 35.76 38.9419 35.76C39.4979 35.76 39.7349 35.4869 39.8979 35.2999L39.9039 35.2929L39.9689 35.68H40.3979V34.016ZM5.23693 37.7449C4.88893 37.7449 4.39993 37.96 4.39993 38.824C4.39993 39.687 4.88993 39.9039 5.23693 39.9039C5.58493 39.9039 6.07493 39.687 6.07493 38.824C6.07493 37.96 5.58493 37.7449 5.23693 37.7449ZM5.23693 40.45C4.82893 40.45 3.75493 40.2719 3.75493 38.824C3.75493 37.376 4.82993 37.2 5.23693 37.2C5.64493 37.2 6.71893 37.376 6.71893 38.824C6.71993 40.2719 5.64493 40.45 5.23693 40.45ZM8.48593 37.813V38.72H9.08293C9.56393 38.72 9.56393 38.377 9.56393 38.24C9.56393 37.939 9.39593 37.813 8.99693 37.813H8.48593ZM9.22393 39.254H8.48593V40.367H7.83993V37.281H9.24993C9.84793 37.281 10.2079 37.664 10.2079 38.27C10.2079 38.549 10.0539 39.254 9.22393 39.254ZM11.9569 37.813V38.72H12.5549C13.0349 38.72 13.0349 38.377 13.0349 38.24C13.0349 37.939 12.8669 37.813 12.4679 37.813H11.9569ZM12.6969 39.254H11.9569V40.367H11.3129V37.281H12.7229C13.3199 37.281 13.6809 37.664 13.6809 38.27C13.6809 38.549 13.5249 39.254 12.6959 39.254H12.6969ZM16.1299 37.7439C15.7799 37.7439 15.2919 37.96 15.2919 38.824C15.2919 39.687 15.7809 39.9039 16.1299 39.9039C16.4769 39.9039 16.9679 39.687 16.9679 38.824C16.9679 37.96 16.4769 37.7439 16.1299 37.7439ZM16.1299 40.45C15.7209 40.45 14.6479 40.2719 14.6479 38.824C14.6479 37.376 15.7209 37.2 16.1299 37.2C16.5379 37.2 17.6119 37.376 17.6119 38.824C17.6119 40.2719 16.5369 40.45 16.1299 40.45ZM19.3659 37.813V38.639H20.1209C20.4569 38.639 20.6189 38.523 20.6189 38.218C20.6189 38.055 20.5469 37.813 20.1689 37.813H19.3659ZM19.3659 40.368H18.7329V37.282H20.2929C21.1139 37.282 21.2629 37.887 21.2629 38.1539C21.2629 38.4939 21.0929 38.7859 20.7879 38.888C21.0409 39 21.1779 39.094 21.1779 39.672C21.1779 40.122 21.1779 40.233 21.3159 40.284V40.368H20.6019C20.5589 40.22 20.5349 40.061 20.5349 39.7439C20.5349 39.3229 20.5079 39.16 20.0309 39.16H19.3659V40.368ZM23.0209 40.368H23.6649V37.8279H24.5979V37.281H22.0899V37.827H23.0219V40.367L23.0209 40.368ZM26.7899 40.45C27.5689 40.45 28.0579 40.1 28.0579 39.288V37.28H27.4009V39.313C27.4009 39.686 27.2209 39.903 26.7779 39.903C26.4779 39.903 26.2279 39.712 26.2279 39.283V37.28H25.5719V39.326C25.5789 39.6349 25.6439 39.884 25.8119 40.073C26.0869 40.377 26.5079 40.45 26.7899 40.45ZM31.7799 37.281H31.1769V39.429H31.1699L29.9439 37.281H29.2649V40.368H29.8679V38.166H29.8749L31.1349 40.368H31.7799V37.281ZM32.9519 40.368H33.5979V37.28H32.9519V40.368ZM35.4699 40.368H36.1149V37.8279H37.0479V37.281H34.5399V37.827H35.4699V40.368ZM38.8389 40.368H39.4839V39.2099L40.5159 37.281H39.7859L39.1739 38.623L38.5339 37.281H37.7739L38.8389 39.202V40.368ZM1.35693 10.682L22.1319 0.449951L43.2169 10.682V15.488H40.4249V29.906H3.68193V15.488H1.35693V10.682ZM8.17793 25.564H35.9289V12.387L22.1319 5.25695L8.17793 12.387V25.564ZM15.6199 17.037H28.4869V12.387H15.6199V17.037ZM15.6199 23.707H28.4869V19.054H15.6199V23.707Z" fill="#6F7672"/>
</g>
</svg>
