<svg width="96" height="33" viewBox="0 0 96 33" fill="none" xmlns="http://www.w3.org/2000/svg">
<g id="Group">
<path id="Vector" d="M82.266 3.77795C82.208 3.77822 82.1506 3.76703 82.097 3.74504C82.0434 3.72304 81.9947 3.69067 81.9536 3.64979C81.9125 3.6089 81.8799 3.56031 81.8577 3.50679C81.8355 3.45328 81.824 3.3959 81.824 3.33795V1.55995C81.824 1.502 81.8355 1.44462 81.8577 1.39111C81.8799 1.33759 81.9125 1.289 81.9536 1.24811C81.9947 1.20723 82.0434 1.17486 82.097 1.15287C82.1506 1.13087 82.208 1.11969 82.266 1.11995H94.04C94.282 1.11995 94.505 1.33795 94.505 1.55995V3.33595C94.505 3.58095 94.282 3.77695 94.04 3.77695H82.266V3.77795ZM81.532 9.40795C81.4741 9.40795 81.4169 9.39649 81.3635 9.37423C81.3101 9.35197 81.2616 9.31935 81.2209 9.27825C81.1801 9.23716 81.148 9.1884 81.1262 9.13479C81.1044 9.08119 81.0935 9.02381 81.094 8.96595V7.18995C81.097 7.07474 81.1442 6.96509 81.2256 6.8836C81.3071 6.8021 81.4168 6.75498 81.532 6.75195H94.724C94.8392 6.75498 94.9489 6.8021 95.0304 6.8836C95.1119 6.96509 95.159 7.07474 95.162 7.18995V8.96695C95.162 9.20895 94.969 9.40795 94.724 9.40795H92.38V16.958C92.38 17.889 91.619 18.6169 90.692 18.6169H84.293C84.2355 18.6177 84.1784 18.6071 84.125 18.5855C84.0716 18.564 84.0231 18.5321 83.9822 18.4916C83.9414 18.4511 83.909 18.4028 83.8869 18.3497C83.8649 18.2965 83.8537 18.2395 83.854 18.182V16.62C83.854 16.375 84.046 16.182 84.293 16.182H89.128V9.40695L81.532 9.40795ZM73.128 11.723C72.937 11.723 72.814 11.648 72.814 11.529C72.814 11.489 72.828 11.452 72.889 11.379L76.453 6.96795C76.723 6.65195 76.796 6.57895 77.042 6.57895H79.824C79.971 6.57895 80.067 6.65195 80.067 6.79995C80.067 6.86995 80.045 6.92095 79.997 6.99595L77.088 10.626H78.407V18.181C78.407 18.399 78.187 18.6159 77.965 18.6159H75.673C75.428 18.6159 75.208 18.423 75.208 18.181V11.723H73.128ZM73.128 6.09295C72.913 6.09295 72.814 6.01895 72.814 5.89295L72.86 5.77395L76.453 1.33895C76.723 1.00095 76.796 0.949951 77.041 0.949951H79.824C79.971 0.949951 80.067 1.02595 80.067 1.14295C80.068 1.22952 80.0394 1.31384 79.986 1.38195L76.354 5.89295C76.235 6.04295 76.134 6.09295 75.866 6.09295H73.128Z" fill="black"/>
<path id="Vector_2" d="M67.542 11.9399C67.812 11.6479 67.907 11.5749 68.127 11.5749H70.226C70.496 11.5749 70.618 11.6179 70.618 11.7699C70.618 11.8429 70.545 11.9399 70.398 12.1099L67.638 15.2759L67.834 15.5919C68.149 16.1299 68.199 16.2039 68.32 16.3279C68.492 16.4999 68.588 16.5219 69.155 16.5219H70.302C70.521 16.5219 70.738 16.7389 70.738 16.9569V18.1809C70.738 18.3959 70.521 18.6149 70.302 18.6149H68.588C67.1 18.6149 66.32 18.2509 65.732 17.3019L62.656 12.0379C62.6 11.9588 62.5655 11.8664 62.556 11.7699C62.556 11.6479 62.633 11.5749 62.799 11.5749H65.075C65.395 11.5749 65.462 11.6479 65.708 12.0379L66.443 13.2549L67.542 11.9399ZM61.189 6.98993V8.54993H67.638V6.98993H61.189ZM67.638 3.31493H61.188V4.87493H67.638V3.31493ZM61.188 16.5219H63.361C63.606 16.5219 63.829 16.7179 63.829 16.9569V18.1809C63.829 18.3959 63.606 18.6149 63.361 18.6149H60.136C59.212 18.6149 58.452 17.8619 58.452 16.9569V2.77693C58.452 1.87693 59.212 1.11993 60.136 1.11993H68.738C69.664 1.11993 70.398 1.87593 70.398 2.77693V9.04193C70.398 9.96693 69.664 10.7229 68.738 10.7229H61.188V16.5219ZM54.207 10.8419H56.817C57.06 10.8419 57.281 11.0369 57.281 11.2829V12.7439C57.281 12.9859 57.066 13.1849 56.817 13.1849H54.207V16.5219H56.28C56.498 16.5219 56.72 16.7179 56.72 16.9569V18.1809C56.72 18.3959 56.498 18.6149 56.28 18.6149H53.03C52.5912 18.611 52.1714 18.4352 51.8609 18.1252C51.5503 17.8152 51.3737 17.3957 51.369 16.9569V13.1849H49.243C49.1265 13.1847 49.0148 13.1382 48.9325 13.0557C48.8502 12.9732 48.804 12.8615 48.804 12.7449V11.2829C48.804 11.0369 49.001 10.8429 49.244 10.8429H51.369V8.91693H49.243C49.1855 8.91746 49.1285 8.90659 49.0753 8.88497C49.0221 8.86335 48.9736 8.83139 48.9328 8.79094C48.892 8.7505 48.8596 8.70236 48.8375 8.64932C48.8154 8.59629 48.804 8.53939 48.804 8.48193V6.98993C48.804 6.74993 49.001 6.55493 49.244 6.55493H56.816C57.059 6.55493 57.28 6.75093 57.28 6.98993V8.48193C57.28 8.72393 57.059 8.91693 56.816 8.91693H54.206V10.8429L54.207 10.8419ZM56.817 2.41193C57.06 2.41193 57.281 2.60793 57.281 2.85293V4.33793C57.281 4.55793 57.06 4.77293 56.817 4.77293H51.931L51.59 5.35993C51.394 5.72693 51.32 5.77393 50.955 5.77393H48.71C48.415 5.77393 48.341 5.72693 48.341 5.60193C48.341 5.55493 48.364 5.48193 48.441 5.35993L50.663 1.33793C50.833 1.02293 50.909 0.950928 51.177 0.950928H53.615C53.861 0.950928 53.961 1.00093 53.961 1.09593C53.961 1.16593 53.937 1.24293 53.885 1.33793L53.274 2.41293L56.817 2.41193Z" fill="black"/>
<path id="Vector_3" d="M31.222 10.4099C31.222 11.6069 31.296 11.7029 32.661 12.3599L35.254 13.5329L37.839 12.3599C39.231 11.6799 39.284 11.6069 39.284 10.4099V9.55893H31.222V10.4099ZM33.544 0.739925C33.544 0.472925 33.737 0.273926 33.983 0.273926H36.496C36.743 0.273926 36.938 0.472925 36.938 0.739925V1.61593H43.974C45.096 1.61593 46.023 2.53993 46.023 3.68493V4.93093C46.0234 4.98846 46.0123 5.04549 45.9903 5.09866C45.9683 5.15182 45.9359 5.20006 45.895 5.24051C45.8541 5.28095 45.8055 5.3128 45.7521 5.33417C45.6987 5.35554 45.6415 5.36599 45.584 5.36493H43.926C43.8683 5.36599 43.811 5.35555 43.7575 5.33421C43.7039 5.31288 43.6551 5.28108 43.6139 5.24067C43.5728 5.20027 43.5401 5.15206 43.5178 5.09888C43.4955 5.0457 43.484 4.9886 43.484 4.93093V3.83393H26.998V4.93093C26.998 4.9886 26.9865 5.0457 26.9642 5.09888C26.9419 5.15206 26.9092 5.20027 26.8681 5.24067C26.8269 5.28108 26.7781 5.31288 26.7245 5.33421C26.671 5.35555 26.6137 5.36599 26.556 5.36493H24.921C24.676 5.36493 24.454 5.17493 24.454 4.93093V3.68493C24.454 2.53993 25.409 1.61493 26.556 1.61493H33.544V0.739925ZM24.722 9.55893C24.455 9.55893 24.258 9.36593 24.258 9.12093V7.55993C24.258 7.31793 24.455 7.12493 24.722 7.12493H28.121V5.65993C28.121 5.41493 28.314 5.22193 28.559 5.22193H30.757C31.027 5.22193 31.222 5.41493 31.222 5.65993V7.12493H39.284V5.68393C39.284 5.41393 39.477 5.22193 39.744 5.22193H41.944C42.186 5.22193 42.385 5.41493 42.385 5.68393V7.12493H45.658C45.903 7.12493 46.099 7.31793 46.099 7.55993V9.12093C46.0991 9.17874 46.0878 9.236 46.0657 9.28939C46.0435 9.34279 46.011 9.39126 45.97 9.432C45.9289 9.47274 45.8802 9.50494 45.8267 9.52672C45.7732 9.54851 45.7158 9.55945 45.658 9.55893H42.385V10.4629C42.385 12.4849 41.797 13.1869 39.207 14.3619L38.134 14.8489L38.33 14.9219C39.649 15.5049 40.674 15.7499 41.797 15.7269H45.239C45.484 15.7269 45.68 15.9419 45.68 16.1869V17.7229C45.6801 17.7807 45.6688 17.838 45.6466 17.8914C45.6245 17.9448 45.592 17.9933 45.5509 18.034C45.5099 18.0747 45.4612 18.1069 45.4077 18.1287C45.3541 18.1505 45.2968 18.1615 45.239 18.1609H41.797C40.014 18.1369 39.111 17.9209 37.057 16.9889L35.254 16.1869L33.444 16.9899C31.296 17.9439 30.612 18.1099 28.707 18.1599H25.261C25.2036 18.1602 25.1468 18.1491 25.0938 18.1272C25.0407 18.1053 24.9926 18.0731 24.9521 18.0324C24.9116 17.9917 24.8796 17.9434 24.858 17.8903C24.8363 17.8372 24.8255 17.7803 24.826 17.7229V16.1869C24.826 15.9419 25.017 15.7269 25.261 15.7269H28.707C29.807 15.7269 31.05 15.4339 32.176 14.9219L32.369 14.8489L31.296 14.3619C28.658 13.1419 28.17 12.5319 28.121 10.4619V9.55893H24.722Z" fill="black"/>
<path id="Vector_4" d="M17.84 5.11496H20.307C20.515 5.11496 20.597 5.19996 20.601 5.33096C20.601 5.38396 20.559 5.48796 20.478 5.65096L17.963 10.571C17.791 10.915 17.665 10.988 17.156 10.988H14.666C14.469 10.988 14.373 10.915 14.373 10.766C14.373 10.72 14.373 10.67 14.493 10.451L17.036 5.52496C17.18 5.20996 17.352 5.11496 17.84 5.11496ZM8.558 10.451C8.656 10.618 8.68 10.72 8.68 10.766C8.68 10.916 8.583 10.988 8.388 10.988H5.896C5.382 10.988 5.26 10.915 5.089 10.57L2.546 5.64996C2.499 5.52496 2.453 5.40596 2.453 5.33096C2.453 5.18796 2.546 5.11496 2.745 5.11496H5.209C5.701 5.11496 5.844 5.18796 6.017 5.52496L8.558 10.451ZM1.18 14.932C1.11868 14.9341 1.05758 14.9235 1.00051 14.901C0.943445 14.8784 0.891626 14.8444 0.848286 14.801C0.804946 14.7575 0.771013 14.7056 0.748598 14.6485C0.726184 14.5914 0.715769 14.5303 0.718001 14.469V12.887C0.717603 12.8261 0.729274 12.7658 0.752339 12.7095C0.775403 12.6533 0.809403 12.6021 0.85237 12.559C0.895336 12.516 0.946418 12.4819 1.00266 12.4587C1.05889 12.4355 1.11917 12.4237 1.18 12.424H9.803V3.67296H1.841C1.595 3.67296 1.401 3.45796 1.401 3.21296V1.69996C1.401 1.45496 1.595 1.26196 1.841 1.26196H21.162C21.408 1.26196 21.601 1.45496 21.601 1.69996V3.21196C21.601 3.45696 21.408 3.67196 21.162 3.67196H13.224V12.423H21.917C22.187 12.423 22.381 12.641 22.381 12.886V14.468C22.3831 14.5295 22.3725 14.5908 22.3499 14.6481C22.3272 14.7053 22.293 14.7573 22.2494 14.8008C22.2057 14.8442 22.1536 14.8782 22.0962 14.9006C22.0389 14.923 21.9775 14.9333 21.916 14.931H13.224V18.247C13.224 18.492 13.005 18.684 12.758 18.684H10.245C10.1871 18.6848 10.1296 18.674 10.0758 18.6523C10.0221 18.6306 9.97325 18.5985 9.9321 18.5577C9.89095 18.5169 9.85834 18.4684 9.83617 18.4148C9.81401 18.3613 9.80273 18.3039 9.803 18.246V14.931L1.18 14.932Z" fill="black"/>
<path id="Vector_5" d="M58.492 25.1498C58.492 24.7368 58.808 24.4158 59.226 24.4158H62.211C63.158 24.4158 63.904 24.6758 64.378 25.1508C64.741 25.5148 64.931 25.9648 64.931 26.5218V26.5458C64.931 27.5378 64.363 28.0658 63.747 28.3858C64.717 28.7198 65.395 29.2738 65.395 30.3978V30.4198C65.395 31.8968 64.176 32.6898 62.326 32.6898H59.226C59.1294 32.6916 59.0334 32.6739 58.9438 32.6378C58.8541 32.6017 58.7726 32.548 58.7042 32.4798C58.6357 32.4116 58.5816 32.3304 58.5452 32.2409C58.5087 32.1514 58.4907 32.0555 58.492 31.9588V25.1498ZM61.912 27.9028C62.849 27.9028 63.474 27.5378 63.474 26.7828V26.7578C63.474 26.1078 62.954 25.7048 62.018 25.7048H59.925V27.9028H61.912ZM62.34 31.4008C63.333 31.4008 63.937 31.0068 63.937 30.2688V30.2418C63.937 29.5418 63.381 29.1308 62.232 29.1308H59.925V31.4008H62.34ZM66.57 31.7448L69.646 24.8908C69.816 24.5228 70.109 24.2988 70.526 24.2988H70.594C71.011 24.2988 71.296 24.5228 71.459 24.8908L74.538 31.7448C74.594 31.8486 74.622 31.9652 74.6192 32.083C74.6164 32.2009 74.5829 32.316 74.522 32.417C74.4611 32.5179 74.3749 32.6013 74.272 32.6588C74.1691 32.7163 74.0529 32.7459 73.935 32.7448C73.591 32.7448 73.354 32.5448 73.225 32.2378L72.547 30.6918H68.524L67.824 32.2838C67.7743 32.422 67.6823 32.5409 67.5611 32.6239C67.44 32.7068 67.2958 32.7495 67.149 32.7458C67.0601 32.7472 66.9718 32.7307 66.8893 32.6973C66.8069 32.6639 66.732 32.6143 66.6691 32.5515C66.6061 32.4886 66.5564 32.4138 66.5229 32.3314C66.4894 32.249 66.4728 32.1608 66.474 32.0718C66.479 31.9566 66.5119 31.8444 66.57 31.7448ZM71.995 29.4018L70.538 26.0608L69.076 29.4018H71.995ZM76.201 25.1038C76.201 24.6978 76.517 24.3718 76.935 24.3718H77.088C77.444 24.3718 77.646 24.5468 77.845 24.7948L81.987 30.1498V25.0688C81.9875 24.8807 82.0627 24.7005 82.196 24.5677C82.3293 24.435 82.5099 24.3606 82.698 24.3608C82.7921 24.3592 82.8855 24.3764 82.9729 24.4112C83.0603 24.446 83.1399 24.4979 83.2071 24.5638C83.2743 24.6297 83.3277 24.7082 83.3643 24.7949C83.4008 24.8816 83.4198 24.9747 83.42 25.0688V32.0138C83.42 32.4158 83.116 32.7338 82.71 32.7338H82.652C82.309 32.7338 82.097 32.5558 81.898 32.2958L77.634 26.7938V32.0358C77.634 32.4278 77.312 32.7458 76.925 32.7458C76.8307 32.7474 76.737 32.7302 76.6495 32.6953C76.5619 32.6603 76.4821 32.6083 76.4148 32.5422C76.3475 32.4761 76.2941 32.3973 76.2575 32.3104C76.221 32.2235 76.2021 32.1301 76.202 32.0358L76.201 25.1038ZM85.558 25.0808C85.558 24.6758 85.876 24.3608 86.291 24.3608C86.695 24.3608 87.014 24.6758 87.014 25.0808V28.5788L90.947 24.6308C91.0197 24.5424 91.1119 24.4721 91.2163 24.4252C91.3208 24.3784 91.4346 24.3564 91.549 24.3608C91.953 24.3608 92.224 24.6758 92.224 25.0308C92.224 25.2548 92.128 25.4198 91.963 25.5768L89.382 28.0568L92.177 31.5168C92.294 31.6718 92.379 31.8118 92.379 32.0368C92.379 32.4428 92.058 32.7458 91.643 32.7458C91.358 32.7458 91.183 32.6058 91.031 32.4038L88.361 29.0138L87.014 30.3118V32.0258C87.014 32.4278 86.695 32.7458 86.291 32.7458C86.1953 32.7478 86.1001 32.7307 86.0112 32.6954C85.9222 32.66 85.8412 32.6073 85.7729 32.5402C85.7046 32.4731 85.6504 32.3931 85.6135 32.3047C85.5766 32.2164 85.5577 32.1216 85.558 32.0258V25.0808Z" fill="black"/>
<path id="Vector_6" d="M23.513 24.3249H22.258C22.2058 24.3252 22.1558 24.3458 22.1186 24.3824C22.0814 24.419 22.06 24.4687 22.059 24.5209V30.2249C21.408 29.4839 17.074 24.5849 16.966 24.4719C16.9175 24.4236 16.8597 24.3856 16.7961 24.3603C16.7325 24.3351 16.6644 24.323 16.596 24.3249H15.35C15.2981 24.3252 15.2484 24.3459 15.2117 24.3826C15.175 24.4193 15.1543 24.469 15.154 24.5209V32.3979C15.154 32.5079 15.242 32.5969 15.35 32.5969H16.607C16.715 32.5969 16.803 32.5069 16.803 32.3979V26.6509C17.276 27.1809 21.829 32.3279 21.939 32.4489C21.9882 32.4978 22.0468 32.5361 22.1113 32.5615C22.1757 32.587 22.2447 32.599 22.314 32.5969H23.513C23.62 32.5969 23.709 32.5069 23.709 32.3979V24.5209C23.7087 24.469 23.688 24.4193 23.6513 24.3826C23.6146 24.3459 23.5649 24.3252 23.513 24.3249ZM30.761 24.2119H27.871C26.305 24.2119 25.037 25.3379 25.037 26.7259V30.1929C25.037 31.5809 26.304 32.7039 27.872 32.7039H30.761C32.325 32.7039 33.596 31.5809 33.596 30.1939V27.9669H29.212V29.1339C29.212 29.2439 29.302 29.3359 29.409 29.3359H31.813V30.9399C31.8114 30.9924 31.7895 31.0423 31.7518 31.0789C31.714 31.1155 31.6636 31.1359 31.611 31.1359H27.02C26.9679 31.1359 26.918 31.1153 26.8811 31.0786C26.8441 31.0418 26.8233 30.992 26.823 30.9399V25.9759C26.823 25.8679 26.912 25.7819 27.02 25.7819H31.612C31.72 25.7819 31.808 25.8679 31.808 25.9759V26.9249C31.8079 26.9515 31.813 26.9779 31.8232 27.0025C31.8334 27.027 31.8484 27.0493 31.8673 27.0681C31.8862 27.0868 31.9086 27.1015 31.9333 27.1115C31.958 27.1214 31.9844 27.1263 32.011 27.1259H33.397C33.51 27.1259 33.597 27.0379 33.597 26.9249V26.7249C33.597 25.3379 32.326 24.2119 30.761 24.2119ZM54.686 24.3249H53.434C53.4081 24.3246 53.3823 24.3295 53.3582 24.3392C53.3342 24.349 53.3123 24.3633 53.2938 24.3815C53.2753 24.3998 53.2606 24.4215 53.2505 24.4454C53.2404 24.4693 53.2351 24.495 53.235 24.5209V30.2249C52.581 29.4839 48.253 24.5849 48.145 24.4719C48.0949 24.4238 48.0359 24.386 47.9712 24.3608C47.9065 24.3356 47.8374 24.3234 47.768 24.3249H46.528C46.4756 24.3251 46.4254 24.3457 46.3879 24.3823C46.3504 24.4189 46.3286 24.4686 46.327 24.5209V32.3979C46.327 32.5079 46.421 32.5969 46.529 32.5969H47.78C47.89 32.5969 47.98 32.5069 47.98 32.3979V26.6509C48.452 27.1809 53.002 32.3279 53.112 32.4489C53.1617 32.4979 53.2208 32.5363 53.2858 32.5617C53.3508 32.5872 53.4203 32.5991 53.49 32.5969H54.686C54.7124 32.5972 54.7385 32.5922 54.7629 32.5824C54.7874 32.5725 54.8096 32.5579 54.8284 32.5394C54.8471 32.5209 54.8621 32.4989 54.8723 32.4746C54.8825 32.4503 54.8879 32.4243 54.888 32.3979V24.5209C54.8877 24.4947 54.8823 24.4689 54.872 24.4448C54.8617 24.4208 54.8467 24.399 54.8279 24.3808C54.8091 24.3625 54.7869 24.3482 54.7625 24.3386C54.7382 24.329 54.7122 24.3244 54.686 24.3249ZM41.581 24.5419C41.506 24.4039 41.378 24.3099 41.225 24.3099H39.985C39.83 24.3099 39.704 24.4039 39.626 24.5419L35.731 32.1999C35.602 32.4459 35.71 32.5939 35.942 32.5939H37.179C37.354 32.5939 37.424 32.5509 37.515 32.3789L40.605 26.2159L43.695 32.3789C43.789 32.5509 43.854 32.5939 44.032 32.5939H45.268C45.498 32.5939 45.611 32.4459 45.482 32.1999L41.581 24.5419ZM8.696 28.4189C8.696 28.5289 8.607 28.6169 8.496 28.6169H4.26V25.7819H8.496C8.607 25.7819 8.696 25.8679 8.696 25.9759V28.4189ZM7.751 24.3249H2.648C2.62231 24.3249 2.59687 24.33 2.57315 24.3399C2.54942 24.3497 2.52788 24.3642 2.50976 24.3824C2.49164 24.4006 2.4773 24.4222 2.46756 24.446C2.45782 24.4698 2.45287 24.4952 2.453 24.5209V32.3979C2.453 32.5079 2.54 32.5969 2.648 32.5969H4.064C4.172 32.5969 4.26 32.5069 4.26 32.3979V30.0769H7.751C9.318 30.0769 10.586 29.1509 10.586 27.7629V26.8409C10.586 25.4489 9.318 24.3249 7.751 24.3249ZM13.396 24.3249H11.996C11.9442 24.3254 11.8946 24.3463 11.858 24.3829C11.8213 24.4195 11.8005 24.4691 11.8 24.5209V32.3979C11.8003 32.4501 11.8209 32.5001 11.8575 32.5373C11.8941 32.5745 11.9438 32.5959 11.996 32.5969H13.396C13.4489 32.5969 13.4996 32.576 13.5371 32.5387C13.5745 32.5014 13.5957 32.4508 13.596 32.3979V24.5209C13.595 24.4686 13.5734 24.4187 13.536 24.3821C13.4986 24.3454 13.4484 24.3249 13.396 24.3249Z" fill="black"/>
<path id="Vector_7" d="M41.672 30.1228H39.54C39.4878 30.1239 39.4381 30.1453 39.4015 30.1824C39.3649 30.2196 39.3443 30.2696 39.344 30.3218V32.3978C39.344 32.5078 39.433 32.5938 39.54 32.5938H41.672C41.724 32.5938 41.7738 32.5732 41.8106 32.5364C41.8473 32.4997 41.868 32.4498 41.868 32.3978V30.3218C41.868 30.2695 41.8475 30.2192 41.8108 30.1818C41.7742 30.1444 41.7244 30.1239 41.672 30.1228Z" fill="black"/>
</g>
</svg>
