<svg width="155" height="91" viewBox="0 0 155 91" fill="none" xmlns="http://www.w3.org/2000/svg">
<g id="Component 2">
<path id="Vector" d="M13.9441 35.76V42.277H40.0551V35.76H13.9431H13.9441ZM13.9441 48.743V55.26H40.0551V48.743H13.9431H13.9441Z" fill="#BBBCBE"/>
<path id="Vector_2" d="M54.689 35.76C52.653 35.76 51.257 36.263 50.321 37.004C49.219 37.854 48.75 39.001 48.75 40.138C48.75 41.116 49.066 41.988 49.535 42.674C50.291 43.759 52.459 44.939 54.051 45.759C55.563 46.525 56.994 47.144 57.831 48.146C58.378 48.806 58.665 49.478 58.665 50.534C58.665 51.724 58.146 52.634 57.339 53.27C56.529 53.907 55.398 54.265 54.199 54.265C51.434 54.265 49.979 53.437 49.143 50.186L48.21 50.435C48.552 51.597 48.856 52.725 49.094 54.365C50.604 54.92 52.439 55.26 53.953 55.26C56.275 55.26 58.013 54.572 59.106 53.569C60.098 52.669 60.579 51.462 60.579 50.087C60.579 48.791 59.998 47.587 59.449 46.953C58.327 45.657 56.823 45.025 54.787 43.968C53.144 43.122 52.125 42.539 51.449 41.878C50.955 41.403 50.566 40.529 50.566 39.789C50.566 38.969 50.872 38.279 51.499 37.749C52.229 37.119 53.287 36.755 54.591 36.755C57.671 36.755 58.215 37.714 58.763 40.436L59.695 40.187C59.4523 38.9657 59.2396 37.7387 59.057 36.507C57.724 35.981 56.36 35.76 54.689 35.76ZM91.991 36.108V36.904C93.945 36.904 94.101 37.039 94.101 38.944V52.126C94.101 54.002 93.945 54.116 91.991 54.116V54.862H100.482C103.196 54.862 104.717 54.223 105.734 53.221C106.777 52.216 107.207 50.911 107.207 49.589C107.207 48.134 106.478 47.094 105.538 46.356C104.417 45.48 102.917 45.016 101.218 44.963V44.913C102.862 44.674 103.971 44.133 104.752 43.421C105.718 42.547 106.029 41.389 106.029 40.386C106.029 39.037 105.351 37.991 104.36 37.302C102.95 36.347 101.409 36.108 99.01 36.108H91.991ZM81.144 36.556C79.994 36.556 79.116 36.994 78.494 37.601C77.632 38.5 77.218 39.72 77.218 41.331V42.973H75.303V43.819H77.218V52.424C77.218 54.04 77.08 54.215 75.254 54.215V54.862H81.095V54.215C79.138 54.215 79.034 54.062 79.034 52.475V43.819H82.322V42.973H79.034V41.431C79.034 39.553 79.346 38.581 79.868 37.949C80.231 37.551 80.622 37.352 81.144 37.352C81.953 37.352 82.281 37.913 82.568 38.496C82.856 39.079 83.123 39.64 83.745 39.64C84.219 39.64 84.482 39.375 84.482 38.844C84.482 38.369 84.109 37.706 83.352 37.203C82.827 36.858 82.212 36.556 81.144 36.556ZM136.803 36.556C135.839 37.163 134.94 37.463 133.662 37.65V38.197C135.071 38.197 135.232 38.407 135.232 39.939V52.474C135.232 54.006 135.175 54.215 133.662 54.215V54.862H138.521V54.215C137.086 54.215 137.048 54.006 137.048 52.475V49.689L138.472 48.196L142.742 54.862H145.736V54.215C144.954 54.241 144.348 54.148 143.773 53.221L139.797 47.101L142.546 44.416C143.144 43.833 143.559 43.646 144.313 43.62V42.973H140.435V43.62C141.69 43.62 141.531 44.054 140.828 44.714L137.097 48.395H137.049V36.705L136.803 36.556ZM96.801 37.153H99.304C101.132 37.153 102.3 37.539 103.035 38.148C103.606 38.623 104.016 39.686 104.016 40.585C104.016 41.853 103.592 42.786 102.838 43.421C101.896 44.215 100.416 44.565 98.618 44.565H96.016V38.048C96.016 37.334 96.126 37.153 96.801 37.153ZM86.543 39.64C86.205 42.414 85.096 43.063 83.451 43.222V43.819H85.414V52.474C85.414 54.538 86.637 55.161 87.966 55.161C89.035 55.161 89.841 54.822 90.519 54.215L90.126 53.618C89.602 54.016 89.111 54.265 88.506 54.265C87.596 54.265 87.23 53.615 87.23 52.375V43.819H89.979V42.973H87.23V39.64H86.543ZM68.187 42.674C66.516 42.674 65.277 43.162 64.26 44.117C63.217 45.146 62.69 46.805 62.69 48.893C62.69 51.3 63.292 52.89 64.309 53.867C65.353 54.792 66.624 55.161 68.187 55.161C69.83 55.161 71.071 54.766 72.113 53.817C73.106 52.838 73.733 51.274 73.733 48.893C73.733 46.805 73.132 45.2 72.113 44.167C71.096 43.187 69.932 42.674 68.187 42.674ZM113.685 42.674C112.305 42.674 111.42 43.023 110.74 43.421C109.904 43.922 109.366 44.627 109.366 45.261C109.366 45.661 109.606 46.057 110.102 46.057C110.65 46.057 110.905 45.781 111.035 45.411C111.273 44.827 111.481 44.38 111.82 44.117C112.289 43.743 112.804 43.52 113.587 43.52C114.449 43.52 115.064 43.787 115.452 44.316C115.794 44.766 115.894 45.55 115.894 46.156V47.301L114.373 47.649C112.702 48.017 111.384 48.582 110.495 49.191C109.349 49.955 108.875 50.911 108.875 52.126C108.875 53.131 109.28 53.861 109.906 54.365C110.585 54.92 111.475 55.161 112.311 55.161C114.033 55.161 115.058 54.566 115.943 53.718H116.041C116.279 54.588 116.85 55.061 117.759 55.061C118.303 55.0732 118.842 54.9538 119.33 54.713L119.183 54.066C118.975 54.198 118.753 54.266 118.495 54.266C117.975 54.266 117.71 53.764 117.71 52.574V46.356C117.71 45.194 117.502 44.487 116.827 43.719C116.173 42.981 115.252 42.674 113.685 42.674ZM123.305 42.674C122.444 43.309 121.554 43.584 120.41 43.769V44.366C121.79 44.34 121.931 44.526 121.931 46.057V52.474C121.931 54.062 121.815 54.215 120.41 54.215V54.862H124.974V54.215C123.747 54.215 123.698 54.062 123.698 52.475V46.107C124.743 44.65 125.94 43.62 127.036 43.62C127.739 43.62 128.216 43.825 128.557 44.167C129.052 44.698 129.146 45.524 129.146 46.555V52.475C129.146 54.062 129.076 54.215 127.821 54.215V54.862H132.238V54.215C131.064 54.215 130.962 54.005 130.962 52.524V46.455C130.962 45.056 130.63 44.103 130.03 43.52C129.456 42.965 128.648 42.674 127.526 42.674C126.091 42.674 124.743 43.516 123.698 44.864H123.649L123.551 42.824L123.305 42.674ZM68.137 43.52C69.235 43.52 70.138 43.872 70.739 44.615C71.442 45.54 71.819 46.855 71.819 48.893C71.819 51.033 71.341 52.373 70.689 53.221C70.091 53.907 69.282 54.365 68.187 54.365C67.091 54.365 66.231 53.907 65.634 53.221C64.982 52.373 64.554 51.034 64.554 48.893C64.554 46.855 64.934 45.54 65.634 44.615C66.259 43.872 67.094 43.52 68.137 43.52ZM96.016 45.56H99.256C101.391 45.56 102.858 45.938 103.771 46.654C104.705 47.369 105.194 48.375 105.194 49.539C105.194 50.916 104.79 51.915 104.164 52.574C103.276 53.501 102.09 53.867 100.237 53.867H96.997C96.189 53.867 96.016 53.682 96.016 52.574V45.56ZM115.894 48.097V52.773C115.24 53.431 114.376 54.166 113.096 54.166C112.315 54.166 111.722 53.893 111.329 53.519C110.937 53.125 110.79 52.568 110.79 51.877C110.79 50.664 111.492 49.943 112.507 49.39C113.471 48.783 114.771 48.413 115.894 48.097Z" fill="black"/>
</g>
</svg>
