<svg width="90" height="23" viewBox="0 0 90 23" fill="none" xmlns="http://www.w3.org/2000/svg">
<g id="Mask group">
<mask id="mask0_14_63" style="mask-type:luminance" maskUnits="userSpaceOnUse" x="0" y="0" width="90" height="23">
<g id="Group">
<path id="Vector" d="M89.5 0.323395H0.5V22.3234H89.5V0.323395Z" fill="white"/>
</g>
</mask>
<g mask="url(#mask0_14_63)">
<g id="Group_2">
<path id="Vector_2" d="M23.8906 8.11832H32.9052V9.81208H29.3651V19.3255H27.4151V9.81208H23.8906V8.11832ZM32.5147 11.2101H34.1834V12.7797H34.2148C34.2722 12.5473 34.3751 12.3287 34.5173 12.1369C34.6739 11.9214 34.8589 11.7286 35.0673 11.5636C35.281 11.3902 35.5194 11.25 35.7744 11.1476C36.0268 11.0441 36.2968 10.9904 36.5695 10.9895C36.7127 10.9867 36.8558 10.9917 36.9984 11.0045C37.077 11.0156 37.1555 11.0259 37.2404 11.0361V12.7631C37.1155 12.7418 36.9882 12.7235 36.8578 12.7077C36.7311 12.6921 36.6036 12.6842 36.4759 12.6841C36.1829 12.6823 35.8931 12.7441 35.6259 12.8652C35.3576 12.9879 35.1205 13.1701 34.9322 13.398C34.7214 13.6551 34.5613 13.9504 34.4608 14.2678C34.3403 14.6538 34.2825 15.0566 34.2895 15.4611V19.3223H32.5147V11.2101ZM45.3993 19.3255H43.6521V18.1939H43.6207C43.3959 18.6081 43.0574 18.9485 42.6457 19.1745C42.2463 19.4116 41.7918 19.539 41.3282 19.5437C40.2675 19.5437 39.5007 19.2802 39.0278 18.7529C38.5548 18.2258 38.3191 17.428 38.3207 16.3594V11.2101H40.0954V16.1862C40.0954 16.8978 40.2306 17.3987 40.5008 17.6886C40.7711 17.9786 41.1506 18.1252 41.6393 18.1283C41.96 18.1392 42.2793 18.0806 42.5757 17.9567C42.8117 17.8521 43.0199 17.6934 43.1838 17.4933C43.3457 17.2885 43.4603 17.05 43.5193 16.7951C43.5887 16.5073 43.6228 16.212 43.6207 15.9158V11.2101H45.3986L45.3993 19.3255ZM48.4233 16.72C48.4757 17.2434 48.6731 17.6095 49.0158 17.8183C49.3892 18.0367 49.8158 18.1462 50.2476 18.1346C50.4381 18.1331 50.6283 18.1202 50.8172 18.0959C51.0228 18.0717 51.2244 18.0214 51.4175 17.9464C51.5953 17.88 51.7534 17.7693 51.8771 17.6245C52.0017 17.4673 52.0606 17.2674 52.0412 17.0671C52.0394 16.961 52.0163 16.8562 51.9734 16.7592C51.9304 16.6622 51.8686 16.5749 51.7914 16.5025C51.617 16.3451 51.4129 16.2249 51.1911 16.1491C50.9189 16.0528 50.6401 15.9767 50.3568 15.9213C50.0426 15.8591 49.7254 15.7911 49.4054 15.7174C49.0809 15.6465 48.7606 15.5575 48.4461 15.4509C48.151 15.3522 47.8724 15.2093 47.6196 15.027C47.3745 14.8482 47.1744 14.6142 47.0351 14.3438C46.8802 14.0242 46.8051 13.6713 46.8167 13.3159C46.8032 12.922 46.9153 12.5341 47.1364 12.2088C47.3508 11.909 47.6295 11.6617 47.952 11.4853C48.2924 11.2973 48.6614 11.1672 49.044 11.1002C49.422 11.0295 49.8057 10.993 50.1902 10.9911C50.5916 10.9895 50.9917 11.034 51.3828 11.1239C51.748 11.2072 52.0962 11.3532 52.4121 11.5557C52.7199 11.7558 52.9808 12.0211 53.1765 12.333C53.3897 12.6831 53.5202 13.0777 53.5583 13.4866H51.6987C51.6154 13.0571 51.4206 12.7692 51.1142 12.6231C50.7839 12.4719 50.4242 12.3968 50.0614 12.4033C49.9126 12.4048 49.7642 12.4154 49.6167 12.4349C49.4515 12.4541 49.2892 12.4937 49.1336 12.5528C48.9887 12.6059 48.8579 12.6916 48.7509 12.8034C48.6438 12.9207 48.5872 13.076 48.5939 13.2352C48.5902 13.3354 48.6087 13.4352 48.6478 13.5275C48.6869 13.6198 48.7457 13.7022 48.8201 13.769C48.9943 13.9185 49.1954 14.033 49.4125 14.1066C49.6846 14.2029 49.9634 14.2787 50.2468 14.3335C50.5611 14.3967 50.8835 14.465 51.214 14.5384C51.5354 14.6111 51.8529 14.7001 52.1653 14.8048C52.4633 14.9023 52.7448 15.0453 52.9997 15.2287C53.244 15.4073 53.4463 15.6378 53.5922 15.904C53.7518 16.2136 53.8297 16.5594 53.8184 16.9082C53.8184 17.3895 53.7092 17.7975 53.4908 18.1323C53.2734 18.4664 52.9825 18.7456 52.6407 18.9483C52.2805 19.1627 51.8881 19.3164 51.4787 19.4038C51.0639 19.4966 50.6403 19.5441 50.2153 19.5453C49.7385 19.5498 49.2632 19.4915 48.8013 19.3721C48.3971 19.2703 48.0161 19.0918 47.6785 18.8462C47.3649 18.6156 47.1085 18.3149 46.9298 17.9677C46.7387 17.58 46.6401 17.1527 46.6415 16.72H48.4233ZM54.2866 11.2101H55.6277V8.7778H57.4057V11.2101H59.0123V12.5449H57.4065V16.8765C57.4051 17.0392 57.413 17.2019 57.43 17.3637C57.441 17.4852 57.4783 17.6029 57.5392 17.7084C57.5994 17.8054 57.6897 17.8799 57.7961 17.9203C57.9473 17.9741 58.1073 17.9982 58.2676 17.9915C58.3925 17.9915 58.5174 17.9915 58.6415 17.9835C58.7679 17.9779 58.8935 17.9594 59.0162 17.9282V19.3097C58.8183 19.3302 58.6234 19.3516 58.4388 19.3721C58.2473 19.3936 58.0548 19.4041 57.8621 19.4038C57.4808 19.4149 57.1 19.3698 56.7315 19.2701C56.4775 19.1996 56.2461 19.0633 56.0606 18.8747C55.8943 18.6918 55.781 18.4665 55.733 18.2232C55.6718 17.9289 55.6378 17.6295 55.6316 17.3288V12.5449H54.2874L54.2866 11.2101ZM60.2576 11.2101H61.9443V12.3092H61.9758C62.2004 11.8627 62.5687 11.5059 63.0207 11.2971C63.4766 11.0911 63.9713 10.9868 64.471 10.9911C65.0425 10.9781 65.6099 11.0931 66.1319 11.3279C66.5903 11.5412 66.9936 11.8581 67.3104 12.2539C67.6298 12.662 67.868 13.1284 68.0119 13.6273C68.1714 14.1727 68.2507 14.7385 68.2476 15.3069C68.2482 15.8412 68.1773 16.3731 68.037 16.8884C67.9083 17.3765 67.6915 17.8368 67.3976 18.2461C67.1115 18.6384 66.7408 18.9604 66.3134 19.1879C65.8776 19.4235 65.363 19.5413 64.7695 19.5413C64.5081 19.5413 64.2473 19.5174 63.9902 19.4701C63.7327 19.4242 63.4814 19.348 63.2414 19.2432C63.0039 19.1396 62.7809 19.0047 62.5783 18.8423C62.3777 18.6826 62.2062 18.4889 62.0717 18.2698H62.0402V22.3192H60.2607L60.2576 11.2101ZM66.4642 15.2761C66.4649 14.9155 66.4176 14.5565 66.3236 14.2086C66.2385 13.8806 66.097 13.5702 65.9056 13.2913C65.7216 13.0277 65.482 12.8081 65.204 12.6485C64.9088 12.4825 64.575 12.3984 64.2368 12.405C63.4884 12.405 62.9246 12.6664 62.5454 13.1893C62.1662 13.7123 61.9763 14.4079 61.9758 15.2761C61.9727 15.6604 62.0227 16.0434 62.1243 16.414C62.2105 16.7411 62.3603 17.0477 62.565 17.3162C62.7566 17.5627 62.9975 17.7658 63.2721 17.9124C63.5687 18.0643 63.898 18.1399 64.2306 18.1323C64.5898 18.1436 64.9455 18.0571 65.2598 17.8815C65.536 17.7183 65.7731 17.4959 65.9543 17.23C66.1411 16.9542 66.2744 16.6455 66.3471 16.3199C66.4263 15.9776 66.4667 15.6275 66.4673 15.2761H66.4642ZM69.599 8.11832H71.38V9.81208H69.6021L69.599 8.11832ZM69.599 11.2101H71.38V19.3255H69.6021L69.599 11.2101ZM72.9655 8.11832H74.7434V19.3255H72.9686L72.9655 8.11832ZM80.1855 19.5453C79.5966 19.5546 79.0117 19.4446 78.4657 19.2219C77.9813 19.0215 77.5452 18.719 77.1868 18.3346C76.8314 17.946 76.5608 17.4867 76.3924 16.9864C76.0289 15.8699 76.0289 14.6656 76.3924 13.5491C76.5608 13.0482 76.8316 12.5883 77.1876 12.1993C77.5464 11.8164 77.9821 11.5148 78.4657 11.3145C79.5753 10.8864 80.8029 10.8864 81.9124 11.3145C82.3961 11.5157 82.8319 11.8181 83.1907 12.2017C83.5467 12.5908 83.8179 13.0505 83.9865 13.5515C84.35 14.668 84.35 15.8723 83.9865 16.9889C83.8179 17.4898 83.5467 17.9496 83.1907 18.3386C82.832 18.7214 82.3961 19.0225 81.9124 19.2219C81.3653 19.445 80.779 19.5549 80.1887 19.5453H80.1855ZM80.1855 18.1323C80.5446 18.1412 80.8996 18.0547 81.2148 17.8815C81.5005 17.719 81.746 17.4936 81.9328 17.2221C82.123 16.9428 82.2628 16.632 82.3461 16.304C82.5221 15.6221 82.5221 14.9063 82.3461 14.2243C82.2649 13.8954 82.1249 13.5841 81.9328 13.3055C81.7443 13.0379 81.499 12.8156 81.2148 12.6548C80.8966 12.4895 80.5436 12.4033 80.1855 12.4033C79.8275 12.4033 79.4746 12.4895 79.1564 12.6548C78.8724 12.8156 78.6274 13.0379 78.439 13.3055C78.2468 13.5838 78.1067 13.8953 78.0258 14.2243C77.8487 14.9062 77.8487 15.6223 78.0258 16.304C78.1087 16.6322 78.2486 16.9429 78.439 17.2221C78.6258 17.4936 78.8709 17.719 79.1564 17.8815C79.4725 18.0553 79.8287 18.1417 80.1887 18.1323H80.1855ZM84.7707 11.2101H86.1117V8.7778H87.8896V11.2101H89.4955V12.5449H87.8896V16.8765C87.8884 17.0392 87.8963 17.2019 87.9132 17.3637C87.9241 17.4852 87.9614 17.6029 88.0224 17.7084C88.0824 17.8056 88.1728 17.8802 88.2794 17.9203C88.4306 17.9741 88.5906 17.9982 88.7507 17.9915C88.8756 17.9915 88.9997 17.9915 89.1246 17.9835C89.2509 17.978 89.3762 17.9594 89.4987 17.9282V19.3097C89.3014 19.3302 89.1058 19.3516 88.922 19.3721C88.7305 19.3936 88.5379 19.4041 88.3453 19.4038C87.9637 19.4148 87.5827 19.3697 87.214 19.2701C86.96 19.1996 86.729 19.0633 86.5439 18.8747C86.3774 18.6918 86.2641 18.4665 86.2162 18.2232C86.155 17.9289 86.1211 17.6295 86.1149 17.3288V12.5449H84.7738L84.7707 11.2101Z" fill="#292B29"/>
<path id="Vector_3" d="M21.8162 8.11851L13.6738 8.11692L11.1581 0.323395L8.6425 8.11613L0.5 8.11455L7.08766 12.9333L4.57203 20.7285L11.1589 15.9112L17.7443 20.7285L15.2285 12.9357L21.8162 8.11851Z" fill="#23AD7A"/>
<path id="Vector_4" d="M15.8002 14.7014L15.2298 12.935L11.1602 15.9105L15.8002 14.7014Z" fill="#00532C"/>
</g>
</g>
</g>
</svg>
